<svg width="1440" height="900" viewBox="0 0 1440 900" fill="none" xmlns="http://www.w3.org/2000/svg">
<rect width="1440" height="900" fill="white"/>
<path fill-rule="evenodd" clip-rule="evenodd" d="M1080 569.386L1110 552V586.773L1080 569.386ZM1102.5 565.295L1095 569.386L1102.5 573.477V565.295Z" fill="#27AAF0" fill-opacity="0.62"/>
<path d="M1095 569.386L1102.5 565.295V573.477L1095 569.386Z" fill="#27AAF0" fill-opacity="0.62"/>
<path d="M1095 569.386L1102.5 565.295V573.477L1095 569.386Z" fill="#153276"/>
<path fill-rule="evenodd" clip-rule="evenodd" d="M933.735 484.296L944.219 465L955.69 483.8L933.735 484.296ZM944.55 474.662L941.845 479.348L947.249 479.086L944.55 474.662Z" fill="#27AAF0" fill-opacity="0.51"/>
<path d="M941.845 479.348L944.55 474.662L947.249 479.086L941.845 479.348Z" fill="#27AAF0" fill-opacity="0.51"/>
<path d="M941.845 479.348L944.55 474.662L947.249 479.086L941.845 479.348Z" fill="#27AAF0"/>
<path fill-rule="evenodd" clip-rule="evenodd" d="M784 318.489L809 304V332.977L784 318.489ZM802.75 315.08L796.5 318.489L802.75 321.898V315.08Z" fill="#153276" fill-opacity="0.54"/>
<path d="M796.5 318.489L802.75 315.08V321.898L796.5 318.489Z" fill="#153276" fill-opacity="0.54"/>
<path d="M796.5 318.489L802.75 315.08V321.898L796.5 318.489Z" fill="#153276"/>
<path d="M594 412V450L627 430.627L594 412Z" fill="#27AAF0" fill-opacity="0.44"/>
<path d="M608 552L646 573.765L608 597V552Z" fill="#153276" fill-opacity="0.79"/>
<path d="M1051 415L1089 436.765L1051 460V415Z" fill="#27AAF0" fill-opacity="0.83"/>
<path d="M857 548L870 555.255L857 563V548Z" fill="#27AAF0"/>
<path d="M813 418L829 426.706L813 436V418Z" fill="#153276" fill-opacity="0.56"/>
<path d="M746 473L784 494.765L746 518V473Z" fill="#27AAF0" fill-opacity="0.22"/>
<path d="M257 459V502L295 480.5L257 459Z" fill="#27AAF0" fill-opacity="0.5"/>
<path d="M276 610V653L314 631.5L276 610Z" fill="#153276" fill-opacity="0.28"/>
<path d="M998 535V558L1018 546.5L998 535Z" fill="#27AAF0"/>
<path d="M945 381V394L956 387.5L945 381Z" fill="#27AAF0"/>
<path d="M938 370H923L930.5 383L938 370Z" fill="#27AAF0"/>
<path d="M958 312V355L996 333.5L958 312Z" fill="#153276" fill-opacity="0.17"/>
<path d="M804 196V211L817 203.5L804 196Z" fill="#27AAF0"/>
<path d="M463 396V409L474 402.303L463 396Z" fill="#153277" fill-opacity="0.55"/>
<path d="M652 488V520L679 503.515L652 488Z" fill="#153276" fill-opacity="0.46"/>
<path d="M320 439V450L329 444.333L320 439Z" fill="#27AAF0" fill-opacity="0.33"/>
<path d="M474 516L481 512V520L474 516Z" fill="black"/>
<path d="M613 367L622 362V372L613 367Z" fill="#153276"/>
<path d="M112 544.5L122 539V550L112 544.5Z" fill="#27AAF0" fill-opacity="0.79"/>
<path d="M340 583L350 577V589L340 583Z" fill="#27AAF0"/>
<path d="M913 265V282L928 273.5L913 265Z" fill="#27AAF0" fill-opacity="0.71"/>
<path d="M1126.96 391.168L1102.16 415.867L1136.44 425.482L1126.96 391.168Z" fill="#153276" fill-opacity="0.67"/>
<path d="M1195 429V464L1226 446.5L1195 429Z" fill="#153276" fill-opacity="0.09"/>
<path d="M1121 504V521L1136 512.5L1121 504Z" fill="#27AAF0" fill-opacity="0.32"/>
<path d="M1162.83 560L1159 566.924L1167.03 566.844L1162.83 560Z" fill="#27AAF0" fill-opacity="0.56"/>
<path d="M236 482V503L254 492.216L236 482Z" fill="#153276" fill-opacity="0.72"/>
<path d="M196 460V479L212 469.5L196 460Z" fill="#27AAF0" fill-opacity="0.24"/>
<path d="M295 543V562L311 552.5L295 543Z" fill="#27AAF0"/>
<path d="M327 585V609L347 597L327 585Z" fill="#153276" fill-opacity="0.83"/>
<path d="M356 559V577L371 568L356 559Z" fill="#27AAF0" fill-opacity="0.58"/>
<path d="M416.5 360H369.5L323 461V494H397V528.5H442.5V494H462.5V458H442.5V424H397.5V458H372.5L416.5 360Z" fill="#27AAF0"/>
<path fill-rule="evenodd" clip-rule="evenodd" d="M472.5 444.5C472.5 494 491.5 530 539.5 530C587.5 530 606.5 494 606.5 444.5C606.5 395 586 359 539.5 359C493 359 472.5 395 472.5 444.5ZM536.5 393H541.5C546.5 393 559.5 393 559.5 434C559.5 449.78 559.489 451.943 559.479 450.682C559.485 452.793 559.491 455.804 559.5 460C559.575 495.925 546.5 496 541.5 496H536.5C531.5 496 519.5 496 519.5 460V434C519.5 393 531.5 393 536.5 393Z" fill="#27AAF0"/>
<path d="M620.5 494V461L666.5 360L713.5 360.5L670.5 455.5V458H694.5V424H734.5L694.5 524.5V494H620.5Z" fill="#27AAF0"/>
<path d="M734.5 424L694.5 524.5L672 584L724.5 458L738.5 424L779 317L734.5 424Z" fill="#27AAF0"/>
<path d="M799.84 398.52C797.309 398.52 795.073 398.173 793.132 397.48C791.191 396.752 789.336 395.591 787.568 393.996C786.84 393.372 786.476 392.661 786.476 391.864C786.476 391.24 786.719 390.685 787.204 390.2C787.689 389.68 788.261 389.42 788.92 389.42C789.509 389.42 790.012 389.611 790.428 389.992C791.815 391.275 793.236 392.228 794.692 392.852C796.183 393.441 797.864 393.736 799.736 393.736C801.92 393.736 803.757 393.233 805.248 392.228C806.773 391.223 807.536 389.957 807.536 388.432C807.501 386.629 806.739 385.243 805.248 384.272C803.792 383.267 801.556 382.435 798.54 381.776C794.969 381.048 792.213 379.852 790.272 378.188C788.365 376.524 787.412 374.219 787.412 371.272C787.412 369.227 787.949 367.441 789.024 365.916C790.099 364.356 791.589 363.16 793.496 362.328C795.403 361.496 797.552 361.08 799.944 361.08C802.093 361.08 804.121 361.427 806.028 362.12C807.935 362.813 809.477 363.732 810.656 364.876C811.453 365.569 811.852 366.315 811.852 367.112C811.852 367.736 811.609 368.291 811.124 368.776C810.673 369.261 810.119 369.504 809.46 369.504C808.975 369.504 808.576 369.365 808.264 369.088C807.363 368.187 806.115 367.424 804.52 366.8C802.925 366.176 801.4 365.864 799.944 365.864C797.621 365.864 795.767 366.349 794.38 367.32C793.028 368.256 792.352 369.504 792.352 371.064C792.352 372.763 793.028 374.063 794.38 374.964C795.767 375.865 797.812 376.628 800.516 377.252C803.22 377.841 805.421 378.535 807.12 379.332C808.853 380.129 810.188 381.239 811.124 382.66C812.06 384.081 812.528 385.936 812.528 388.224C812.528 390.235 811.956 392.02 810.812 393.58C809.703 395.14 808.177 396.353 806.236 397.22C804.295 398.087 802.163 398.52 799.84 398.52ZM856.154 379.8C856.154 383.301 855.391 386.473 853.866 389.316C852.375 392.159 850.295 394.412 847.626 396.076C844.956 397.705 841.94 398.52 838.578 398.52C835.215 398.52 832.199 397.705 829.53 396.076C826.86 394.412 824.763 392.159 823.238 389.316C821.747 386.473 821.002 383.301 821.002 379.8C821.002 376.299 821.747 373.127 823.238 370.284C824.763 367.441 826.86 365.205 829.53 363.576C832.199 361.912 835.215 361.08 838.578 361.08C841.94 361.08 844.956 361.912 847.626 363.576C850.295 365.205 852.375 367.441 853.866 370.284C855.391 373.127 856.154 376.299 856.154 379.8ZM850.798 379.8C850.798 377.2 850.278 374.86 849.238 372.78C848.198 370.665 846.742 369.019 844.87 367.84C843.032 366.627 840.935 366.02 838.578 366.02C836.22 366.02 834.106 366.609 832.234 367.788C830.396 368.967 828.958 370.613 827.918 372.728C826.878 374.808 826.358 377.165 826.358 379.8C826.358 382.4 826.878 384.757 827.918 386.872C828.958 388.952 830.396 390.599 832.234 391.812C834.106 392.991 836.22 393.58 838.578 393.58C840.935 393.58 843.032 392.991 844.87 391.812C846.742 390.599 848.198 388.952 849.238 386.872C850.278 384.757 850.798 382.4 850.798 379.8ZM898.307 361.548C899 361.583 899.59 361.843 900.075 362.328C900.56 362.779 900.803 363.351 900.803 364.044V395.504C900.803 396.197 900.56 396.787 900.075 397.272C899.624 397.757 899.018 398 898.255 398C897.492 398 896.868 397.775 896.383 397.324C895.898 396.839 895.655 396.232 895.655 395.504V371.428L885.567 386.716C885.324 387.028 885.012 387.288 884.631 387.496C884.284 387.704 883.92 387.791 883.539 387.756C883.192 387.791 882.828 387.704 882.447 387.496C882.1 387.288 881.806 387.028 881.563 386.716L871.423 370.96V395.504C871.423 396.232 871.198 396.839 870.747 397.324C870.331 397.775 869.759 398 869.031 398C868.338 398 867.766 397.775 867.315 397.324C866.899 396.839 866.691 396.232 866.691 395.504V364.044C866.691 363.385 866.934 362.813 867.419 362.328C867.904 361.808 868.511 361.548 869.239 361.548C869.655 361.548 870.054 361.652 870.435 361.86C870.851 362.068 871.18 362.345 871.423 362.692L883.747 381.36L896.227 362.692C896.782 361.929 897.475 361.548 898.307 361.548ZM934.041 393.216C934.769 393.216 935.358 393.459 935.809 393.944C936.294 394.429 936.537 395.001 936.537 395.66C936.537 396.353 936.294 396.925 935.809 397.376C935.358 397.792 934.769 398 934.041 398H915.945C915.251 398 914.662 397.757 914.177 397.272C913.691 396.787 913.449 396.197 913.449 395.504V364.096C913.449 363.403 913.691 362.813 914.177 362.328C914.662 361.843 915.251 361.6 915.945 361.6H934.041C934.769 361.6 935.358 361.825 935.809 362.276C936.294 362.727 936.537 363.316 936.537 364.044C936.537 364.737 936.294 365.309 935.809 365.76C935.358 366.176 934.769 366.384 934.041 366.384H918.597V376.992H931.701C932.429 376.992 933.018 377.217 933.469 377.668C933.954 378.119 934.197 378.691 934.197 379.384C934.197 380.112 933.954 380.684 933.469 381.1C933.018 381.516 932.429 381.724 931.701 381.724H918.597V393.216H934.041ZM970.713 361.6C971.441 361.6 972.03 361.825 972.481 362.276C972.966 362.692 973.209 363.264 973.209 363.992C973.209 364.72 972.966 365.292 972.481 365.708C972.03 366.124 971.441 366.332 970.713 366.332H961.457V395.504C961.457 396.197 961.197 396.787 960.677 397.272C960.192 397.757 959.568 398 958.805 398C958.042 398 957.401 397.757 956.881 397.272C956.396 396.787 956.153 396.197 956.153 395.504V366.332H946.949C946.221 366.332 945.614 366.124 945.129 365.708C944.678 365.257 944.453 364.668 944.453 363.94C944.453 363.247 944.678 362.692 945.129 362.276C945.614 361.825 946.221 361.6 946.949 361.6H970.713ZM1009.41 361.6C1010.17 361.6 1010.79 361.843 1011.28 362.328C1011.76 362.779 1012.01 363.368 1012.01 364.096V395.452C1011.97 396.18 1011.71 396.787 1011.23 397.272C1010.74 397.757 1010.12 398 1009.36 398C1008.66 398 1008.06 397.757 1007.54 397.272C1007.05 396.787 1006.81 396.18 1006.81 395.452V381.984H988.347V395.452C988.347 396.18 988.087 396.787 987.567 397.272C987.047 397.757 986.44 398 985.747 398C984.984 398 984.36 397.757 983.875 397.272C983.424 396.787 983.199 396.18 983.199 395.452V364.096C983.199 363.403 983.441 362.813 983.927 362.328C984.412 361.843 985.036 361.6 985.799 361.6C986.492 361.6 987.081 361.843 987.567 362.328C988.087 362.813 988.347 363.403 988.347 364.096V377.2H1006.81V364.096C1006.81 363.403 1007.07 362.813 1007.59 362.328C1008.11 361.843 1008.71 361.6 1009.41 361.6ZM1029.72 395.452C1029.72 396.18 1029.46 396.787 1028.94 397.272C1028.42 397.757 1027.82 398 1027.12 398C1026.36 398 1025.74 397.757 1025.25 397.272C1024.8 396.787 1024.57 396.18 1024.57 395.452V364.096C1024.57 363.403 1024.82 362.813 1025.3 362.328C1025.79 361.843 1026.41 361.6 1027.17 361.6C1027.87 361.6 1028.46 361.843 1028.94 362.328C1029.46 362.813 1029.72 363.403 1029.72 364.096V395.452ZM1069.53 361.6C1070.19 361.6 1070.73 361.825 1071.14 362.276C1071.56 362.692 1071.77 363.229 1071.77 363.888V395.452C1071.77 396.18 1071.53 396.787 1071.04 397.272C1070.59 397.757 1070 398 1069.27 398C1068.89 398 1068.51 397.948 1068.13 397.844C1067.78 397.705 1067.5 397.515 1067.3 397.272L1046.86 370.648V395.712C1046.86 396.371 1046.63 396.925 1046.18 397.376C1045.77 397.792 1045.23 398 1044.57 398C1043.91 398 1043.38 397.792 1042.96 397.376C1042.54 396.925 1042.34 396.371 1042.34 395.712V364.096C1042.34 363.368 1042.56 362.779 1043.01 362.328C1043.5 361.843 1044.09 361.6 1044.78 361.6C1045.2 361.6 1045.59 361.687 1045.98 361.86C1046.36 361.999 1046.65 362.207 1046.86 362.484L1067.24 389.16V363.888C1067.24 363.229 1067.45 362.692 1067.87 362.276C1068.32 361.825 1068.87 361.6 1069.53 361.6ZM1111.15 378.864C1111.84 378.864 1112.41 379.107 1112.87 379.592C1113.35 380.077 1113.59 380.667 1113.59 381.36V393.06C1113.59 393.996 1113.18 394.724 1112.35 395.244C1110.75 396.284 1109 397.099 1107.09 397.688C1105.19 398.243 1103.23 398.52 1101.22 398.52C1097.75 398.52 1094.56 397.688 1091.65 396.024C1088.77 394.36 1086.5 392.107 1084.84 389.264C1083.17 386.387 1082.34 383.232 1082.34 379.8C1082.34 376.368 1083.17 373.231 1084.84 370.388C1086.5 367.511 1088.77 365.24 1091.65 363.576C1094.56 361.912 1097.75 361.08 1101.22 361.08C1102.95 361.08 1104.62 361.271 1106.21 361.652C1107.84 362.033 1109.3 362.605 1110.58 363.368C1110.99 363.611 1111.31 363.905 1111.51 364.252C1111.72 364.599 1111.83 364.98 1111.83 365.396C1111.83 366.089 1111.58 366.696 1111.1 367.216C1110.65 367.701 1110.09 367.944 1109.43 367.944C1108.91 367.944 1108.46 367.823 1108.08 367.58C1105.83 366.54 1103.54 366.02 1101.22 366.02C1098.72 366.02 1096.43 366.627 1094.35 367.84C1092.31 369.053 1090.68 370.717 1089.47 372.832C1088.29 374.947 1087.7 377.269 1087.7 379.8C1087.7 382.331 1088.29 384.653 1089.47 386.768C1090.68 388.848 1092.31 390.512 1094.35 391.76C1096.43 392.973 1098.72 393.58 1101.22 393.58C1102.4 393.58 1103.63 393.441 1104.91 393.164C1106.23 392.887 1107.35 392.523 1108.29 392.072V383.804H1102C1101.3 383.804 1100.72 383.579 1100.23 383.128C1099.74 382.643 1099.5 382.053 1099.5 381.36C1099.5 380.632 1099.74 380.043 1100.23 379.592C1100.72 379.107 1101.3 378.864 1102 378.864H1111.15Z" fill="#313131"/>
<path d="M832.236 414.496C832.548 414.496 832.808 414.583 833.016 414.756C833.224 414.895 833.328 415.137 833.328 415.484C833.328 415.623 833.293 415.796 833.224 416.004L821.316 450.324C821.247 450.532 821.108 450.705 820.9 450.844C820.727 450.948 820.553 451 820.38 451C820.137 451 819.912 450.965 819.704 450.896C819.531 450.792 819.409 450.619 819.34 450.376L809.616 425.832H810.032L800.308 450.376C800.204 450.619 800.048 450.792 799.84 450.896C799.667 450.965 799.459 451 799.216 451C799.043 451 798.869 450.948 798.696 450.844C798.523 450.705 798.401 450.532 798.332 450.324L786.424 416.004C786.355 415.796 786.32 415.64 786.32 415.536C786.32 415.189 786.441 414.929 786.684 414.756C786.961 414.583 787.221 414.496 787.464 414.496C787.672 414.496 787.863 414.565 788.036 414.704C788.244 414.808 788.383 414.964 788.452 415.172L799.632 447.464L799.268 447.516L808.836 423.336C808.905 423.128 809.027 422.972 809.2 422.868C809.373 422.729 809.581 422.66 809.824 422.66C810.032 422.66 810.223 422.729 810.396 422.868C810.604 422.972 810.743 423.128 810.812 423.336L820.484 447.672L820.016 447.724L831.196 415.172C831.265 414.964 831.387 414.808 831.56 414.704C831.733 414.565 831.959 414.496 832.236 414.496ZM845.369 414.6H864.973C865.25 414.6 865.493 414.704 865.701 414.912C865.909 415.12 866.013 415.363 866.013 415.64C866.013 415.952 865.909 416.212 865.701 416.42C865.493 416.593 865.25 416.68 864.973 416.68H845.993L846.513 415.796V431.916L845.889 431.188H862.633C862.91 431.188 863.153 431.292 863.361 431.5C863.569 431.708 863.673 431.951 863.673 432.228C863.673 432.54 863.569 432.8 863.361 433.008C863.153 433.181 862.91 433.268 862.633 433.268H845.993L846.513 432.696V449.18L846.305 448.92H864.973C865.25 448.92 865.493 449.024 865.701 449.232C865.909 449.44 866.013 449.683 866.013 449.96C866.013 450.272 865.909 450.532 865.701 450.74C865.493 450.913 865.25 451 864.973 451H845.369C845.092 451 844.849 450.896 844.641 450.688C844.433 450.48 844.329 450.237 844.329 449.96V415.64C844.329 415.363 844.433 415.12 844.641 414.912C844.849 414.704 845.092 414.6 845.369 414.6ZM904.145 414.6C904.457 414.6 904.699 414.704 904.873 414.912C905.046 415.085 905.133 415.311 905.133 415.588V449.856C905.133 450.237 905.011 450.532 904.769 450.74C904.561 450.913 904.318 451 904.041 451C903.902 451 903.746 450.965 903.573 450.896C903.434 450.827 903.313 450.723 903.209 450.584L879.081 417.616L879.809 417.252V450.116C879.809 450.359 879.705 450.567 879.497 450.74C879.323 450.913 879.098 451 878.821 451C878.509 451 878.266 450.913 878.093 450.74C877.919 450.567 877.833 450.359 877.833 450.116V415.64C877.833 415.259 877.937 414.999 878.145 414.86C878.353 414.687 878.561 414.6 878.769 414.6C878.907 414.6 879.046 414.635 879.185 414.704C879.323 414.739 879.445 414.825 879.549 414.964L903.573 447.724L903.157 448.764V415.588C903.157 415.311 903.261 415.085 903.469 414.912C903.677 414.704 903.902 414.6 904.145 414.6ZM929.809 451C929.497 451 929.237 450.896 929.029 450.688C928.855 450.48 928.769 450.237 928.769 449.96V415.848H930.849V449.96C930.849 450.237 930.745 450.48 930.537 450.688C930.329 450.896 930.086 451 929.809 451ZM917.173 416.576C916.895 416.576 916.653 416.489 916.445 416.316C916.237 416.108 916.133 415.865 916.133 415.588C916.133 415.311 916.237 415.085 916.445 414.912C916.653 414.704 916.895 414.6 917.173 414.6H942.445C942.722 414.6 942.965 414.704 943.173 414.912C943.381 415.085 943.485 415.311 943.485 415.588C943.485 415.9 943.381 416.143 943.173 416.316C942.965 416.489 942.722 416.576 942.445 416.576H917.173Z" fill="#313131"/>
<path d="M829.324 470.444C830.156 470.444 830.919 470.773 831.612 471.432C832.34 472.056 832.704 472.853 832.704 473.824C832.704 474.136 832.652 474.483 832.548 474.864L822.304 505.024C822.096 505.613 821.732 506.081 821.212 506.428C820.692 506.775 820.12 506.965 819.496 507C818.872 507 818.283 506.827 817.728 506.48C817.173 506.133 816.74 505.631 816.428 504.972L809.044 488.176L801.608 504.972C801.296 505.631 800.863 506.133 800.308 506.48C799.753 506.827 799.164 507 798.54 507C797.916 506.965 797.344 506.775 796.824 506.428C796.304 506.081 795.94 505.613 795.732 505.024L785.488 474.864C785.384 474.483 785.332 474.136 785.332 473.824C785.332 472.853 785.679 472.056 786.372 471.432C787.1 470.773 787.897 470.444 788.764 470.444C789.457 470.444 790.081 470.635 790.636 471.016C791.191 471.363 791.572 471.848 791.78 472.472L799.528 495.976L806.288 479.752C806.565 479.128 806.964 478.643 807.484 478.296C808.004 477.915 808.593 477.741 809.252 477.776C809.911 477.741 810.483 477.915 810.968 478.296C811.488 478.643 811.887 479.128 812.164 479.752L818.56 495.82L826.256 472.472C826.464 471.848 826.845 471.363 827.4 471.016C827.989 470.635 828.631 470.444 829.324 470.444ZM871.003 501.904C871.453 502.181 871.8 502.545 872.043 502.996C872.32 503.447 872.459 503.915 872.459 504.4C872.459 505.024 872.251 505.596 871.835 506.116C871.315 506.74 870.517 507.052 869.443 507.052C868.611 507.052 867.848 506.861 867.155 506.48C864.659 505.059 863.411 502.164 863.411 497.796C863.411 496.548 862.995 495.56 862.163 494.832C861.365 494.104 860.204 493.74 858.679 493.74H848.955V503.828C848.955 504.764 848.695 505.527 848.175 506.116C847.689 506.705 847.031 507 846.199 507C845.193 507 844.309 506.705 843.547 506.116C842.819 505.492 842.455 504.729 842.455 503.828V473.772C842.455 472.871 842.749 472.125 843.339 471.536C843.963 470.912 844.725 470.6 845.627 470.6H860.603C862.405 470.6 864.104 471.085 865.699 472.056C867.293 473.027 868.559 474.361 869.495 476.06C870.465 477.759 870.951 479.665 870.951 481.78C870.951 483.513 870.483 485.212 869.547 486.876C868.611 488.505 867.397 489.805 865.907 490.776C868.091 492.301 869.287 494.347 869.495 496.912C869.599 497.467 869.651 498.004 869.651 498.524C869.789 499.599 869.928 500.379 870.067 500.864C870.205 501.315 870.517 501.661 871.003 501.904ZM860.343 488.384C860.967 488.384 861.573 488.089 862.163 487.5C862.752 486.911 863.237 486.131 863.619 485.16C864 484.155 864.191 483.08 864.191 481.936C864.191 480.965 864 480.081 863.619 479.284C863.237 478.452 862.752 477.793 862.163 477.308C861.573 476.823 860.967 476.58 860.343 476.58H848.955V488.384H860.343ZM916.134 488.8C916.134 492.232 915.371 495.387 913.846 498.264C912.321 501.107 910.206 503.36 907.502 505.024C904.833 506.688 901.817 507.52 898.454 507.52C895.091 507.52 892.058 506.688 889.354 505.024C886.685 503.36 884.587 501.107 883.062 498.264C881.571 495.387 880.826 492.232 880.826 488.8C880.826 485.368 881.571 482.231 883.062 479.388C884.587 476.511 886.685 474.24 889.354 472.576C892.058 470.912 895.091 470.08 898.454 470.08C901.817 470.08 904.833 470.912 907.502 472.576C910.206 474.24 912.321 476.511 913.846 479.388C915.371 482.231 916.134 485.368 916.134 488.8ZM909.374 488.8C909.374 486.477 908.906 484.38 907.97 482.508C907.034 480.601 905.734 479.093 904.07 477.984C902.406 476.875 900.534 476.32 898.454 476.32C896.339 476.32 894.45 476.875 892.786 477.984C891.157 479.059 889.874 480.549 888.938 482.456C888.037 484.363 887.586 486.477 887.586 488.8C887.586 491.123 888.037 493.237 888.938 495.144C889.874 497.051 891.157 498.559 892.786 499.668C894.45 500.743 896.339 501.28 898.454 501.28C900.534 501.28 902.406 500.725 904.07 499.616C905.734 498.507 907.034 497.016 907.97 495.144C908.906 493.237 909.374 491.123 909.374 488.8ZM954.715 470.6C955.547 470.6 956.223 470.877 956.743 471.432C957.263 471.987 957.523 472.68 957.523 473.512V503.828C957.523 504.729 957.211 505.492 956.587 506.116C955.998 506.705 955.252 507 954.351 507C953.866 507 953.38 506.931 952.895 506.792C952.444 506.619 952.115 506.393 951.907 506.116L932.823 481.884V504.088C932.823 504.92 932.546 505.613 931.991 506.168C931.471 506.723 930.778 507 929.911 507C929.079 507 928.403 506.723 927.883 506.168C927.363 505.613 927.103 504.92 927.103 504.088V473.772C927.103 472.871 927.398 472.125 927.987 471.536C928.611 470.912 929.374 470.6 930.275 470.6C930.795 470.6 931.298 470.704 931.783 470.912C932.303 471.12 932.684 471.397 932.927 471.744L951.855 495.872V473.512C951.855 472.68 952.115 471.987 952.635 471.432C953.19 470.877 953.883 470.6 954.715 470.6ZM997.173 487.344C998.075 487.344 998.82 487.656 999.409 488.28C999.999 488.869 1000.29 489.615 1000.29 490.516V501.54C1000.29 502.753 999.756 503.689 998.681 504.348C995.284 506.463 991.557 507.52 987.501 507.52C984.069 507.52 980.897 506.688 977.985 505.024C975.073 503.325 972.768 501.055 971.069 498.212C969.371 495.335 968.521 492.197 968.521 488.8C968.521 485.403 969.371 482.283 971.069 479.44C972.768 476.563 975.073 474.292 977.985 472.628C980.897 470.929 984.069 470.08 987.501 470.08C990.933 470.08 993.915 470.773 996.445 472.16C996.965 472.437 997.347 472.801 997.589 473.252C997.867 473.703 998.005 474.188 998.005 474.708C998.005 475.575 997.711 476.337 997.121 476.996C996.567 477.62 995.873 477.932 995.041 477.932C994.521 477.932 993.949 477.793 993.325 477.516C991.453 476.719 989.512 476.32 987.501 476.32C985.283 476.32 983.237 476.892 981.365 478.036C979.493 479.145 978.003 480.653 976.893 482.56C975.819 484.467 975.281 486.547 975.281 488.8C975.281 491.053 975.819 493.133 976.893 495.04C978.003 496.947 979.493 498.472 981.365 499.616C983.237 500.725 985.283 501.28 987.501 501.28C988.472 501.28 989.512 501.193 990.621 501.02C991.731 500.847 992.701 500.621 993.533 500.344V493.584H988.645C987.744 493.584 986.981 493.289 986.357 492.7C985.768 492.111 985.473 491.365 985.473 490.464C985.473 489.563 985.768 488.817 986.357 488.228C986.981 487.639 987.744 487.344 988.645 487.344H997.173Z" fill="#313131"/>
</svg>
