<svg width="368" height="402" viewBox="0 0 368 402" fill="none" xmlns="http://www.w3.org/2000/svg">
<path d="M49.28 383.9C49.28 384.1 49.22 384.3 49.1 384.5L44.8 390.56V396.04C44.8 396.307 44.7067 396.533 44.52 396.72C44.3467 396.907 44.1333 397 43.88 397C43.6133 397 43.3867 396.907 43.2 396.72C43.0133 396.533 42.92 396.307 42.92 396.04V390.4L38.64 384.62C38.4533 384.38 38.36 384.14 38.36 383.9C38.36 383.633 38.4667 383.407 38.68 383.22C38.8933 383.033 39.1267 382.94 39.38 382.94C39.6867 382.94 39.9467 383.087 40.16 383.38L43.92 388.58L47.54 383.4C47.7533 383.093 48.02 382.94 48.34 382.94C48.5933 382.94 48.8133 383.033 49 383.22C49.1867 383.407 49.28 383.633 49.28 383.9ZM61.1408 391.76C61.1408 392.8 60.9074 393.733 60.4408 394.56C59.9741 395.387 59.3341 396.033 58.5208 396.5C57.7208 396.967 56.8341 397.2 55.8608 397.2C54.8874 397.2 53.9941 396.967 53.1808 396.5C52.3808 396.033 51.7474 395.387 51.2808 394.56C50.8141 393.733 50.5808 392.8 50.5808 391.76C50.5808 390.72 50.8141 389.78 51.2808 388.94C51.7474 388.1 52.3808 387.447 53.1808 386.98C53.9941 386.513 54.8874 386.28 55.8608 386.28C56.8341 386.28 57.7208 386.513 58.5208 386.98C59.3341 387.447 59.9741 388.1 60.4408 388.94C60.9074 389.78 61.1408 390.72 61.1408 391.76ZM59.2408 391.76C59.2408 391.04 59.0874 390.4 58.7808 389.84C58.4874 389.267 58.0808 388.827 57.5608 388.52C57.0541 388.2 56.4874 388.04 55.8608 388.04C55.2341 388.04 54.6608 388.2 54.1408 388.52C53.6341 388.827 53.2274 389.267 52.9208 389.84C52.6274 390.4 52.4808 391.04 52.4808 391.76C52.4808 392.467 52.6274 393.1 52.9208 393.66C53.2274 394.22 53.6341 394.66 54.1408 394.98C54.6608 395.287 55.2341 395.44 55.8608 395.44C56.4874 395.44 57.0541 395.287 57.5608 394.98C58.0808 394.66 58.4874 394.22 58.7808 393.66C59.0874 393.1 59.2408 392.467 59.2408 391.76ZM72.1497 386.52C72.4297 386.52 72.6564 386.613 72.8297 386.8C73.0164 386.987 73.1097 387.213 73.1097 387.48V392.8C73.1097 394.187 72.723 395.267 71.9497 396.04C71.1897 396.8 70.1097 397.18 68.7097 397.18C67.323 397.18 66.2497 396.8 65.4897 396.04C64.7297 395.267 64.3497 394.187 64.3497 392.8V387.48C64.3497 387.213 64.4364 386.987 64.6097 386.8C64.7964 386.613 65.023 386.52 65.2897 386.52C65.5697 386.52 65.7964 386.613 65.9697 386.8C66.1564 386.987 66.2497 387.213 66.2497 387.48V392.8C66.2497 394.547 67.0697 395.42 68.7097 395.42C69.523 395.42 70.143 395.2 70.5697 394.76C70.9964 394.32 71.2097 393.667 71.2097 392.8V387.48C71.2097 387.213 71.2964 386.987 71.4697 386.8C71.6564 386.613 71.883 386.52 72.1497 386.52ZM82.1713 386.28C82.5179 386.28 82.8179 386.373 83.0713 386.56C83.3246 386.733 83.4513 386.953 83.4513 387.22C83.4513 387.54 83.3646 387.787 83.1913 387.96C83.0313 388.12 82.8313 388.2 82.5913 388.2C82.4713 388.2 82.2913 388.16 82.0513 388.08C81.7713 387.987 81.5513 387.94 81.3913 387.94C80.9779 387.94 80.5713 388.087 80.1713 388.38C79.7846 388.66 79.4646 389.053 79.2113 389.56C78.9713 390.053 78.8513 390.607 78.8513 391.22V396.04C78.8513 396.307 78.7579 396.533 78.5713 396.72C78.3979 396.907 78.1713 397 77.8913 397C77.6113 397 77.3846 396.913 77.2113 396.74C77.0379 396.553 76.9513 396.32 76.9513 396.04V387.48C76.9513 387.213 77.0379 386.987 77.2113 386.8C77.3979 386.613 77.6246 386.52 77.8913 386.52C78.1713 386.52 78.3979 386.613 78.5713 386.8C78.7579 386.987 78.8513 387.213 78.8513 387.48V388.5C79.1446 387.847 79.5846 387.32 80.1713 386.92C80.7579 386.507 81.4246 386.293 82.1713 386.28ZM97.3198 386.28C98.3732 386.28 99.2465 386.447 99.9398 386.78C100.647 387.113 101 387.54 101 388.06C101 388.287 100.927 388.493 100.78 388.68C100.633 388.853 100.447 388.94 100.22 388.94C100.047 388.94 99.9065 388.913 99.7998 388.86C99.7065 388.807 99.5732 388.72 99.3998 388.6C99.3198 388.52 99.1932 388.427 99.0198 388.32C98.8598 388.24 98.6332 388.173 98.3398 388.12C98.0465 388.067 97.7798 388.04 97.5398 388.04C96.8465 388.04 96.2332 388.2 95.6998 388.52C95.1665 388.84 94.7532 389.287 94.4598 389.86C94.1665 390.42 94.0198 391.047 94.0198 391.74C94.0198 392.447 94.1598 393.08 94.4398 393.64C94.7332 394.2 95.1398 394.64 95.6598 394.96C96.1798 395.28 96.7732 395.44 97.4398 395.44C98.1332 395.44 98.6932 395.333 99.1198 395.12C99.2132 395.067 99.3398 394.98 99.4998 394.86C99.6332 394.753 99.7465 394.673 99.8398 394.62C99.9465 394.567 100.073 394.54 100.22 394.54C100.487 394.54 100.693 394.627 100.84 394.8C101 394.96 101.08 395.173 101.08 395.44C101.08 395.72 100.9 396 100.54 396.28C100.193 396.547 99.7198 396.767 99.1198 396.94C98.5332 397.113 97.8998 397.2 97.2198 397.2C96.2065 397.2 95.3132 396.967 94.5398 396.5C93.7665 396.02 93.1665 395.367 92.7398 394.54C92.3265 393.7 92.1198 392.767 92.1198 391.74C92.1198 390.713 92.3398 389.787 92.7798 388.96C93.2198 388.12 93.8332 387.467 94.6198 387C95.4065 386.52 96.3065 386.28 97.3198 386.28ZM113.953 391.76C113.953 392.8 113.72 393.733 113.253 394.56C112.787 395.387 112.147 396.033 111.333 396.5C110.533 396.967 109.647 397.2 108.673 397.2C107.7 397.2 106.807 396.967 105.993 396.5C105.193 396.033 104.56 395.387 104.093 394.56C103.627 393.733 103.393 392.8 103.393 391.76C103.393 390.72 103.627 389.78 104.093 388.94C104.56 388.1 105.193 387.447 105.993 386.98C106.807 386.513 107.7 386.28 108.673 386.28C109.647 386.28 110.533 386.513 111.333 386.98C112.147 387.447 112.787 388.1 113.253 388.94C113.72 389.78 113.953 390.72 113.953 391.76ZM112.053 391.76C112.053 391.04 111.9 390.4 111.593 389.84C111.3 389.267 110.893 388.827 110.373 388.52C109.867 388.2 109.3 388.04 108.673 388.04C108.047 388.04 107.473 388.2 106.953 388.52C106.447 388.827 106.04 389.267 105.733 389.84C105.44 390.4 105.293 391.04 105.293 391.76C105.293 392.467 105.44 393.1 105.733 393.66C106.04 394.22 106.447 394.66 106.953 394.98C107.473 395.287 108.047 395.44 108.673 395.44C109.3 395.44 109.867 395.287 110.373 394.98C110.893 394.66 111.3 394.22 111.593 393.66C111.9 393.1 112.053 392.467 112.053 391.76ZM119.222 396.04C119.222 396.307 119.129 396.533 118.942 396.72C118.756 396.907 118.529 397 118.262 397C117.996 397 117.769 396.907 117.582 396.72C117.409 396.533 117.322 396.307 117.322 396.04V383.16C117.322 382.893 117.416 382.667 117.602 382.48C117.789 382.293 118.016 382.2 118.282 382.2C118.549 382.2 118.769 382.293 118.942 382.48C119.129 382.667 119.222 382.893 119.222 383.16V396.04ZM125.281 396.04C125.281 396.307 125.187 396.533 125.001 396.72C124.814 396.907 124.587 397 124.321 397C124.054 397 123.827 396.907 123.641 396.72C123.467 396.533 123.381 396.307 123.381 396.04V383.16C123.381 382.893 123.474 382.667 123.661 382.48C123.847 382.293 124.074 382.2 124.341 382.2C124.607 382.2 124.827 382.293 125.001 382.48C125.187 382.667 125.281 382.893 125.281 383.16V396.04ZM138.284 391.36C138.271 391.6 138.171 391.807 137.984 391.98C137.797 392.14 137.577 392.22 137.324 392.22H130.284C130.377 393.193 130.744 393.973 131.384 394.56C132.037 395.147 132.831 395.44 133.764 395.44C134.404 395.44 134.924 395.347 135.324 395.16C135.724 394.973 136.077 394.733 136.384 394.44C136.584 394.32 136.777 394.26 136.964 394.26C137.191 394.26 137.377 394.34 137.524 394.5C137.684 394.66 137.764 394.847 137.764 395.06C137.764 395.34 137.631 395.593 137.364 395.82C136.977 396.207 136.464 396.533 135.824 396.8C135.184 397.067 134.531 397.2 133.864 397.2C132.784 397.2 131.831 396.973 131.004 396.52C130.191 396.067 129.557 395.433 129.104 394.62C128.664 393.807 128.444 392.887 128.444 391.86C128.444 390.74 128.671 389.76 129.124 388.92C129.591 388.067 130.197 387.413 130.944 386.96C131.704 386.507 132.517 386.28 133.384 386.28C134.237 386.28 135.037 386.5 135.784 386.94C136.531 387.38 137.131 387.987 137.584 388.76C138.037 389.533 138.271 390.4 138.284 391.36ZM133.384 388.04C132.637 388.04 131.991 388.253 131.444 388.68C130.897 389.093 130.537 389.74 130.364 390.62H136.264V390.46C136.197 389.753 135.877 389.173 135.304 388.72C134.744 388.267 134.104 388.04 133.384 388.04ZM146.05 386.28C147.104 386.28 147.977 386.447 148.67 386.78C149.377 387.113 149.73 387.54 149.73 388.06C149.73 388.287 149.657 388.493 149.51 388.68C149.364 388.853 149.177 388.94 148.95 388.94C148.777 388.94 148.637 388.913 148.53 388.86C148.437 388.807 148.304 388.72 148.13 388.6C148.05 388.52 147.924 388.427 147.75 388.32C147.59 388.24 147.364 388.173 147.07 388.12C146.777 388.067 146.51 388.04 146.27 388.04C145.577 388.04 144.964 388.2 144.43 388.52C143.897 388.84 143.484 389.287 143.19 389.86C142.897 390.42 142.75 391.047 142.75 391.74C142.75 392.447 142.89 393.08 143.17 393.64C143.464 394.2 143.87 394.64 144.39 394.96C144.91 395.28 145.504 395.44 146.17 395.44C146.864 395.44 147.424 395.333 147.85 395.12C147.944 395.067 148.07 394.98 148.23 394.86C148.364 394.753 148.477 394.673 148.57 394.62C148.677 394.567 148.804 394.54 148.95 394.54C149.217 394.54 149.424 394.627 149.57 394.8C149.73 394.96 149.81 395.173 149.81 395.44C149.81 395.72 149.63 396 149.27 396.28C148.924 396.547 148.45 396.767 147.85 396.94C147.264 397.113 146.63 397.2 145.95 397.2C144.937 397.2 144.044 396.967 143.27 396.5C142.497 396.02 141.897 395.367 141.47 394.54C141.057 393.7 140.85 392.767 140.85 391.74C140.85 390.713 141.07 389.787 141.51 388.96C141.95 388.12 142.564 387.467 143.35 387C144.137 386.52 145.037 386.28 146.05 386.28ZM155.604 388.38V394.34C155.604 395.007 155.904 395.34 156.504 395.34C156.597 395.34 156.724 395.32 156.884 395.28C157.044 395.227 157.17 395.2 157.264 395.2C157.437 395.2 157.584 395.273 157.704 395.42C157.824 395.567 157.884 395.753 157.884 395.98C157.884 396.26 157.724 396.5 157.404 396.7C157.084 396.9 156.724 397 156.324 397C155.884 397 155.477 396.953 155.104 396.86C154.744 396.767 154.417 396.533 154.124 396.16C153.844 395.773 153.704 395.193 153.704 394.42V388.38H152.544C152.29 388.38 152.077 388.3 151.904 388.14C151.744 387.967 151.664 387.753 151.664 387.5C151.664 387.247 151.744 387.04 151.904 386.88C152.077 386.72 152.29 386.64 152.544 386.64H153.704V384.96C153.704 384.693 153.79 384.467 153.964 384.28C154.15 384.093 154.384 384 154.664 384C154.93 384 155.15 384.093 155.324 384.28C155.51 384.467 155.604 384.693 155.604 384.96V386.64H157.264C157.517 386.64 157.724 386.727 157.884 386.9C158.057 387.06 158.144 387.267 158.144 387.52C158.144 387.773 158.057 387.98 157.884 388.14C157.724 388.3 157.517 388.38 157.264 388.38H155.604ZM163.161 396.04C163.161 396.307 163.068 396.533 162.881 396.72C162.708 396.907 162.481 397 162.201 397C161.935 397 161.708 396.907 161.521 396.72C161.348 396.533 161.261 396.307 161.261 396.04V387.38C161.261 387.113 161.348 386.887 161.521 386.7C161.708 386.513 161.935 386.42 162.201 386.42C162.481 386.42 162.708 386.513 162.881 386.7C163.068 386.887 163.161 387.113 163.161 387.38V396.04ZM162.201 385.1C161.815 385.1 161.535 385.033 161.361 384.9C161.201 384.753 161.121 384.527 161.121 384.22V383.9C161.121 383.58 161.208 383.353 161.381 383.22C161.568 383.087 161.848 383.02 162.221 383.02C162.595 383.02 162.861 383.093 163.021 383.24C163.195 383.373 163.281 383.593 163.281 383.9V384.22C163.281 384.54 163.195 384.767 163.021 384.9C162.848 385.033 162.575 385.1 162.201 385.1ZM176.813 391.76C176.813 392.8 176.579 393.733 176.113 394.56C175.646 395.387 175.006 396.033 174.193 396.5C173.393 396.967 172.506 397.2 171.533 397.2C170.559 397.2 169.666 396.967 168.853 396.5C168.053 396.033 167.419 395.387 166.953 394.56C166.486 393.733 166.253 392.8 166.253 391.76C166.253 390.72 166.486 389.78 166.953 388.94C167.419 388.1 168.053 387.447 168.853 386.98C169.666 386.513 170.559 386.28 171.533 386.28C172.506 386.28 173.393 386.513 174.193 386.98C175.006 387.447 175.646 388.1 176.113 388.94C176.579 389.78 176.813 390.72 176.813 391.76ZM174.913 391.76C174.913 391.04 174.759 390.4 174.453 389.84C174.159 389.267 173.753 388.827 173.233 388.52C172.726 388.2 172.159 388.04 171.533 388.04C170.906 388.04 170.333 388.2 169.813 388.52C169.306 388.827 168.899 389.267 168.593 389.84C168.299 390.4 168.153 391.04 168.153 391.76C168.153 392.467 168.299 393.1 168.593 393.66C168.899 394.22 169.306 394.66 169.813 394.98C170.333 395.287 170.906 395.44 171.533 395.44C172.159 395.44 172.726 395.287 173.233 394.98C173.753 394.66 174.159 394.22 174.453 393.66C174.759 393.1 174.913 392.467 174.913 391.76ZM185.362 386.28C187.762 386.28 188.962 387.72 188.962 390.6V396.04C188.962 396.307 188.868 396.533 188.682 396.72C188.508 396.907 188.282 397 188.002 397C187.735 397 187.508 396.907 187.322 396.72C187.148 396.533 187.062 396.307 187.062 396.04V390.62C187.062 389.833 186.882 389.207 186.522 388.74C186.162 388.273 185.575 388.04 184.762 388.04C184.228 388.04 183.742 388.16 183.302 388.4C182.875 388.627 182.535 388.94 182.282 389.34C182.042 389.727 181.922 390.153 181.922 390.62V396.04C181.922 396.307 181.828 396.533 181.642 396.72C181.468 396.907 181.242 397 180.962 397C180.682 397 180.455 396.913 180.282 396.74C180.108 396.553 180.022 396.32 180.022 396.04V387.48C180.022 387.213 180.108 386.987 180.282 386.8C180.468 386.613 180.695 386.52 180.962 386.52C181.242 386.52 181.468 386.613 181.642 386.8C181.828 386.987 181.922 387.213 181.922 387.48V388.18C182.268 387.647 182.748 387.2 183.362 386.84C183.988 386.467 184.655 386.28 185.362 386.28ZM201.406 396.04C201.406 396.307 201.312 396.533 201.126 396.72C200.939 396.907 200.712 397 200.446 397C200.179 397 199.952 396.907 199.766 396.72C199.592 396.533 199.506 396.307 199.506 396.04V383.16C199.506 382.893 199.599 382.667 199.786 382.48C199.972 382.293 200.199 382.2 200.466 382.2C200.732 382.2 200.952 382.293 201.126 382.48C201.312 382.667 201.406 382.893 201.406 383.16V396.04ZM207.204 396.04C207.204 396.307 207.111 396.533 206.924 396.72C206.751 396.907 206.524 397 206.244 397C205.978 397 205.751 396.907 205.564 396.72C205.391 396.533 205.304 396.307 205.304 396.04V387.38C205.304 387.113 205.391 386.887 205.564 386.7C205.751 386.513 205.978 386.42 206.244 386.42C206.524 386.42 206.751 386.513 206.924 386.7C207.111 386.887 207.204 387.113 207.204 387.38V396.04ZM206.244 385.1C205.858 385.1 205.578 385.033 205.404 384.9C205.244 384.753 205.164 384.527 205.164 384.22V383.9C205.164 383.58 205.251 383.353 205.424 383.22C205.611 383.087 205.891 383.02 206.264 383.02C206.638 383.02 206.904 383.093 207.064 383.24C207.238 383.373 207.324 383.593 207.324 383.9V384.22C207.324 384.54 207.238 384.767 207.064 384.9C206.891 385.033 206.618 385.1 206.244 385.1ZM210.336 395.36C210.216 395.173 210.156 394.993 210.156 394.82C210.156 394.553 210.296 394.327 210.576 394.14C210.709 394.047 210.862 394 211.036 394C211.276 394 211.496 394.1 211.696 394.3C212.096 394.753 212.522 395.093 212.976 395.32C213.442 395.547 213.996 395.66 214.636 395.66C215.142 395.647 215.589 395.533 215.976 395.32C216.362 395.093 216.556 394.733 216.556 394.24C216.556 393.787 216.356 393.44 215.956 393.2C215.569 392.96 214.996 392.74 214.236 392.54C213.489 392.34 212.869 392.133 212.376 391.92C211.882 391.693 211.462 391.373 211.116 390.96C210.782 390.533 210.616 389.98 210.616 389.3C210.616 388.7 210.782 388.173 211.116 387.72C211.462 387.267 211.916 386.913 212.476 386.66C213.049 386.407 213.669 386.28 214.336 386.28C214.976 386.28 215.609 386.4 216.236 386.64C216.876 386.88 217.396 387.247 217.796 387.74C217.956 387.927 218.036 388.12 218.036 388.32C218.036 388.533 217.929 388.74 217.716 388.94C217.582 389.06 217.416 389.12 217.216 389.12C216.976 389.12 216.782 389.04 216.636 388.88C216.356 388.56 216.009 388.313 215.596 388.14C215.196 387.967 214.749 387.88 214.256 387.88C213.749 387.88 213.316 387.987 212.956 388.2C212.609 388.4 212.436 388.747 212.436 389.24C212.449 389.707 212.649 390.053 213.036 390.28C213.436 390.507 214.042 390.727 214.856 390.94C215.562 391.127 216.149 391.327 216.616 391.54C217.082 391.753 217.476 392.073 217.796 392.5C218.116 392.913 218.276 393.46 218.276 394.14C218.276 394.767 218.096 395.313 217.736 395.78C217.376 396.233 216.902 396.587 216.316 396.84C215.742 397.08 215.129 397.2 214.476 397.2C213.636 397.2 212.856 397.053 212.136 396.76C211.429 396.467 210.829 396 210.336 395.36ZM224.307 388.38V394.34C224.307 395.007 224.607 395.34 225.207 395.34C225.3 395.34 225.427 395.32 225.587 395.28C225.747 395.227 225.874 395.2 225.967 395.2C226.14 395.2 226.287 395.273 226.407 395.42C226.527 395.567 226.587 395.753 226.587 395.98C226.587 396.26 226.427 396.5 226.107 396.7C225.787 396.9 225.427 397 225.027 397C224.587 397 224.18 396.953 223.807 396.86C223.447 396.767 223.12 396.533 222.827 396.16C222.547 395.773 222.407 395.193 222.407 394.42V388.38H221.247C220.994 388.38 220.78 388.3 220.607 388.14C220.447 387.967 220.367 387.753 220.367 387.5C220.367 387.247 220.447 387.04 220.607 386.88C220.78 386.72 220.994 386.64 221.247 386.64H222.407V384.96C222.407 384.693 222.494 384.467 222.667 384.28C222.854 384.093 223.087 384 223.367 384C223.634 384 223.854 384.093 224.027 384.28C224.214 384.467 224.307 384.693 224.307 384.96V386.64H225.967C226.22 386.64 226.427 386.727 226.587 386.9C226.76 387.06 226.847 387.267 226.847 387.52C226.847 387.773 226.76 387.98 226.587 388.14C226.427 388.3 226.22 388.38 225.967 388.38H224.307ZM238.411 396.04C238.411 396.307 238.318 396.533 238.131 396.72C237.958 396.907 237.731 397 237.451 397C237.185 397 236.958 396.907 236.771 396.72C236.598 396.533 236.511 396.307 236.511 396.04V387.38C236.511 387.113 236.598 386.887 236.771 386.7C236.958 386.513 237.185 386.42 237.451 386.42C237.731 386.42 237.958 386.513 238.131 386.7C238.318 386.887 238.411 387.113 238.411 387.38V396.04ZM237.451 385.1C237.065 385.1 236.785 385.033 236.611 384.9C236.451 384.753 236.371 384.527 236.371 384.22V383.9C236.371 383.58 236.458 383.353 236.631 383.22C236.818 383.087 237.098 383.02 237.471 383.02C237.845 383.02 238.111 383.093 238.271 383.24C238.445 383.373 238.531 383.593 238.531 383.9V384.22C238.531 384.54 238.445 384.767 238.271 384.9C238.098 385.033 237.825 385.1 237.451 385.1ZM241.543 395.36C241.423 395.173 241.363 394.993 241.363 394.82C241.363 394.553 241.503 394.327 241.783 394.14C241.916 394.047 242.069 394 242.243 394C242.483 394 242.703 394.1 242.903 394.3C243.303 394.753 243.729 395.093 244.183 395.32C244.649 395.547 245.203 395.66 245.843 395.66C246.349 395.647 246.796 395.533 247.183 395.32C247.569 395.093 247.763 394.733 247.763 394.24C247.763 393.787 247.563 393.44 247.163 393.2C246.776 392.96 246.203 392.74 245.443 392.54C244.696 392.34 244.076 392.133 243.583 391.92C243.089 391.693 242.669 391.373 242.323 390.96C241.989 390.533 241.823 389.98 241.823 389.3C241.823 388.7 241.989 388.173 242.323 387.72C242.669 387.267 243.123 386.913 243.683 386.66C244.256 386.407 244.876 386.28 245.543 386.28C246.183 386.28 246.816 386.4 247.443 386.64C248.083 386.88 248.603 387.247 249.003 387.74C249.163 387.927 249.243 388.12 249.243 388.32C249.243 388.533 249.136 388.74 248.923 388.94C248.789 389.06 248.623 389.12 248.423 389.12C248.183 389.12 247.989 389.04 247.843 388.88C247.563 388.56 247.216 388.313 246.803 388.14C246.403 387.967 245.956 387.88 245.463 387.88C244.956 387.88 244.523 387.987 244.163 388.2C243.816 388.4 243.643 388.747 243.643 389.24C243.656 389.707 243.856 390.053 244.243 390.28C244.643 390.507 245.249 390.727 246.063 390.94C246.769 391.127 247.356 391.327 247.823 391.54C248.289 391.753 248.683 392.073 249.003 392.5C249.323 392.913 249.483 393.46 249.483 394.14C249.483 394.767 249.303 395.313 248.943 395.78C248.583 396.233 248.109 396.587 247.523 396.84C246.949 397.08 246.336 397.2 245.683 397.2C244.843 397.2 244.063 397.053 243.343 396.76C242.636 396.467 242.036 396 241.543 395.36ZM268.421 391.36C268.407 391.6 268.307 391.807 268.121 391.98C267.934 392.14 267.714 392.22 267.461 392.22H260.421C260.514 393.193 260.881 393.973 261.521 394.56C262.174 395.147 262.967 395.44 263.901 395.44C264.541 395.44 265.061 395.347 265.461 395.16C265.861 394.973 266.214 394.733 266.521 394.44C266.721 394.32 266.914 394.26 267.101 394.26C267.327 394.26 267.514 394.34 267.661 394.5C267.821 394.66 267.901 394.847 267.901 395.06C267.901 395.34 267.767 395.593 267.501 395.82C267.114 396.207 266.601 396.533 265.961 396.8C265.321 397.067 264.667 397.2 264.001 397.2C262.921 397.2 261.967 396.973 261.141 396.52C260.327 396.067 259.694 395.433 259.241 394.62C258.801 393.807 258.581 392.887 258.581 391.86C258.581 390.74 258.807 389.76 259.261 388.92C259.727 388.067 260.334 387.413 261.081 386.96C261.841 386.507 262.654 386.28 263.521 386.28C264.374 386.28 265.174 386.5 265.921 386.94C266.667 387.38 267.267 387.987 267.721 388.76C268.174 389.533 268.407 390.4 268.421 391.36ZM263.521 388.04C262.774 388.04 262.127 388.253 261.581 388.68C261.034 389.093 260.674 389.74 260.501 390.62H266.401V390.46C266.334 389.753 266.014 389.173 265.441 388.72C264.881 388.267 264.241 388.04 263.521 388.04ZM283.647 386.34C285.98 386.34 287.147 387.793 287.147 390.7V396.04C287.147 396.32 287.06 396.553 286.887 396.74C286.714 396.913 286.487 397 286.207 397C285.927 397 285.694 396.907 285.507 396.72C285.334 396.533 285.247 396.307 285.247 396.04V390.72C285.247 388.973 284.514 388.1 283.047 388.1C282.527 388.1 282.054 388.22 281.627 388.46C281.214 388.687 280.887 389 280.647 389.4C280.42 389.8 280.307 390.24 280.307 390.72V396.04C280.307 396.307 280.214 396.533 280.027 396.72C279.854 396.907 279.627 397 279.347 397C279.067 397 278.84 396.913 278.667 396.74C278.494 396.553 278.407 396.32 278.407 396.04V390.7C278.407 389.913 278.24 389.287 277.907 388.82C277.574 388.34 277.02 388.1 276.247 388.1C275.46 388.1 274.807 388.353 274.287 388.86C273.78 389.353 273.527 389.967 273.527 390.7V396.04C273.527 396.307 273.434 396.533 273.247 396.72C273.074 396.907 272.847 397 272.567 397C272.287 397 272.06 396.913 271.887 396.74C271.714 396.553 271.627 396.32 271.627 396.04V387.48C271.627 387.213 271.714 386.987 271.887 386.8C272.074 386.613 272.3 386.52 272.567 386.52C272.847 386.52 273.074 386.613 273.247 386.8C273.434 386.987 273.527 387.213 273.527 387.48V388.18C273.874 387.66 274.334 387.227 274.907 386.88C275.494 386.52 276.127 386.34 276.807 386.34C278.46 386.34 279.534 387.073 280.027 388.54C280.32 387.98 280.807 387.473 281.487 387.02C282.167 386.567 282.887 386.34 283.647 386.34ZM296.246 386.34C297.153 386.34 297.973 386.573 298.706 387.04C299.44 387.493 300.013 388.133 300.426 388.96C300.853 389.787 301.066 390.72 301.066 391.76C301.066 392.8 300.853 393.733 300.426 394.56C300.013 395.373 299.44 396.013 298.706 396.48C297.973 396.947 297.166 397.18 296.286 397.18C295.593 397.18 294.946 397.027 294.346 396.72C293.746 396.413 293.26 396.04 292.886 395.6V400.04C292.886 400.307 292.793 400.533 292.606 400.72C292.433 400.907 292.206 401 291.926 401C291.66 401 291.433 400.907 291.246 400.72C291.073 400.547 290.986 400.32 290.986 400.04V387.46C290.986 387.18 291.073 386.947 291.246 386.76C291.42 386.573 291.646 386.48 291.926 386.48C292.206 386.48 292.433 386.573 292.606 386.76C292.793 386.947 292.886 387.18 292.886 387.46V388.04C293.206 387.573 293.673 387.173 294.286 386.84C294.9 386.507 295.553 386.34 296.246 386.34ZM296.026 395.42C296.64 395.42 297.193 395.26 297.686 394.94C298.18 394.62 298.56 394.187 298.826 393.64C299.106 393.08 299.246 392.453 299.246 391.76C299.246 391.067 299.106 390.447 298.826 389.9C298.56 389.34 298.18 388.9 297.686 388.58C297.193 388.26 296.64 388.1 296.026 388.1C295.4 388.1 294.84 388.26 294.346 388.58C293.853 388.887 293.466 389.32 293.186 389.88C292.92 390.44 292.786 391.067 292.786 391.76C292.786 392.453 292.92 393.08 293.186 393.64C293.466 394.2 293.853 394.64 294.346 394.96C294.84 395.267 295.4 395.42 296.026 395.42ZM307.112 388.38V394.34C307.112 395.007 307.412 395.34 308.012 395.34C308.105 395.34 308.232 395.32 308.392 395.28C308.552 395.227 308.678 395.2 308.772 395.2C308.945 395.2 309.092 395.273 309.212 395.42C309.332 395.567 309.392 395.753 309.392 395.98C309.392 396.26 309.232 396.5 308.912 396.7C308.592 396.9 308.232 397 307.832 397C307.392 397 306.985 396.953 306.612 396.86C306.252 396.767 305.925 396.533 305.632 396.16C305.352 395.773 305.212 395.193 305.212 394.42V388.38H304.052C303.798 388.38 303.585 388.3 303.412 388.14C303.252 387.967 303.172 387.753 303.172 387.5C303.172 387.247 303.252 387.04 303.412 386.88C303.585 386.72 303.798 386.64 304.052 386.64H305.212V384.96C305.212 384.693 305.298 384.467 305.472 384.28C305.658 384.093 305.892 384 306.172 384C306.438 384 306.658 384.093 306.832 384.28C307.018 384.467 307.112 384.693 307.112 384.96V386.64H308.772C309.025 386.64 309.232 386.727 309.392 386.9C309.565 387.06 309.652 387.267 309.652 387.52C309.652 387.773 309.565 387.98 309.392 388.14C309.232 388.3 309.025 388.38 308.772 388.38H307.112ZM320.669 386.42C320.949 386.42 321.176 386.513 321.349 386.7C321.536 386.887 321.629 387.113 321.629 387.38V396.02C321.629 397.687 321.169 398.933 320.249 399.76C319.329 400.587 318.116 401 316.609 401C316.116 401 315.629 400.953 315.149 400.86C314.669 400.767 314.276 400.64 313.969 400.48C313.476 400.253 313.229 399.947 313.229 399.56C313.229 399.493 313.243 399.407 313.269 399.3C313.349 399.073 313.463 398.9 313.609 398.78C313.756 398.66 313.923 398.6 314.109 398.6C314.216 398.6 314.316 398.62 314.409 398.66C314.823 398.847 315.189 398.993 315.509 399.1C315.829 399.207 316.203 399.26 316.629 399.26C318.696 399.26 319.729 398.2 319.729 396.08V395.68C319.369 396.16 318.903 396.533 318.329 396.8C317.769 397.067 317.123 397.2 316.389 397.2C315.283 397.2 314.416 396.847 313.789 396.14C313.176 395.433 312.869 394.507 312.869 393.36V387.38C312.869 387.1 312.956 386.873 313.129 386.7C313.303 386.513 313.529 386.42 313.809 386.42C314.089 386.42 314.316 386.513 314.489 386.7C314.676 386.887 314.769 387.113 314.769 387.38V392.86C314.769 393.74 314.963 394.393 315.349 394.82C315.736 395.233 316.323 395.44 317.109 395.44C317.869 395.44 318.496 395.2 318.989 394.72C319.483 394.24 319.729 393.62 319.729 392.86V387.38C319.729 387.1 319.816 386.873 319.989 386.7C320.163 386.513 320.389 386.42 320.669 386.42ZM326.131 396.98C325.811 396.98 325.565 396.893 325.391 396.72C325.231 396.547 325.151 396.293 325.151 395.96V395.58C325.151 395.26 325.231 395.013 325.391 394.84C325.565 394.667 325.811 394.58 326.131 394.58H326.331C326.665 394.58 326.911 394.667 327.071 394.84C327.245 395.013 327.331 395.26 327.331 395.58V395.96C327.331 396.64 326.998 396.98 326.331 396.98H326.131Z" fill="#313131" fill-opacity="0.6"/>
<path d="M105.816 330.8C106.392 330.8 106.86 330.992 107.22 331.376C107.58 331.76 107.76 332.24 107.76 332.816V353.804C107.76 354.428 107.544 354.956 107.112 355.388C106.704 355.796 106.188 356 105.564 356C105.228 356 104.892 355.952 104.556 355.856C104.244 355.736 104.016 355.58 103.872 355.388L90.66 338.612V353.984C90.66 354.56 90.468 355.04 90.084 355.424C89.724 355.808 89.244 356 88.644 356C88.068 356 87.6 355.808 87.24 355.424C86.88 355.04 86.7 354.56 86.7 353.984V332.996C86.7 332.372 86.904 331.856 87.312 331.448C87.744 331.016 88.272 330.8 88.896 330.8C89.256 330.8 89.604 330.872 89.94 331.016C90.3 331.16 90.564 331.352 90.732 331.592L103.836 348.296V332.816C103.836 332.24 104.016 331.76 104.376 331.376C104.76 330.992 105.24 330.8 105.816 330.8ZM138.357 343.4C138.357 345.776 137.829 347.96 136.773 349.952C135.717 351.92 134.253 353.48 132.381 354.632C130.533 355.784 128.445 356.36 126.117 356.36C123.789 356.36 121.689 355.784 119.817 354.632C117.969 353.48 116.517 351.92 115.461 349.952C114.429 347.96 113.913 345.776 113.913 343.4C113.913 341.024 114.429 338.852 115.461 336.884C116.517 334.892 117.969 333.32 119.817 332.168C121.689 331.016 123.789 330.44 126.117 330.44C128.445 330.44 130.533 331.016 132.381 332.168C134.253 333.32 135.717 334.892 136.773 336.884C137.829 338.852 138.357 341.024 138.357 343.4ZM133.677 343.4C133.677 341.792 133.353 340.34 132.705 339.044C132.057 337.724 131.157 336.68 130.005 335.912C128.853 335.144 127.557 334.76 126.117 334.76C124.653 334.76 123.345 335.144 122.193 335.912C121.065 336.656 120.177 337.688 119.529 339.008C118.905 340.328 118.593 341.792 118.593 343.4C118.593 345.008 118.905 346.472 119.529 347.792C120.177 349.112 121.065 350.156 122.193 350.924C123.345 351.668 124.653 352.04 126.117 352.04C127.557 352.04 128.853 351.656 130.005 350.888C131.157 350.12 132.057 349.088 132.705 347.792C133.353 346.472 133.677 345.008 133.677 343.4ZM160.346 330.8C160.994 330.8 161.522 330.992 161.93 331.376C162.338 331.76 162.542 332.264 162.542 332.888C162.542 333.512 162.338 334.016 161.93 334.4C161.522 334.76 160.994 334.94 160.346 334.94H154.694V353.804C154.694 354.428 154.466 354.956 154.01 355.388C153.554 355.796 152.99 356 152.318 356C151.646 356 151.094 355.796 150.662 355.388C150.23 354.956 150.014 354.428 150.014 353.804V334.94H144.362C143.714 334.94 143.186 334.748 142.778 334.364C142.37 333.98 142.166 333.476 142.166 332.852C142.166 332.252 142.37 331.76 142.778 331.376C143.21 330.992 143.738 330.8 144.362 330.8H160.346ZM186.573 330.8C187.245 330.8 187.785 331.004 188.193 331.412C188.601 331.82 188.805 332.348 188.805 332.996V353.804C188.805 354.428 188.589 354.956 188.157 355.388C187.725 355.796 187.173 356 186.501 356C185.901 356 185.385 355.796 184.953 355.388C184.521 354.956 184.305 354.428 184.305 353.804V345.416H172.821V353.804C172.821 354.428 172.593 354.956 172.137 355.388C171.681 355.796 171.153 356 170.553 356C169.905 356 169.365 355.796 168.933 355.388C168.525 354.956 168.321 354.428 168.321 353.804V332.996C168.321 332.372 168.537 331.856 168.969 331.448C169.401 331.016 169.953 330.8 170.625 330.8C171.225 330.8 171.741 331.016 172.173 331.448C172.605 331.856 172.821 332.372 172.821 332.996V341.276H184.305V332.996C184.305 332.372 184.533 331.856 184.989 331.448C185.445 331.016 185.973 330.8 186.573 330.8ZM200.696 353.804C200.696 354.428 200.468 354.956 200.012 355.388C199.556 355.796 199.028 356 198.428 356C197.78 356 197.24 355.796 196.808 355.388C196.4 354.956 196.196 354.428 196.196 353.804V332.996C196.196 332.372 196.412 331.856 196.844 331.448C197.276 331.016 197.828 330.8 198.5 330.8C199.1 330.8 199.616 331.016 200.048 331.448C200.48 331.856 200.696 332.372 200.696 332.996V353.804ZM227.226 330.8C227.802 330.8 228.27 330.992 228.63 331.376C228.99 331.76 229.17 332.24 229.17 332.816V353.804C229.17 354.428 228.954 354.956 228.522 355.388C228.114 355.796 227.598 356 226.974 356C226.638 356 226.302 355.952 225.966 355.856C225.654 355.736 225.426 355.58 225.282 355.388L212.07 338.612V353.984C212.07 354.56 211.878 355.04 211.494 355.424C211.134 355.808 210.654 356 210.054 356C209.478 356 209.01 355.808 208.65 355.424C208.29 355.04 208.11 354.56 208.11 353.984V332.996C208.11 332.372 208.314 331.856 208.722 331.448C209.154 331.016 209.682 330.8 210.306 330.8C210.666 330.8 211.014 330.872 211.35 331.016C211.71 331.16 211.974 331.352 212.142 331.592L225.246 348.296V332.816C225.246 332.24 225.426 331.76 225.786 331.376C226.17 330.992 226.65 330.8 227.226 330.8ZM255.159 342.392C255.783 342.392 256.299 342.608 256.707 343.04C257.115 343.448 257.319 343.964 257.319 344.588V352.22C257.319 353.06 256.947 353.708 256.203 354.164C253.851 355.628 251.271 356.36 248.463 356.36C246.087 356.36 243.891 355.784 241.875 354.632C239.859 353.456 238.263 351.884 237.087 349.916C235.911 347.924 235.323 345.752 235.323 343.4C235.323 341.048 235.911 338.888 237.087 336.92C238.263 334.928 239.859 333.356 241.875 332.204C243.891 331.028 246.087 330.44 248.463 330.44C250.839 330.44 252.903 330.92 254.655 331.88C255.015 332.072 255.279 332.324 255.447 332.636C255.639 332.948 255.735 333.284 255.735 333.644C255.735 334.244 255.531 334.772 255.123 335.228C254.739 335.66 254.259 335.876 253.683 335.876C253.323 335.876 252.927 335.78 252.495 335.588C251.199 335.036 249.855 334.76 248.463 334.76C246.927 334.76 245.511 335.156 244.215 335.948C242.919 336.716 241.887 337.76 241.119 339.08C240.375 340.4 240.003 341.84 240.003 343.4C240.003 344.96 240.375 346.4 241.119 347.72C241.887 349.04 242.919 350.096 244.215 350.888C245.511 351.656 246.927 352.04 248.463 352.04C249.135 352.04 249.855 351.98 250.623 351.86C251.391 351.74 252.063 351.584 252.639 351.392V346.712H249.255C248.631 346.712 248.103 346.508 247.671 346.1C247.263 345.692 247.059 345.176 247.059 344.552C247.059 343.928 247.263 343.412 247.671 343.004C248.103 342.596 248.631 342.392 249.255 342.392H255.159ZM265.773 348.044C264.957 348.044 264.513 347.588 264.441 346.676L263.397 333.428C263.349 332.684 263.541 332.06 263.973 331.556C264.429 331.052 265.017 330.8 265.737 330.8C266.457 330.8 267.045 331.052 267.501 331.556C267.957 332.06 268.149 332.684 268.077 333.428L267.069 346.676C266.997 347.588 266.565 348.044 265.773 348.044ZM265.521 356C264.825 356 264.285 355.82 263.901 355.46C263.541 355.076 263.361 354.536 263.361 353.84V353.228C263.361 352.532 263.541 352.004 263.901 351.644C264.285 351.26 264.825 351.068 265.521 351.068H265.989C266.685 351.068 267.213 351.26 267.573 351.644C267.957 352.004 268.149 352.532 268.149 353.228V353.84C268.149 354.536 267.957 355.076 267.573 355.46C267.213 355.82 266.685 356 265.989 356H265.521ZM277.371 348.044C276.555 348.044 276.111 347.588 276.039 346.676L274.995 333.428C274.947 332.684 275.139 332.06 275.571 331.556C276.027 331.052 276.615 330.8 277.335 330.8C278.055 330.8 278.643 331.052 279.099 331.556C279.555 332.06 279.747 332.684 279.675 333.428L278.667 346.676C278.595 347.588 278.163 348.044 277.371 348.044ZM277.119 356C276.423 356 275.883 355.82 275.499 355.46C275.139 355.076 274.959 354.536 274.959 353.84V353.228C274.959 352.532 275.139 352.004 275.499 351.644C275.883 351.26 276.423 351.068 277.119 351.068H277.587C278.283 351.068 278.811 351.26 279.171 351.644C279.555 352.004 279.747 352.532 279.747 353.228V353.84C279.747 354.536 279.555 355.076 279.171 355.46C278.811 355.82 278.283 356 277.587 356H277.119Z" fill="#313131" fill-opacity="0.73"/>
<g clip-path="url(#clip0)">
<ellipse cx="185.5" cy="264" rx="87.5" ry="8" fill="#BFE6FB"/>
<rect x="96" width="172" height="238" rx="6" fill="#0D80BD"/>
<path d="M268 208V68H327L323 89H340L331 108L326 118.5L328 138.5L335 208H268Z" fill="#7DCCF6"/>
<path d="M96 207.5V67.5L39 68L43 89H26L35 108L40 118.5L38 138.5L31 208L96 207.5Z" fill="#7DCCF6"/>
<rect x="104" y="27" width="156" height="202" rx="2" fill="white"/>
<circle cx="109" cy="13" r="5" fill="white"/>
<circle cx="121" cy="13" r="5" fill="white"/>
<circle cx="133" cy="13" r="5" fill="white"/>
<circle cx="158" cy="77" r="5" fill="#27AAF0"/>
<circle cx="206" cy="77" r="5" fill="#27AAF0"/>
<rect x="168" y="95" width="28" height="7" rx="2" fill="#27AAF0"/>
<rect x="24" y="108" width="29" height="29" rx="14.5" fill="white" stroke="#0D80BD" stroke-width="4"/>
<rect x="308" y="108" width="29" height="29" rx="14.5" fill="white" stroke="#0D80BD" stroke-width="4"/>
<rect x="348.227" y="72" width="19.0426" height="5" rx="2.5" transform="rotate(2.59887 348.227 72)" fill="#27AAF0"/>
<rect x="341" y="58.7588" width="19.0426" height="5" rx="2.5" transform="rotate(-46.2633 341 58.7588)" fill="#27AAF0"/>
<rect x="329.245" y="56.0325" width="19.0426" height="5" rx="2.5" transform="rotate(-85.6949 329.245 56.0325)" fill="#27AAF0"/>
<rect x="36.9893" y="35" width="19.0426" height="5" rx="2.5" transform="rotate(86.1937 36.9893 35)" fill="#27AAF0"/>
<rect y="71.53" width="19.0426" height="5" rx="2.5" transform="rotate(-3.09217 0 71.53)" fill="#27AAF0"/>
<rect x="12.7773" y="43.9771" width="19.0426" height="5" rx="2.5" transform="rotate(46.338 12.7773 43.9771)" fill="#27AAF0"/>
<rect x="303.5" y="221.5" width="13" height="13" rx="6.5" fill="white" stroke="#7DCCF6" stroke-width="3"/>
<rect x="12.5" y="215.5" width="13" height="13" rx="6.5" fill="white" stroke="#27AAF0" stroke-width="3"/>
<rect x="35.5" y="254.5" width="8" height="8" rx="4" fill="white" stroke="#0D80BD" stroke-width="3"/>
<rect x="350.265" y="215.435" width="16" height="4" rx="2" transform="rotate(45 350.265 215.435)" fill="#27AAF0"/>
<rect x="347.437" y="226.749" width="16" height="4" rx="2" transform="rotate(-45 347.437 226.749)" fill="#27AAF0"/>
<rect x="59.8286" y="229" width="16" height="4" rx="2" transform="rotate(45 59.8286 229)" fill="#7DCCF6"/>
<rect x="57" y="240.314" width="16" height="4" rx="2" transform="rotate(-45 57 240.314)" fill="#7DCCF6"/>
<rect x="310.248" y="251.629" width="12.4102" height="3.10256" rx="1.55128" transform="rotate(61.6703 310.248 251.629)" fill="#0D80BD"/>
<rect x="305.629" y="259.406" width="12.4102" height="3.10256" rx="1.55128" transform="rotate(-28.3297 305.629 259.406)" fill="#0D80BD"/>
</g>
<defs>
<clipPath id="clip0">
<rect width="367.25" height="272" fill="white"/>
</clipPath>
</defs>
</svg>
