<svg aria-hidden="true" style="position: absolute; width: 0; height: 0; overflow: hidden;" version="1.1" xmlns="http://www.w3.org/2000/svg" xmlns:xlink="http://www.w3.org/1999/xlink">
<defs>
<symbol id="icon-add-post" viewBox="0 0 24 24">
<title>add-post</title>
<path d="M6.984 15h8.016v2.016h-8.016v-2.016zM6.984 12h8.016v2.016h-8.016v-2.016zM6.984 9h8.016v2.016h-8.016v-2.016zM18.984 2.016v3h3v1.969h-3v3h-1.969v-3h-3v-1.969h3v-3h1.969zM17.016 19.219v-7.219h1.969v6.984c0 0.531-0.196 1-0.586 1.406s-0.852 0.609-1.383 0.609h-12c-0.531 0-1-0.203-1.406-0.609s-0.609-0.875-0.609-1.406v-12c0-0.531 0.203-0.992 0.609-1.383s0.875-0.586 1.406-0.586h6.984v1.969h-6.984v12.234l12 0.001z"></path>
</symbol>
<symbol id="icon-apllied-tags" viewBox="0 0 24 24">
<title>apllied-tags</title>
<path d="M0 16.48v-2.462h9.962v2.462h-9.962zM15 4v2.52h-15v-2.52h15zM9.98 8.98v2.52h-9.98v-2.52h9.98z"></path>
<path d="M19.067 15.587v-3.149h-3.149v3.149h3.149zM23.754 12.437h-3.149v3.149h3.149v1.538h-3.149v3.149h-1.538v-3.149h-3.149v3.149h-1.538v-3.149h-3.149v-1.538h3.149v-3.149h-3.149v-1.538h3.149v-3.149h1.538v3.149h3.149v-3.149h1.538v3.149h3.149v1.538z"></path>
</symbol>
<symbol id="icon-camera" viewBox="0 0 24 24">
<title>camera</title>
<path d="M24 19v-11c0-0.828-0.337-1.58-0.879-2.121s-1.293-0.879-2.121-0.879h-3.465l-1.703-2.555c-0.182-0.27-0.486-0.445-0.832-0.445h-6c-0.326 0.002-0.64 0.158-0.832 0.445l-1.703 2.555h-3.465c-0.828 0-1.58 0.337-2.121 0.879s-0.879 1.293-0.879 2.121v11c0 0.828 0.337 1.58 0.879 2.121s1.293 0.879 2.121 0.879h18c0.828 0 1.58-0.337 2.121-0.879s0.879-1.293 0.879-2.121zM22 19c0 0.276-0.111 0.525-0.293 0.707s-0.431 0.293-0.707 0.293h-18c-0.276 0-0.525-0.111-0.707-0.293s-0.293-0.431-0.293-0.707v-11c0-0.276 0.111-0.525 0.293-0.707s0.431-0.293 0.707-0.293h4c0.346 0 0.65-0.175 0.832-0.445l1.703-2.555h4.93l1.703 2.555c0.192 0.287 0.506 0.443 0.832 0.445h4c0.276 0 0.525 0.111 0.707 0.293s0.293 0.431 0.293 0.707v11zM17 13c0-1.38-0.561-2.632-1.464-3.536s-2.156-1.464-3.536-1.464c-1.38 0-2.632 0.561-3.536 1.464s-1.464 2.156-1.464 3.536c0 1.38 0.561 2.632 1.464 3.536s2.156 1.464 3.536 1.464c1.38 0 2.632-0.561 3.536-1.464s1.464-2.156 1.464-3.536zM15 13c0 0.829-0.335 1.577-0.879 2.121s-1.292 0.879-2.121 0.879c-0.829 0-1.577-0.335-2.121-0.879s-0.879-1.292-0.879-2.121c0-0.829 0.335-1.577 0.879-2.121s1.292-0.879 2.121-0.879c0.829 0 1.577 0.335 2.121 0.879s0.879 1.292 0.879 2.121z"></path>
</symbol>
<symbol id="icon-check" viewBox="0 0 24 24">
<title>check</title>
<path d="M19.293 5.293l-10.293 10.293-4.293-4.293c-0.391-0.391-1.024-0.391-1.414 0s-0.391 1.024 0 1.414l5 5c0.391 0.391 1.024 0.391 1.414 0l11-11c0.391-0.391 0.391-1.024 0-1.414s-1.024-0.391-1.414 0z"></path>
</symbol>
<symbol id="icon-checkmark" viewBox="0 0 24 24">
<title>checkmark</title>
<path d="M19.293 5.293l-10.293 10.293-4.293-4.293c-0.391-0.391-1.024-0.391-1.414 0s-0.391 1.024 0 1.414l5 5c0.391 0.391 1.024 0.391 1.414 0l11-11c0.391-0.391 0.391-1.024 0-1.414s-1.024-0.391-1.414 0z"></path>
</symbol>
<symbol id="icon-chevron-right" viewBox="0 0 24 24">
<title>chevron-right</title>
<path d="M9.707 18.707l6-6c0.391-0.391 0.391-1.024 0-1.414l-6-6c-0.391-0.391-1.024-0.391-1.414 0s-0.391 1.024 0 1.414l5.293 5.293-5.293 5.293c-0.391 0.391-0.391 1.024 0 1.414s1.024 0.391 1.414 0z"></path>
</symbol>
<symbol id="icon-close" viewBox="0 0 24 24">
<title>close</title>
<path d="M7.757 17.657l4.243-4.243 4.243 4.243c0.391 0.39 1.024 0.39 1.414 0s0.391-1.024 0-1.414l-4.243-4.243 4.243-4.243c0.391-0.39 0.391-1.024 0-1.414s-1.024-0.39-1.414 0l-4.243 4.243-4.243-4.243c-0.39-0.39-1.024-0.39-1.414 0s-0.39 1.024 0 1.414l4.243 4.243-4.243 4.243c-0.39 0.391-0.39 1.024 0 1.414s1.024 0.39 1.414 0z"></path>
</symbol>
<symbol id="icon-dashboard" viewBox="0 0 24 24">
<title>dashboard</title>
<path d="M12.984 3h8.016v6h-8.016v-6zM12.984 21v-9.984h8.016v9.984h-8.016zM3 21v-6h8.016v6h-8.016zM3 12.984v-9.984h8.016v9.984h-8.016z"></path>
</symbol>
<symbol id="icon-default-view" viewBox="0 0 24 24">
<title>default-view</title>
<path d="M3.011 3.499c0.001-0.275 0.224-0.499 0.5-0.499h16.987c0.277 0 0.501 0.225 0.5 0.502l-0.010 3.091c-0.001 0.275-0.224 0.499-0.5 0.499h-16.987c-0.277 0-0.501-0.225-0.5-0.502l0.010-3.091zM13.319 12c-0.276 0-0.5-0.224-0.5-0.5v-3.091c0-0.276 0.223-0.5 0.5-0.5h7.182c0.276 0 0.5 0.223 0.5 0.5v3.091c0 0.276-0.224 0.5-0.5 0.5h-7.182zM3.5 12c-0.276 0-0.5-0.224-0.5-0.5v-3.091c0-0.276 0.224-0.5 0.5-0.5h7.182c0.276 0 0.5 0.223 0.5 0.5v3.091c0 0.276-0.224 0.5-0.5 0.5h-7.182z"></path>
<path d="M3 13.319c0-0.276 0.224-0.5 0.5-0.5h7.182c0.276 0 0.5 0.223 0.5 0.5v3.091c0 0.276-0.224 0.5-0.5 0.5h-7.182c-0.276 0-0.5-0.224-0.5-0.5v-3.091z"></path>
<path d="M12.818 13.319c0-0.276 0.223-0.5 0.5-0.5h7.182c0.276 0 0.5 0.223 0.5 0.5v3.091c0 0.276-0.224 0.5-0.5 0.5h-7.182c-0.276 0-0.5-0.224-0.5-0.5v-3.091z"></path>
<path d="M3.002 20.498c-0.001 0.277 0.223 0.502 0.5 0.502h16.998c0.276 0 0.5-0.224 0.5-0.5v-2.273c0-0.276-0.224-0.5-0.5-0.5h-16.989c-0.275 0-0.499 0.223-0.5 0.498l-0.009 2.273z"></path>
</symbol>
<symbol id="icon-delete-post" viewBox="0 0 24 24">
<title>delete-post</title>
<path d="M6.984 15h8.016v2.016h-8.016v-2.016zM6.984 12h8.016v2.016h-8.016v-2.016zM6.984 9h8.016v2.016h-8.016v-2.016zM17.016 19.219v-7.219h1.969v6.984c0 0.532-0.196 1-0.586 1.406s-0.852 0.609-1.383 0.609h-12c-0.531 0-1-0.203-1.406-0.609s-0.609-0.875-0.609-1.406v-12c0-0.531 0.203-0.992 0.609-1.383s0.875-0.586 1.406-0.586h6.984v1.969h-6.984v12.234l12 0.001z"></path>
<path d="M18.317 4.003l-2.002-2.002-1.314 1.314 2.002 2.002-2.002 2.002 1.314 1.314 2.002-2.002 2.002 2.002 1.314-1.314-2.002-2.002 2.002-2.002-1.314-1.314-2.002 2.002z"></path>
</symbol>
<symbol id="icon-delete-trash" viewBox="0 0 24 24">
<title>delete-trash</title>
<path d="M15.516 3.984h3.469v2.016h-13.969v-2.016h3.469l1.031-0.984h4.969l1.031 0.984zM8.438 11.859l2.156 2.156-2.109 2.109 1.406 1.406 2.109-2.109 2.109 2.109 1.406-1.406-2.109-2.109 2.109-2.156-1.406-1.406-2.109 2.156-2.109-2.156-1.453 1.406zM6 18.984v-12h12v12c0 0.531-0.203 1-0.609 1.406s-0.874 0.609-1.406 0.609h-7.969c-0.531 0-1-0.203-1.406-0.609s-0.609-0.875-0.609-1.406h-0.001z"></path>
</symbol>
<symbol id="icon-download-cloud" viewBox="0 0 24 24">
<title>download-cloud</title>
<path d="M11 12v6.586l-2.293-2.293c-0.391-0.391-1.024-0.391-1.414 0s-0.391 1.024 0 1.414l4 4c0.092 0.092 0.202 0.166 0.324 0.217 0.245 0.101 0.521 0.101 0.766 0 0.118-0.049 0.228-0.121 0.324-0.217l4-4c0.391-0.391 0.391-1.024 0-1.414s-1.024-0.391-1.414 0l-2.293 2.293v-6.586c0-0.552-0.448-1-1-1s-1 0.448-1 1zM21.455 18.908c1.355-0.953 2.196-2.367 2.46-3.878s-0.050-3.126-1.003-4.481c-0.826-1.174-1.998-1.963-3.287-2.324-0.527-0.147-1.072-0.223-1.621-0.225h-0.523c-0.722-2.058-2.137-3.71-3.907-4.758-1.981-1.172-4.412-1.589-6.819-0.972s-4.338 2.155-5.51 4.136c-1.172 1.981-1.589 4.412-0.972 6.819 0.371 1.446 1.075 2.725 1.983 3.734 0.37 0.41 1.002 0.444 1.412 0.074s0.444-1.002 0.074-1.412c-0.692-0.769-1.242-1.76-1.533-2.893-0.481-1.873-0.157-3.761 0.756-5.304s2.412-2.736 4.285-3.216c1.873-0.48 3.761-0.157 5.304 0.756s2.736 2.412 3.216 4.285c0.116 0.435 0.506 0.751 0.97 0.751h1.256c0.37 0.001 0.737 0.052 1.090 0.151 0.861 0.241 1.639 0.765 2.19 1.548 0.636 0.904 0.845 1.978 0.669 2.988s-0.736 1.95-1.64 2.585c-0.452 0.318-0.56 0.941-0.243 1.393s0.941 0.56 1.393 0.243z"></path>
</symbol>
<symbol id="icon-edit" viewBox="0 0 24 24">
<title>edit</title>
<path d="M11.137 4.726h-5.696c-0.673 0-1.285 0.274-1.726 0.716s-0.716 1.052-0.716 1.726v11.392c0 0.674 0.274 1.285 0.716 1.726s1.052 0.715 1.726 0.715h11.392c0.673 0 1.285-0.274 1.726-0.715s0.715-1.052 0.715-1.726v-5.696c0-0.449-0.364-0.814-0.814-0.814s-0.814 0.364-0.814 0.814v5.696c0 0.224-0.090 0.428-0.239 0.575s-0.351 0.239-0.575 0.239h-11.392c-0.224 0-0.428-0.090-0.575-0.239s-0.238-0.351-0.238-0.575v-11.392c0-0.224 0.090-0.428 0.238-0.575s0.351-0.238 0.575-0.238h5.696c0.449 0 0.814-0.365 0.814-0.814s-0.364-0.814-0.814-0.814zM16.664 3.744l-7.73 7.73c-0.099 0.098-0.176 0.228-0.214 0.379l-0.814 3.255c-0.031 0.122-0.034 0.259 0 0.394 0.109 0.436 0.551 0.701 0.987 0.593l3.255-0.814c0.136-0.034 0.269-0.105 0.379-0.214l7.73-7.73c0.496-0.496 0.744-1.147 0.744-1.796s-0.248-1.3-0.744-1.796c-0.496-0.496-1.148-0.745-1.797-0.745s-1.3 0.248-1.795 0.744z"></path>
</symbol>
<symbol id="icon-edit-post" viewBox="0 0 24 24">
<title>edit-post</title>
<path d="M6.984 15h8.016v2.016h-8.016v-2.016zM6.984 12h8.016v2.016h-8.016v-2.016zM6.984 9h8.016v2.016h-8.016v-2.016zM17.016 19.219v-7.219h1.969v6.984c0 0.531-0.196 1-0.586 1.406s-0.852 0.609-1.383 0.609h-12c-0.531 0-1-0.203-1.406-0.609s-0.609-0.875-0.609-1.406v-12c0-0.531 0.203-0.992 0.609-1.383s0.875-0.586 1.406-0.586h6.984v1.969h-6.984v12.234l12 0.001z"></path>
<path d="M13.533 5.108l5.542 5.542c0.070 0.071 0.163 0.127 0.271 0.154l2.333 0.584c0.088 0.022 0.185 0.025 0.283 0 0.313-0.078 0.503-0.395 0.425-0.707l-0.584-2.333c-0.024-0.098-0.075-0.193-0.154-0.271l-5.542-5.542c-0.355-0.356-0.823-0.533-1.288-0.533s-0.932 0.178-1.288 0.533c-0.355 0.356-0.534 0.823-0.534 1.288s0.178 0.932 0.533 1.288z"></path>
</symbol>
<symbol id="icon-filter-by-author" viewBox="0 0 24 24">
<title>filter-by-author</title>
<path d="M13.538 13.423c-0.127 0.146-0.203 0.336-0.203 0.544v5.829l-1.723-0.842v-4.987c0.001-0.191-0.066-0.385-0.203-0.544l-5.692-6.581h6.54c0.138 0 0.27-0.057 0.365-0.158l0.641-0.684c0.299-0.319 0.073-0.842-0.364-0.842h-9.038c-0.476 0-0.861 0.377-0.861 0.842 0 0.208 0.077 0.398 0.203 0.544l6.686 7.731v5.199c0 0.328 0.191 0.612 0.476 0.753l3.445 1.684c0.425 0.208 0.943 0.040 1.156-0.376 0.062-0.123 0.091-0.254 0.091-0.377v-6.884l1.246-1.441c0.2-0.232 0.147-0.587-0.112-0.75l-0.604-0.381c-0.209-0.131-0.483-0.091-0.644 0.096l-1.405 1.624z"></path>
<path d="M21.421 10.334v-0.878c0-0.605-0.246-1.154-0.642-1.551s-0.946-0.642-1.551-0.642h-3.508c-0.605 0-1.154 0.246-1.551 0.642s-0.642 0.946-0.642 1.551v0.878c0 0.242 0.197 0.439 0.439 0.439s0.439-0.197 0.439-0.439v-0.877c0-0.364 0.147-0.692 0.386-0.93s0.567-0.386 0.93-0.386h3.508c0.364 0 0.692 0.147 0.93 0.386s0.386 0.567 0.386 0.93v0.877c0 0.242 0.197 0.439 0.439 0.439s0.439-0.197 0.439-0.439zM19.666 4.193c0-0.605-0.246-1.154-0.642-1.551s-0.946-0.642-1.551-0.642c-0.605 0-1.154 0.246-1.551 0.642s-0.642 0.946-0.642 1.551 0.246 1.154 0.642 1.551c0.396 0.397 0.946 0.642 1.551 0.642s1.154-0.246 1.551-0.642 0.642-0.946 0.642-1.551zM18.79 4.193c0 0.364-0.147 0.692-0.386 0.93s-0.567 0.386-0.93 0.386c-0.364 0-0.692-0.147-0.93-0.386s-0.386-0.567-0.386-0.93c0-0.364 0.147-0.691 0.386-0.93s0.566-0.386 0.93-0.386c0.364 0 0.692 0.147 0.93 0.386s0.386 0.567 0.386 0.93z"></path>
</symbol>
<symbol id="icon-filter-by-tags" viewBox="0 0 24 24">
<title>filter-by-tags</title>
<path d="M13.538 13.423c-0.127 0.146-0.203 0.336-0.203 0.544v5.829l-1.723-0.842v-4.987c0.001-0.191-0.066-0.385-0.203-0.544l-5.692-6.581h6.54c0.138 0 0.27-0.057 0.365-0.158l0.641-0.684c0.299-0.319 0.073-0.842-0.364-0.842h-9.038c-0.476 0-0.861 0.377-0.861 0.842 0 0.208 0.077 0.398 0.203 0.544l6.686 7.731v5.199c0 0.328 0.191 0.612 0.476 0.753l3.445 1.684c0.425 0.208 0.943 0.040 1.156-0.376 0.062-0.123 0.091-0.254 0.091-0.377v-6.884l1.246-1.441c0.2-0.232 0.147-0.587-0.112-0.75l-0.604-0.381c-0.209-0.131-0.483-0.091-0.644 0.096l-1.405 1.624z"></path>
<path d="M19.006 8.006v-2.012h-2.011v2.012h2.011zM22 5.994h-2.011v2.011h2.011v0.982h-2.011v2.012h-0.983v-2.012h-2.011v2.012h-0.982v-2.012h-2.011v-0.982h2.011v-2.011h-2.011v-0.983h2.011v-2.011h0.982v2.011h2.011v-2.011h0.983v2.011h2.011v0.983z"></path>
</symbol>
<symbol id="icon-heart" viewBox="0 0 24 24">
<title>heart</title>
<path d="M20.133 5.317c0.88 0.881 1.319 2.031 1.319 3.184s-0.44 2.303-1.319 3.182l-8.133 8.133-8.133-8.133c-0.879-0.879-1.318-2.029-1.318-3.183s0.439-2.304 1.318-3.183c0.879-0.879 2.029-1.318 3.183-1.318s2.304 0.439 3.183 1.318l1.060 1.060c0.391 0.391 1.024 0.391 1.414 0l1.062-1.062c0.879-0.879 2.029-1.318 3.182-1.317s2.303 0.44 3.182 1.319zM21.547 3.903c-1.269-1.269-2.934-1.904-4.596-1.905s-3.327 0.634-4.597 1.903l-0.354 0.355-0.353-0.353c-1.269-1.269-2.935-1.904-4.597-1.904s-3.328 0.635-4.597 1.904c-1.269 1.269-1.904 2.935-1.904 4.597s0.635 3.328 1.904 4.597l8.84 8.84c0.391 0.391 1.024 0.391 1.414 0l8.84-8.84c1.269-1.269 1.904-2.934 1.905-4.596s-0.634-3.327-1.905-4.598z"></path>
</symbol>
<symbol id="icon-heart-filled" viewBox="0 0 24 24">
<title>heart-filled</title>
<path d="M12 21.328l-1.453-1.313c-5.156-4.688-8.531-7.734-8.531-11.531 0-3.094 2.391-5.484 5.484-5.484 1.734 0 3.422 0.844 4.5 2.109 1.078-1.266 2.766-2.109 4.5-2.109 3.094 0 5.484 2.391 5.484 5.484 0 3.797-3.375 6.891-8.531 11.578z"></path>
</symbol>
<symbol id="icon-key" viewBox="0 0 24 24">
<title>key</title>
<path d="M19 5.414l1.586 1.586-2.086 2.086-1.586-1.586 2.086-2.086zM10.688 12.323c0.884 0.873 1.331 2.020 1.339 3.172s-0.424 2.306-1.297 3.191-2.020 1.332-3.173 1.339c-1.153 0.007-2.306-0.424-3.191-1.297l-0.042-0.042c-0.874-0.885-1.305-2.038-1.297-3.191s0.455-2.3 1.339-3.173c0.879-0.867 2.023-1.299 3.169-1.296 1.141 0.002 2.278 0.435 3.152 1.296l0.001 0.001zM18.293 3.293c-0.391 0.391-0.391 1.024 0 1.414l0.707 0.707 1.414-1.414-0.707-0.707c-0.391-0.391-1.024-0.391-1.414 0zM18.293 3.293c-0.391 0.391-0.391 1.024 0 1.414s1.024 0.391 1.414 0c0.39-0.391 0.391-1.024 0-1.414s-1.024-0.391-1.414 0l-3.5 3.5c-0.391 0.391-0.391 1.024 0 1.414l0.707 0.707 1.414-1.414-0.707-0.707c-0.391-0.391-1.024-0.391-1.414 0s-0.391 1.024 0 1.414c0.391 0.39 1.024 0.391 1.414 0s0.391-1.024 0-1.414c-0.391-0.39-1.024-0.391-1.414 0l-3.461 3.461c-1.129-0.816-2.462-1.226-3.793-1.229-1.652-0.003-3.308 0.62-4.577 1.873-1.277 1.26-1.923 2.921-1.935 4.583s0.613 3.332 1.873 4.609l0.062 0.062c1.277 1.26 2.947 1.884 4.609 1.873s3.323-0.657 4.583-1.935c1.26-1.278 1.884-2.947 1.873-4.609-0.009-1.345-0.434-2.689-1.273-3.821l2.746-2.746 2.293 2.293c0.391 0.391 1.024 0.391 1.414 0l3.5-3.5c0.391-0.391 0.391-1.024 0-1.414l-2.293-2.293 1.293-1.293c0.391-0.391 0.391-1.024 0-1.414s-1.024-0.391-1.414 0l-2 2z"></path>
</symbol>
<symbol id="icon-list-view" viewBox="0 0 24 24">
<title>list-view</title>
<path d="M3.011 3.499c0.001-0.275 0.224-0.499 0.5-0.499h16.987c0.277 0 0.501 0.225 0.5 0.502l-0.008 2.272c-0.001 0.275-0.224 0.499-0.5 0.499h-16.987c-0.277 0-0.501-0.225-0.5-0.502l0.007-2.272zM3.5 11.182c-0.276 0-0.5-0.224-0.5-0.5v-2.272c0-0.276 0.224-0.5 0.5-0.5h16.987c0.276 0 0.5 0.223 0.5 0.5v2.272c0 0.276-0.224 0.5-0.5 0.5h-16.987z"></path>
<path d="M3 13.319c0-0.276 0.224-0.5 0.5-0.5h16.987c0.276 0 0.5 0.223 0.5 0.5v2.273c0 0.276-0.224 0.5-0.5 0.5h-16.987c-0.276 0-0.5-0.223-0.5-0.5v-2.273z"></path>
<path d="M3.002 20.498c-0.001 0.277 0.223 0.502 0.5 0.502h16.998c0.276 0 0.5-0.224 0.5-0.5v-2.273c0-0.276-0.224-0.5-0.5-0.5h-16.989c-0.275 0-0.499 0.223-0.5 0.498l-0.009 2.273z"></path>
</symbol>
<symbol id="icon-log-in" viewBox="0 0 24 24">
<title>log-in</title>
<path d="M15 4h4c0.276 0 0.525 0.111 0.707 0.293s0.293 0.431 0.293 0.707v14c0 0.276-0.111 0.525-0.293 0.707s-0.431 0.293-0.707 0.293h-4c-0.552 0-1 0.448-1 1s0.448 1 1 1h4c0.828 0 1.58-0.337 2.121-0.879s0.879-1.293 0.879-2.121v-14c0-0.828-0.337-1.58-0.879-2.121s-1.293-0.879-2.121-0.879h-4c-0.552 0-1 0.448-1 1s0.448 1 1 1zM12.586 11h-9.586c-0.552 0-1 0.448-1 1s0.448 1 1 1h9.586l-3.293 3.293c-0.391 0.391-0.391 1.024 0 1.414s1.024 0.391 1.414 0l5-5c0.096-0.096 0.168-0.206 0.217-0.324s0.076-0.247 0.076-0.383c0-0.13-0.025-0.261-0.076-0.383-0.049-0.118-0.121-0.228-0.217-0.324l-5-5c-0.391-0.391-1.024-0.391-1.414 0s-0.391 1.024 0 1.414l3.293 3.293z"></path>
</symbol>
<symbol id="icon-log-out" viewBox="0 0 24 24">
<title>log-out</title>
<path d="M9 20h-4c-0.276 0-0.525-0.111-0.707-0.293s-0.293-0.431-0.293-0.707v-14c0-0.276 0.111-0.525 0.293-0.707s0.431-0.293 0.707-0.293h4c0.552 0 1-0.448 1-1s-0.448-1-1-1h-4c-0.828 0-1.58 0.337-2.121 0.879s-0.879 1.293-0.879 2.121v14c0 0.828 0.337 1.58 0.879 2.121s1.293 0.879 2.121 0.879h4c0.552 0 1-0.448 1-1s-0.448-1-1-1zM18.586 11h-9.586c-0.552 0-1 0.448-1 1s0.448 1 1 1h9.586l-3.293 3.293c-0.391 0.391-0.391 1.024 0 1.414s1.024 0.391 1.414 0l5-5c0.096-0.096 0.168-0.206 0.217-0.324 0.15-0.362 0.078-0.795-0.217-1.090l-5-5c-0.391-0.391-1.024-0.391-1.414 0s-0.391 1.024 0 1.414l3.293 3.293z"></path>
</symbol>
<symbol id="icon-mail" viewBox="0 0 24 24">
<title>mail</title>
<path d="M3 7.921l8.427 5.899c0.34 0.235 0.795 0.246 1.147 0l8.426-5.899v10.079c0 0.272-0.11 0.521-0.295 0.705s-0.433 0.295-0.705 0.295h-16c-0.272 0-0.521-0.11-0.705-0.295s-0.295-0.433-0.295-0.705v-10.079zM1 6.012v11.988c0 0.828 0.34 1.579 0.88 2.12s1.292 0.88 2.12 0.88h16c0.828 0 1.579-0.34 2.12-0.88s0.88-1.292 0.88-2.12v-11.988c0-0.010 0-0.020 0-0.030-0.005-0.821-0.343-1.565-0.88-2.102-0.541-0.54-1.292-0.88-2.12-0.88h-16c-0.828 0-1.579 0.34-2.12 0.88-0.537 0.537-0.875 1.281-0.88 2.103 0 0.005 0 0.011 0 0.017v0.012zM20.894 5.554l-8.894 6.225-8.894-6.225c0.048-0.096 0.112-0.183 0.188-0.259 0.185-0.185 0.434-0.295 0.706-0.295h16c0.272 0 0.521 0.11 0.705 0.295 0.076 0.076 0.14 0.164 0.188 0.259h0.001z"></path>
</symbol>
<symbol id="icon-menu" viewBox="0 0 24 24">
<title>menu</title>
<path d="M3 13h18c0.552 0 1-0.448 1-1s-0.448-1-1-1h-18c-0.552 0-1 0.448-1 1s0.448 1 1 1zM3 7h18c0.552 0 1-0.448 1-1s-0.448-1-1-1h-18c-0.552 0-1 0.448-1 1s0.448 1 1 1zM3 19h18c0.552 0 1-0.448 1-1s-0.448-1-1-1h-18c-0.552 0-1 0.448-1 1s0.448 1 1 1z"></path>
</symbol>
<symbol id="icon-more-vertical" viewBox="0 0 24 24">
<title>more-vertical</title>
<path d="M14 12c0-0.552-0.225-1.053-0.586-1.414s-0.862-0.586-1.414-0.586-1.053 0.225-1.414 0.586-0.586 0.862-0.586 1.414 0.225 1.053 0.586 1.414 0.862 0.586 1.414 0.586 1.053-0.225 1.414-0.586 0.586-0.862 0.586-1.414zM14 5c0-0.552-0.225-1.053-0.586-1.414s-0.862-0.586-1.414-0.586-1.053 0.225-1.414 0.586-0.586 0.862-0.586 1.414 0.225 1.053 0.586 1.414 0.862 0.586 1.414 0.586 1.053-0.225 1.414-0.586 0.586-0.862 0.586-1.414zM14 19c0-0.552-0.225-1.053-0.586-1.414s-0.862-0.586-1.414-0.586-1.053 0.225-1.414 0.586-0.586 0.862-0.586 1.414 0.225 1.053 0.586 1.414 0.862 0.586 1.414 0.586 1.053-0.225 1.414-0.586 0.586-0.862 0.586-1.414z"></path>
</symbol>
<symbol id="icon-newspaper" viewBox="0 0 24 24">
<title>newspaper</title>
<path d="M21 6v-3h-21v16.5c0 0.829 0.671 1.5 1.5 1.5h20.25c1.243 0 2.25-1.007 2.25-2.25v-12.75h-3zM19.5 19.5h-18v-15h18v15zM3 7.5h15v1.5h-15v-1.5zM12 10.5h6v1.5h-6v-1.5zM12 13.5h6v1.5h-6v-1.5zM12 16.5h4.5v1.5h-4.5v-1.5zM3 10.5h7.5v7.5h-7.5v-7.5z"></path>
</symbol>
<symbol id="icon-plus" viewBox="0 0 24 24">
<title>plus</title>
<path d="M5 13h6v6c0 0.552 0.448 1 1 1s1-0.448 1-1v-6h6c0.552 0 1-0.448 1-1s-0.448-1-1-1h-6v-6c0-0.552-0.448-1-1-1s-1 0.448-1 1v6h-6c-0.552 0-1 0.448-1 1s0.448 1 1 1z"></path>
</symbol>
<symbol id="icon-send" viewBox="0 0 24 24">
<title>send</title>
<path d="M22.963 2.269c0.043-0.151 0.050-0.314 0.015-0.476-0.024-0.113-0.068-0.224-0.131-0.325-0.064-0.102-0.145-0.19-0.238-0.262-0.117-0.090-0.249-0.15-0.386-0.181s-0.282-0.034-0.426-0.004c-0.042 0.009-0.085 0.021-0.126 0.035l-0.021 0.007-19.98 6.993c-0.252 0.088-0.467 0.276-0.584 0.538-0.224 0.505 0.003 1.096 0.508 1.32l8.649 3.844 3.844 8.649c0.108 0.243 0.313 0.443 0.583 0.538 0.521 0.182 1.092-0.092 1.274-0.614l6.993-19.979c0.010-0.027 0.019-0.054 0.027-0.082l-0.001-0.001zM10.779 11.807l-6.068-2.696 13.483-4.72-7.415 7.416zM19.609 5.806l-4.72 13.483-2.696-6.068 7.416-7.415z"></path>
</symbol>
<symbol id="icon-star" viewBox="0 0 24 24">
<title>star</title>
<path d="M12.897 1.557c-0.092-0.189-0.248-0.352-0.454-0.454-0.495-0.244-1.095-0.041-1.339 0.454l-2.858 5.789-6.391 0.935c-0.208 0.029-0.411 0.127-0.571 0.291-0.386 0.396-0.377 1.029 0.018 1.414l4.623 4.503-1.091 6.362c-0.036 0.207-0.006 0.431 0.101 0.634 0.257 0.489 0.862 0.677 1.351 0.42l5.714-3.005 5.715 3.005c0.186 0.099 0.408 0.139 0.634 0.101 0.544-0.093 0.91-0.61 0.817-1.155l-1.091-6.362 4.623-4.503c0.151-0.146 0.259-0.344 0.292-0.572 0.080-0.546-0.298-1.054-0.845-1.134l-6.39-0.934-2.858-5.789zM12 4.259l2.193 4.444c0.151 0.305 0.436 0.499 0.752 0.547l4.906 0.717-3.549 3.457c-0.244 0.238-0.341 0.569-0.288 0.885l0.837 4.883-4.386-2.307c-0.301-0.158-0.647-0.148-0.931 0l-4.386 2.307 0.837-4.883c0.058-0.336-0.059-0.661-0.288-0.885l-3.549-3.457 4.907-0.718c0.336-0.049 0.609-0.26 0.752-0.546l2.193-4.444z"></path>
</symbol>
<symbol id="icon-star-filled" viewBox="0 0 24 24">
<title>star-filled</title>
<path d="M12 17.25l-6.188 3.75 1.641-7.031-5.438-4.734 7.172-0.609 2.813-6.609 2.813 6.609 7.172 0.609-5.438 4.734 1.641 7.031z"></path>
</symbol>
<symbol id="icon-tag" viewBox="0 0 24 24">
<title>tag</title>
<path d="M14.016 14.016v-4.031h-4.031v4.031h4.031zM20.016 9.984h-4.031v4.031h4.031v1.969h-4.031v4.031h-1.969v-4.031h-4.031v4.031h-1.969v-4.031h-4.031v-1.969h4.031v-4.031h-4.031v-1.969h4.031v-4.031h1.969v4.031h4.031v-4.031h1.969v4.031h4.031v1.969z"></path>
</symbol>
<symbol id="icon-th-small" viewBox="0 0 24 24">
<title>th-small</title>
<path d="M7.5 19c0 1.381-1.119 2.5-2.5 2.5s-2.5-1.119-2.5-2.5c0-1.381 1.119-2.5 2.5-2.5s2.5 1.119 2.5 2.5z"></path>
<path d="M7.5 12c0 1.381-1.119 2.5-2.5 2.5s-2.5-1.119-2.5-2.5c0-1.381 1.119-2.5 2.5-2.5s2.5 1.119 2.5 2.5z"></path>
<path d="M7.5 5c0 1.381-1.119 2.5-2.5 2.5s-2.5-1.119-2.5-2.5c0-1.381 1.119-2.5 2.5-2.5s2.5 1.119 2.5 2.5z"></path>
<path d="M14.5 19c0 1.381-1.119 2.5-2.5 2.5s-2.5-1.119-2.5-2.5c0-1.381 1.119-2.5 2.5-2.5s2.5 1.119 2.5 2.5z"></path>
<path d="M14.5 12c0 1.381-1.119 2.5-2.5 2.5s-2.5-1.119-2.5-2.5c0-1.381 1.119-2.5 2.5-2.5s2.5 1.119 2.5 2.5z"></path>
<path d="M14.5 5c0 1.381-1.119 2.5-2.5 2.5s-2.5-1.119-2.5-2.5c0-1.381 1.119-2.5 2.5-2.5s2.5 1.119 2.5 2.5z"></path>
<path d="M21.5 19c0 1.381-1.119 2.5-2.5 2.5s-2.5-1.119-2.5-2.5c0-1.381 1.119-2.5 2.5-2.5s2.5 1.119 2.5 2.5z"></path>
<path d="M21.5 12c0 1.381-1.119 2.5-2.5 2.5s-2.5-1.119-2.5-2.5c0-1.381 1.119-2.5 2.5-2.5s2.5 1.119 2.5 2.5z"></path>
<path d="M21.5 5c0 1.381-1.119 2.5-2.5 2.5s-2.5-1.119-2.5-2.5c0-1.381 1.119-2.5 2.5-2.5s2.5 1.119 2.5 2.5z"></path>
</symbol>
<symbol id="icon-tile-view" viewBox="0 0 24 24">
<title>tile-view</title>
<path d="M3.012 3.5c0.001-0.276 0.224-0.5 0.5-0.5h7.168c0.277 0 0.5 0.224 0.5 0.501l-0.011 7.182c-0.001 0.276-0.224 0.5-0.5 0.5h-7.168c-0.277 0-0.5-0.224-0.5-0.501l0.011-7.182z"></path>
<path d="M3 20.5c0 0.276 0.224 0.5 0.5 0.5h7.194c0.277 0 0.5-0.224 0.5-0.501l-0.011-7.182c-0.001-0.276-0.224-0.5-0.5-0.5h-7.183c-0.276 0-0.5 0.223-0.5 0.5v7.182z"></path>
<path d="M12.818 3.5c0-0.276 0.223-0.5 0.5-0.5h7.182c0.276 0 0.5 0.224 0.5 0.5v7.182c0 0.276-0.224 0.5-0.5 0.5h-7.182c-0.276 0-0.5-0.224-0.5-0.5v-7.182z"></path>
<path d="M12.818 13.319c0-0.276 0.223-0.5 0.5-0.5h7.182c0.276 0 0.5 0.223 0.5 0.5v7.182c0 0.276-0.224 0.5-0.5 0.5h-7.182c-0.276 0-0.5-0.224-0.5-0.5v-7.182z"></path>
</symbol>
<symbol id="icon-trash-2" viewBox="0 0 24 24">
<title>trash-2</title>
<path d="M18 7v13c0 0.276-0.111 0.525-0.293 0.707s-0.431 0.293-0.707 0.293h-10c-0.276 0-0.525-0.111-0.707-0.293s-0.293-0.431-0.293-0.707v-13zM17 5v-1c0-0.828-0.337-1.58-0.879-2.121s-1.293-0.879-2.121-0.879h-4c-0.828 0-1.58 0.337-2.121 0.879s-0.879 1.293-0.879 2.121v1h-4c-0.552 0-1 0.448-1 1s0.448 1 1 1h1v13c0 0.828 0.337 1.58 0.879 2.121s1.293 0.879 2.121 0.879h10c0.828 0 1.58-0.337 2.121-0.879s0.879-1.293 0.879-2.121v-13h1c0.552 0 1-0.448 1-1s-0.448-1-1-1zM9 5v-1c0-0.276 0.111-0.525 0.293-0.707s0.431-0.293 0.707-0.293h4c0.276 0 0.525 0.111 0.707 0.293s0.293 0.431 0.293 0.707v1zM9 11v6c0 0.552 0.448 1 1 1s1-0.448 1-1v-6c0-0.552-0.448-1-1-1s-1 0.448-1 1zM13 11v6c0 0.552 0.448 1 1 1s1-0.448 1-1v-6c0-0.552-0.448-1-1-1s-1 0.448-1 1z"></path>
</symbol>
<symbol id="icon-upload-cloud" viewBox="0 0 24 24">
<title>upload-cloud</title>
<path d="M11 14.414v6.586c0 0.552 0.448 1 1 1s1-0.448 1-1v-6.586l2.293 2.293c0.391 0.391 1.024 0.391 1.414 0s0.391-1.024 0-1.414l-4-4c-0.096-0.096-0.206-0.168-0.324-0.217-0.122-0.051-0.253-0.076-0.383-0.076-0.256 0-0.512 0.098-0.707 0.293l-4 4c-0.391 0.391-0.391 1.024 0 1.414s1.024 0.391 1.414 0l2.293-2.293zM20.869 19.268c1.454-0.793 2.451-2.102 2.884-3.574s0.305-3.112-0.488-4.566c-0.679-1.245-1.737-2.156-2.96-2.663-0.724-0.3-1.504-0.459-2.298-0.465h-0.527c-0.725-2.057-2.144-3.708-3.917-4.752-1.983-1.168-4.415-1.581-6.821-0.959s-4.333 2.162-5.502 4.145c-1.169 1.983-1.581 4.415-0.959 6.821 0.372 1.437 1.073 2.71 1.975 3.713 0.369 0.411 1.002 0.444 1.412 0.075s0.444-1.002 0.075-1.412c-0.688-0.765-1.235-1.75-1.526-2.877-0.484-1.872-0.164-3.761 0.746-5.305s2.407-2.74 4.279-3.224c1.872-0.484 3.761-0.164 5.305 0.746s2.74 2.407 3.224 4.279c0.116 0.435 0.506 0.75 0.969 0.75h1.253c0.536 0.004 1.061 0.111 1.545 0.312 0.815 0.338 1.518 0.943 1.97 1.773 0.529 0.97 0.615 2.061 0.325 3.044s-0.953 1.854-1.923 2.382c-0.485 0.264-0.664 0.872-0.399 1.357s0.872 0.664 1.357 0.399l0.001 0.001z"></path>
</symbol>
<symbol id="icon-upload-cloud-with-shadow" viewBox="0 0 24 24">
<title>upload-cloud-with-shadow</title>
<path fill="#fff" style="fill: var(--color1, #fff)" d="M11.077 14.177v6.056c0 0.508 0.414 0.92 0.923 0.92s0.923-0.412 0.923-0.92v-6.056l2.117 2.108c0.361 0.36 0.945 0.36 1.305 0s0.361-0.942 0-1.3l-3.692-3.678c-0.089-0.088-0.19-0.154-0.299-0.199-0.113-0.047-0.234-0.070-0.354-0.070-0.236 0-0.473 0.090-0.653 0.269l-3.692 3.678c-0.361 0.36-0.361 0.942 0 1.3s0.945 0.36 1.305 0l2.117-2.108zM20.187 18.641c1.342-0.729 2.262-1.933 2.662-3.286s0.282-2.862-0.45-4.199c-0.627-1.145-1.603-1.983-2.732-2.449-0.668-0.276-1.388-0.422-2.121-0.428h-0.486c-0.669-1.891-1.979-3.41-3.616-4.37-1.83-1.074-4.075-1.454-6.296-0.882s-4 1.988-5.079 3.812c-1.079 1.823-1.459 4.060-0.885 6.272 0.343 1.321 0.99 2.492 1.823 3.414 0.341 0.378 0.925 0.408 1.303 0.069s0.41-0.921 0.069-1.298c-0.635-0.703-1.14-1.609-1.409-2.646-0.447-1.721-0.151-3.458 0.689-4.878s2.222-2.52 3.95-2.965c1.728-0.445 3.472-0.151 4.897 0.686s2.529 2.213 2.976 3.935c0.107 0.4 0.467 0.69 0.894 0.69h1.157c0.495 0.004 0.979 0.102 1.426 0.287 0.752 0.311 1.401 0.867 1.818 1.63 0.488 0.892 0.568 1.895 0.3 2.799s-0.88 1.705-1.775 2.19c-0.448 0.243-0.613 0.802-0.368 1.248s0.805 0.611 1.253 0.367l0.001 0.001z"></path>
</symbol>
<symbol id="icon-user" viewBox="0 0 24 24">
<title>user</title>
<path d="M21 21v-2c0-1.38-0.561-2.632-1.464-3.536s-2.156-1.464-3.536-1.464h-8c-1.38 0-2.632 0.561-3.536 1.464s-1.464 2.156-1.464 3.536v2c0 0.552 0.448 1 1 1s1-0.448 1-1v-2c0-0.829 0.335-1.577 0.879-2.121s1.292-0.879 2.121-0.879h8c0.829 0 1.577 0.335 2.121 0.879s0.879 1.292 0.879 2.121v2c0 0.552 0.448 1 1 1s1-0.448 1-1zM17 7c0-1.38-0.561-2.632-1.464-3.536s-2.156-1.464-3.536-1.464c-1.38 0-2.632 0.561-3.536 1.464s-1.464 2.156-1.464 3.536c0 1.38 0.561 2.632 1.464 3.536s2.156 1.464 3.536 1.464c1.38 0 2.632-0.561 3.536-1.464s1.464-2.156 1.464-3.536zM15 7c0 0.829-0.335 1.577-0.879 2.121s-1.292 0.879-2.121 0.879c-0.829 0-1.577-0.335-2.121-0.879s-0.879-1.292-0.879-2.121c0-0.829 0.335-1.577 0.879-2.121s1.292-0.879 2.121-0.879c0.829 0 1.577 0.335 2.121 0.879s0.879 1.292 0.879 2.121z"></path>
</symbol>
<symbol id="icon-user-plus" viewBox="0 0 24 24">
<title>user-plus</title>
<path d="M17 21v-2c0-1.38-0.561-2.632-1.464-3.536s-2.156-1.464-3.536-1.464h-7c-1.38 0-2.632 0.561-3.536 1.464s-1.464 2.156-1.464 3.536v2c0 0.552 0.448 1 1 1s1-0.448 1-1v-2c0-0.829 0.335-1.577 0.879-2.121s1.292-0.879 2.121-0.879h7c0.829 0 1.577 0.335 2.121 0.879s0.879 1.292 0.879 2.121v2c0 0.552 0.448 1 1 1s1-0.448 1-1zM13.5 7c0-1.38-0.561-2.632-1.464-3.536s-2.156-1.464-3.536-1.464c-1.38 0-2.632 0.561-3.536 1.464s-1.464 2.156-1.464 3.536c0 1.38 0.561 2.632 1.464 3.536s2.156 1.464 3.536 1.464c1.38 0 2.632-0.561 3.536-1.464s1.464-2.156 1.464-3.536zM11.5 7c0 0.829-0.335 1.577-0.879 2.121s-1.292 0.879-2.121 0.879c-0.829 0-1.577-0.335-2.121-0.879s-0.879-1.292-0.879-2.121c0-0.829 0.335-1.577 0.879-2.121s1.292-0.879 2.121-0.879c0.829 0 1.577 0.335 2.121 0.879s0.879 1.292 0.879 2.121zM23 10h-2v-2c0-0.552-0.448-1-1-1s-1 0.448-1 1v2h-2c-0.552 0-1 0.448-1 1s0.448 1 1 1h2v2c0 0.552 0.448 1 1 1s1-0.448 1-1v-2h2c0.552 0 1-0.448 1-1s-0.448-1-1-1z"></path>
</symbol>
</defs>
</svg>
