<svg aria-hidden="true" style="position: absolute; width: 0; height: 0; overflow: hidden;" version="1.1" xmlns="http://www.w3.org/2000/svg" xmlns:xlink="http://www.w3.org/1999/xlink">
<defs>
<symbol id="icon-more-vertical" viewBox="0 0 24 24">
<title>more-vertical</title>
<path d="M14 12c0-0.552-0.225-1.053-0.586-1.414s-0.862-0.586-1.414-0.586-1.053 0.225-1.414 0.586-0.586 0.862-0.586 1.414 0.225 1.053 0.586 1.414 0.862 0.586 1.414 0.586 1.053-0.225 1.414-0.586 0.586-0.862 0.586-1.414zM14 5c0-0.552-0.225-1.053-0.586-1.414s-0.862-0.586-1.414-0.586-1.053 0.225-1.414 0.586-0.586 0.862-0.586 1.414 0.225 1.053 0.586 1.414 0.862 0.586 1.414 0.586 1.053-0.225 1.414-0.586 0.586-0.862 0.586-1.414zM14 19c0-0.552-0.225-1.053-0.586-1.414s-0.862-0.586-1.414-0.586-1.053 0.225-1.414 0.586-0.586 0.862-0.586 1.414 0.225 1.053 0.586 1.414 0.862 0.586 1.414 0.586 1.053-0.225 1.414-0.586 0.586-0.862 0.586-1.414z"></path>
</symbol>
<symbol id="icon-trash-2" viewBox="0 0 24 24">
<title>trash-2</title>
<path d="M18 7v13c0 0.276-0.111 0.525-0.293 0.707s-0.431 0.293-0.707 0.293h-10c-0.276 0-0.525-0.111-0.707-0.293s-0.293-0.431-0.293-0.707v-13zM17 5v-1c0-0.828-0.337-1.58-0.879-2.121s-1.293-0.879-2.121-0.879h-4c-0.828 0-1.58 0.337-2.121 0.879s-0.879 1.293-0.879 2.121v1h-4c-0.552 0-1 0.448-1 1s0.448 1 1 1h1v13c0 0.828 0.337 1.58 0.879 2.121s1.293 0.879 2.121 0.879h10c0.828 0 1.58-0.337 2.121-0.879s0.879-1.293 0.879-2.121v-13h1c0.552 0 1-0.448 1-1s-0.448-1-1-1zM9 5v-1c0-0.276 0.111-0.525 0.293-0.707s0.431-0.293 0.707-0.293h4c0.276 0 0.525 0.111 0.707 0.293s0.293 0.431 0.293 0.707v1zM9 11v6c0 0.552 0.448 1 1 1s1-0.448 1-1v-6c0-0.552-0.448-1-1-1s-1 0.448-1 1zM13 11v6c0 0.552 0.448 1 1 1s1-0.448 1-1v-6c0-0.552-0.448-1-1-1s-1 0.448-1 1z"></path>
</symbol>
<symbol id="icon-heart-filled" viewBox="0 0 24 24">
<title>heart-filled</title>
<path d="M12 21.328l-1.453-1.313c-5.156-4.688-8.531-7.734-8.531-11.531 0-3.094 2.391-5.484 5.484-5.484 1.734 0 3.422 0.844 4.5 2.109 1.078-1.266 2.766-2.109 4.5-2.109 3.094 0 5.484 2.391 5.484 5.484 0 3.797-3.375 6.891-8.531 11.578z"></path>
</symbol>
<symbol id="icon-star-filled" viewBox="0 0 24 24">
<title>star-filled</title>
<path d="M12 17.25l-6.188 3.75 1.641-7.031-5.438-4.734 7.172-0.609 2.813-6.609 2.813 6.609 7.172 0.609-5.438 4.734 1.641 7.031z"></path>
</symbol>
<symbol id="icon-edit" viewBox="0 0 32 32">
<title>edit</title>
<path d="M14.849 6.301h-7.595c-0.898 0-1.714 0.366-2.301 0.954s-0.954 1.403-0.954 2.301v15.189c0 0.898 0.366 1.714 0.954 2.301s1.403 0.954 2.301 0.954h15.189c0.898 0 1.714-0.366 2.301-0.954s0.954-1.403 0.954-2.301v-7.595c0-0.599-0.486-1.085-1.085-1.085s-1.085 0.486-1.085 1.085v7.595c0 0.299-0.12 0.57-0.318 0.767s-0.468 0.318-0.767 0.318h-15.189c-0.299 0-0.57-0.12-0.767-0.318s-0.318-0.468-0.318-0.767v-15.189c0-0.299 0.12-0.57 0.318-0.767s0.468-0.318 0.767-0.318h7.595c0.599 0 1.085-0.486 1.085-1.085s-0.486-1.085-1.085-1.085zM22.219 4.992l-10.307 10.307c-0.132 0.131-0.235 0.304-0.285 0.505l-1.085 4.34c-0.042 0.163-0.046 0.345 0 0.526 0.145 0.581 0.735 0.935 1.316 0.79l4.34-1.085c0.181-0.045 0.358-0.14 0.505-0.285l10.307-10.307c0.661-0.661 0.992-1.53 0.992-2.394s-0.331-1.734-0.992-2.394c-0.661-0.661-1.531-0.993-2.396-0.993s-1.734 0.331-2.394 0.992z"></path>
</symbol>
<symbol id="icon-filter-by-author" viewBox="0 0 32 32">
<title>filter-by-author</title>
<path d="M18.051 17.897c-0.169 0.194-0.271 0.448-0.271 0.725v7.772l-2.297-1.123v-6.649c0.001-0.255-0.088-0.513-0.271-0.725l-7.589-8.774h8.72c0.184 0 0.36-0.076 0.486-0.211l0.855-0.912c0.399-0.426 0.097-1.123-0.486-1.123h-12.050c-0.634 0-1.148 0.503-1.148 1.123 0 0.277 0.102 0.531 0.271 0.725l8.915 10.308v6.932c0 0.437 0.255 0.816 0.635 1.004l4.593 2.246c0.567 0.277 1.257 0.053 1.541-0.502 0.083-0.164 0.122-0.338 0.121-0.502v-9.178l1.662-1.921c0.267-0.309 0.196-0.783-0.149-1l-0.806-0.508c-0.279-0.175-0.644-0.121-0.859 0.128l-1.873 2.165z"></path>
<path d="M28.561 13.778v-1.17c0-0.807-0.328-1.539-0.856-2.068s-1.261-0.856-2.068-0.856h-4.678c-0.807 0-1.539 0.328-2.068 0.856s-0.856 1.261-0.856 2.068v1.17c0 0.323 0.262 0.585 0.585 0.585s0.585-0.262 0.585-0.585v-1.17c0-0.485 0.196-0.922 0.514-1.24s0.756-0.514 1.24-0.514h4.678c0.485 0 0.922 0.196 1.24 0.514s0.514 0.756 0.514 1.24v1.17c0 0.323 0.262 0.585 0.585 0.585s0.585-0.262 0.585-0.585zM26.222 5.591c0-0.807-0.328-1.539-0.856-2.068s-1.261-0.856-2.068-0.856c-0.807 0-1.539 0.328-2.068 0.856s-0.856 1.261-0.856 2.068 0.328 1.539 0.856 2.068c0.528 0.529 1.261 0.856 2.068 0.856s1.539-0.328 2.068-0.856 0.856-1.261 0.856-2.068zM25.053 5.591c0 0.485-0.196 0.922-0.514 1.24s-0.756 0.514-1.24 0.514c-0.485 0-0.922-0.196-1.24-0.514s-0.514-0.756-0.514-1.24c0-0.485 0.196-0.922 0.514-1.24s0.755-0.514 1.24-0.514c0.485 0 0.922 0.196 1.24 0.514s0.514 0.756 0.514 1.24z"></path>
</symbol>
<symbol id="icon-filter-by-tags" viewBox="0 0 32 32">
<title>filter-by-tags</title>
<path d="M18.051 17.897c-0.169 0.194-0.271 0.448-0.271 0.725v7.772l-2.297-1.123v-6.649c0.001-0.255-0.088-0.513-0.271-0.725l-7.589-8.774h8.72c0.184 0 0.36-0.076 0.486-0.211l0.855-0.912c0.399-0.426 0.097-1.123-0.486-1.123h-12.050c-0.634 0-1.148 0.503-1.148 1.123 0 0.277 0.102 0.531 0.271 0.725l8.915 10.308v6.932c0 0.437 0.255 0.816 0.635 1.004l4.593 2.246c0.567 0.277 1.257 0.053 1.541-0.502 0.083-0.164 0.122-0.338 0.121-0.502v-9.178l1.662-1.921c0.267-0.309 0.196-0.783-0.149-1l-0.806-0.508c-0.279-0.175-0.644-0.121-0.859 0.128l-1.873 2.165z"></path>
<path d="M25.341 10.675v-2.682h-2.682v2.682h2.682zM29.333 7.992h-2.682v2.682h2.682v1.31h-2.682v2.682h-1.31v-2.682h-2.682v2.682h-1.31v-2.682h-2.682v-1.31h2.682v-2.682h-2.682v-1.31h2.682v-2.682h1.31v2.682h2.682v-2.682h1.31v2.682h2.682v1.31z"></path>
</symbol>
<symbol id="icon-delete-trash" viewBox="0 0 32 32">
<title>delete-trash</title>
<path d="M20.688 5.312h4.625v2.688h-18.625v-2.688h4.625l1.375-1.312h6.625l1.375 1.312zM11.251 15.812l2.875 2.875-2.812 2.812 1.875 1.875 2.812-2.812 2.812 2.812 1.875-1.875-2.812-2.812 2.812-2.875-1.875-1.875-2.812 2.875-2.812-2.875-1.937 1.875zM8 25.312v-16h16v16c0 0.708-0.271 1.333-0.812 1.875s-1.166 0.812-1.875 0.812h-10.625c-0.708 0-1.333-0.271-1.875-0.812s-0.812-1.166-0.812-1.875h-0.001z"></path>
</symbol>
<symbol id="icon-close" viewBox="0 0 32 32">
<title>close</title>
<path d="M10.343 23.543l5.657-5.657 5.657 5.657c0.521 0.52 1.365 0.52 1.886 0s0.521-1.365 0-1.886l-5.657-5.657 5.657-5.657c0.521-0.52 0.521-1.365 0-1.886s-1.365-0.52-1.886 0l-5.657 5.657-5.657-5.657c-0.52-0.52-1.365-0.52-1.886 0s-0.52 1.365 0 1.886l5.657 5.657-5.657 5.657c-0.52 0.521-0.52 1.365 0 1.886s1.365 0.52 1.886 0z"></path>
</symbol>
<symbol id="icon-delete-post" viewBox="0 0 32 32">
<title>delete-post</title>
<path d="M9.312 20h10.688v2.688h-10.688v-2.688zM9.312 16h10.688v2.688h-10.688v-2.688zM9.312 12h10.688v2.688h-10.688v-2.688zM22.688 25.625v-9.625h2.625v9.312c0 0.709-0.261 1.333-0.781 1.875s-1.136 0.812-1.844 0.812h-16c-0.708 0-1.333-0.271-1.875-0.812s-0.812-1.166-0.812-1.875v-16c0-0.708 0.271-1.323 0.812-1.844s1.166-0.781 1.875-0.781h9.312v2.625h-9.312v16.312l16 0.001z"></path>
<path d="M24.423 5.338l-2.669-2.669-1.752 1.752 2.669 2.669-2.669 2.669 1.752 1.752 2.669-2.669 2.669 2.669 1.752-1.752-2.669-2.669 2.669-2.669-1.752-1.752-2.669 2.669z"></path>
</symbol>
<symbol id="icon-add-post" viewBox="0 0 32 32">
<title>add-post</title>
<path d="M9.312 20h10.688v2.688h-10.688v-2.688zM9.312 16h10.688v2.688h-10.688v-2.688zM9.312 12h10.688v2.688h-10.688v-2.688zM25.312 2.688v4h4v2.625h-4v4h-2.625v-4h-4v-2.625h4v-4h2.625zM22.688 25.625v-9.625h2.625v9.312c0 0.708-0.261 1.333-0.781 1.875s-1.136 0.812-1.844 0.812h-16c-0.708 0-1.333-0.271-1.875-0.812s-0.812-1.166-0.812-1.875v-16c0-0.708 0.271-1.323 0.812-1.844s1.166-0.781 1.875-0.781h9.312v2.625h-9.312v16.312l16 0.001z"></path>
</symbol>
<symbol id="icon-apllied-tags" viewBox="0 0 32 32">
<title>apllied-tags</title>
<path d="M0 21.973v-3.282h13.282v3.282h-13.282zM20 5.333v3.36h-20v-3.36h20zM13.307 11.973v3.36h-13.307v-3.36h13.307z"></path>
<path d="M25.422 20.783v-4.199h-4.199v4.199h4.199zM31.672 16.583h-4.199v4.199h4.199v2.051h-4.199v4.199h-2.051v-4.199h-4.199v4.199h-2.051v-4.199h-4.199v-2.051h4.199v-4.199h-4.199v-2.051h4.199v-4.199h2.051v4.199h4.199v-4.199h2.051v4.199h4.199v2.051z"></path>
</symbol>
<symbol id="icon-camera" viewBox="0 0 32 32">
<title>camera</title>
<path d="M32 25.333v-14.667c0-1.104-0.449-2.107-1.172-2.828s-1.724-1.172-2.828-1.172h-4.62l-2.271-3.407c-0.243-0.36-0.648-0.593-1.109-0.593h-8c-0.435 0.003-0.853 0.211-1.109 0.593l-2.271 3.407h-4.62c-1.104 0-2.107 0.449-2.828 1.172s-1.172 1.724-1.172 2.828v14.667c0 1.104 0.449 2.107 1.172 2.828s1.724 1.172 2.828 1.172h24c1.104 0 2.107-0.449 2.828-1.172s1.172-1.724 1.172-2.828zM29.333 25.333c0 0.368-0.148 0.7-0.391 0.943s-0.575 0.391-0.943 0.391h-24c-0.368 0-0.7-0.148-0.943-0.391s-0.391-0.575-0.391-0.943v-14.667c0-0.368 0.148-0.7 0.391-0.943s0.575-0.391 0.943-0.391h5.333c0.461 0 0.867-0.233 1.109-0.593l2.271-3.407h6.573l2.271 3.407c0.256 0.383 0.675 0.591 1.109 0.593h5.333c0.368 0 0.7 0.148 0.943 0.391s0.391 0.575 0.391 0.943v14.667zM22.667 17.333c0-1.84-0.748-3.509-1.952-4.715s-2.875-1.952-4.715-1.952c-1.84 0-3.509 0.748-4.715 1.952s-1.952 2.875-1.952 4.715c0 1.84 0.748 3.509 1.952 4.715s2.875 1.952 4.715 1.952c1.84 0 3.509-0.748 4.715-1.952s1.952-2.875 1.952-4.715zM20 17.333c0 1.105-0.447 2.103-1.172 2.828s-1.723 1.172-2.828 1.172c-1.105 0-2.103-0.447-2.828-1.172s-1.172-1.723-1.172-2.828c0-1.105 0.447-2.103 1.172-2.828s1.723-1.172 2.828-1.172c1.105 0 2.103 0.447 2.828 1.172s1.172 1.723 1.172 2.828z"></path>
</symbol>
<symbol id="icon-check" viewBox="0 0 32 32">
<title>check</title>
<path d="M25.724 7.057l-13.724 13.724-5.724-5.724c-0.521-0.521-1.365-0.521-1.885 0s-0.521 1.365 0 1.885l6.667 6.667c0.521 0.521 1.365 0.521 1.885 0l14.667-14.667c0.521-0.521 0.521-1.365 0-1.885s-1.365-0.521-1.885 0z"></path>
</symbol>
<symbol id="icon-chevron-right" viewBox="0 0 32 32">
<title>chevron-right</title>
<path d="M12.943 24.943l8-8c0.521-0.521 0.521-1.365 0-1.885l-8-8c-0.521-0.521-1.365-0.521-1.885 0s-0.521 1.365 0 1.885l7.057 7.057-7.057 7.057c-0.521 0.521-0.521 1.365 0 1.885s1.365 0.521 1.885 0z"></path>
</symbol>
<symbol id="icon-dashboard" viewBox="0 0 32 32">
<title>dashboard</title>
<path d="M17.312 4h10.688v8h-10.688v-8zM17.312 28v-13.312h10.688v13.312h-10.688zM4 28v-8h10.688v8h-10.688zM4 17.312v-13.312h10.688v13.312h-10.688z"></path>
</symbol>
<symbol id="icon-default-view" viewBox="0 0 32 32">
<title>default-view</title>
<path d="M4.015 4.665c0.001-0.367 0.299-0.665 0.667-0.665h22.649c0.369 0 0.668 0.3 0.667 0.669l-0.013 4.121c-0.001 0.367-0.299 0.665-0.667 0.665h-22.649c-0.369 0-0.668-0.3-0.667-0.669l0.013-4.121zM17.758 16c-0.368 0-0.667-0.299-0.667-0.667v-4.121c0-0.368 0.298-0.667 0.667-0.667h9.576c0.368 0 0.667 0.298 0.667 0.667v4.121c0 0.368-0.299 0.667-0.667 0.667h-9.576zM4.667 16c-0.368 0-0.667-0.299-0.667-0.667v-4.121c0-0.368 0.298-0.667 0.667-0.667h9.576c0.368 0 0.667 0.298 0.667 0.667v4.121c0 0.368-0.298 0.667-0.667 0.667h-9.576z"></path>
<path d="M4 17.758c0-0.368 0.298-0.667 0.667-0.667h9.576c0.368 0 0.667 0.298 0.667 0.667v4.121c0 0.368-0.298 0.667-0.667 0.667h-9.576c-0.368 0-0.667-0.299-0.667-0.667v-4.121z"></path>
<path d="M17.091 17.758c0-0.368 0.298-0.667 0.667-0.667h9.576c0.368 0 0.667 0.298 0.667 0.667v4.121c0 0.368-0.299 0.667-0.667 0.667h-9.576c-0.368 0-0.667-0.299-0.667-0.667v-4.121z"></path>
<path d="M4.003 27.331c-0.001 0.369 0.297 0.669 0.667 0.669h22.664c0.368 0 0.667-0.299 0.667-0.667v-3.030c0-0.368-0.299-0.667-0.667-0.667h-22.652c-0.367 0-0.665 0.297-0.667 0.664l-0.012 3.030z"></path>
</symbol>
<symbol id="icon-download-cloud" viewBox="0 0 32 32">
<title>download-cloud</title>
<path d="M14.667 16v8.781l-3.057-3.057c-0.521-0.521-1.365-0.521-1.885 0s-0.521 1.365 0 1.885l5.333 5.333c0.123 0.123 0.269 0.221 0.432 0.289 0.327 0.135 0.695 0.135 1.021 0 0.157-0.065 0.304-0.161 0.432-0.289l5.333-5.333c0.521-0.521 0.521-1.365 0-1.885s-1.365-0.521-1.885 0l-3.057 3.057v-8.781c0-0.736-0.597-1.333-1.333-1.333s-1.333 0.597-1.333 1.333zM28.607 25.211c1.807-1.271 2.928-3.156 3.28-5.171s-0.067-4.168-1.337-5.975c-1.101-1.565-2.664-2.617-4.383-3.099-0.703-0.196-1.429-0.297-2.161-0.3h-0.697c-0.963-2.744-2.849-4.947-5.209-6.344-2.641-1.563-5.883-2.119-9.092-1.296s-5.784 2.873-7.347 5.515c-1.563 2.641-2.119 5.883-1.296 9.092 0.495 1.928 1.433 3.633 2.644 4.979 0.493 0.547 1.336 0.592 1.883 0.099s0.592-1.336 0.099-1.883c-0.923-1.025-1.656-2.347-2.044-3.857-0.641-2.497-0.209-5.015 1.008-7.072s3.216-3.648 5.713-4.288c2.497-0.64 5.015-0.209 7.072 1.008s3.648 3.216 4.288 5.713c0.155 0.58 0.675 1.001 1.293 1.001h1.675c0.493 0.001 0.983 0.069 1.453 0.201 1.148 0.321 2.185 1.020 2.92 2.064 0.848 1.205 1.127 2.637 0.892 3.984s-0.981 2.6-2.187 3.447c-0.603 0.424-0.747 1.255-0.324 1.857s1.255 0.747 1.857 0.324z"></path>
</symbol>
<symbol id="icon-edit-post" viewBox="0 0 32 32">
<title>edit-post</title>
<path d="M9.312 20h10.688v2.688h-10.688v-2.688zM9.312 16h10.688v2.688h-10.688v-2.688zM9.312 12h10.688v2.688h-10.688v-2.688zM22.688 25.625v-9.625h2.625v9.312c0 0.708-0.261 1.333-0.781 1.875s-1.136 0.812-1.844 0.812h-16c-0.708 0-1.333-0.271-1.875-0.812s-0.812-1.166-0.812-1.875v-16c0-0.708 0.271-1.323 0.812-1.844s1.166-0.781 1.875-0.781h9.312v2.625h-9.312v16.312l16 0.001z"></path>
<path d="M18.044 6.811l7.389 7.389c0.094 0.095 0.218 0.169 0.362 0.205l3.111 0.778c0.117 0.030 0.247 0.033 0.377 0 0.417-0.104 0.671-0.527 0.566-0.943l-0.778-3.111c-0.032-0.13-0.1-0.257-0.205-0.362l-7.389-7.389c-0.474-0.474-1.097-0.711-1.717-0.711s-1.243 0.237-1.717 0.711c-0.474 0.474-0.712 1.097-0.712 1.717s0.237 1.243 0.711 1.717z"></path>
</symbol>
<symbol id="icon-heart" viewBox="0 0 32 32">
<title>heart</title>
<path d="M26.844 7.089c1.173 1.175 1.759 2.708 1.759 4.245s-0.587 3.071-1.759 4.243l-10.844 10.844-10.844-10.844c-1.172-1.172-1.757-2.705-1.757-4.244s0.585-3.072 1.757-4.244c1.172-1.172 2.705-1.757 4.244-1.757s3.072 0.585 4.244 1.757l1.413 1.413c0.521 0.521 1.365 0.521 1.885 0l1.416-1.416c1.172-1.172 2.705-1.757 4.243-1.756s3.071 0.587 4.243 1.759zM28.729 5.204c-1.692-1.692-3.912-2.539-6.128-2.54s-4.436 0.845-6.129 2.537l-0.472 0.473-0.471-0.471c-1.692-1.692-3.913-2.539-6.129-2.539s-4.437 0.847-6.129 2.539c-1.692 1.692-2.539 3.913-2.539 6.129s0.847 4.437 2.539 6.129l11.787 11.787c0.521 0.521 1.365 0.521 1.885 0l11.787-11.787c1.692-1.692 2.539-3.912 2.54-6.128s-0.845-4.436-2.54-6.131z"></path>
</symbol>
<symbol id="icon-key" viewBox="0 0 32 32">
<title>key</title>
<path d="M25.333 7.219l2.115 2.115-2.781 2.781-2.115-2.115 2.781-2.781zM14.251 16.431c1.179 1.164 1.775 2.693 1.785 4.229 0.011 1.537-0.565 3.075-1.729 4.255s-2.693 1.776-4.231 1.785c-1.537 0.009-3.075-0.565-4.255-1.729l-0.056-0.056c-1.165-1.18-1.74-2.717-1.729-4.255s0.607-3.067 1.785-4.231c1.172-1.156 2.697-1.732 4.225-1.728 1.521 0.003 3.037 0.58 4.203 1.728l0.001 0.001zM24.391 4.391c-0.521 0.521-0.521 1.365 0 1.885l0.943 0.943 1.885-1.885-0.943-0.943c-0.521-0.521-1.365-0.521-1.885 0zM24.391 4.391c-0.521 0.521-0.521 1.365 0 1.885s1.365 0.521 1.885 0c0.52-0.521 0.521-1.365 0-1.885s-1.365-0.521-1.885 0l-4.667 4.667c-0.521 0.521-0.521 1.365 0 1.885l0.943 0.943 1.885-1.885-0.943-0.943c-0.521-0.521-1.365-0.521-1.885 0s-0.521 1.365 0 1.885c0.521 0.52 1.365 0.521 1.885 0s0.521-1.365 0-1.885c-0.521-0.52-1.365-0.521-1.885 0l-4.615 4.615c-1.505-1.088-3.283-1.635-5.057-1.639-2.203-0.004-4.411 0.827-6.103 2.497-1.703 1.68-2.564 3.895-2.58 6.111s0.817 4.443 2.497 6.145l0.083 0.083c1.703 1.68 3.929 2.512 6.145 2.497s4.431-0.876 6.111-2.58c1.68-1.704 2.512-3.929 2.497-6.145-0.012-1.793-0.579-3.585-1.697-5.095l3.661-3.661 3.057 3.057c0.521 0.521 1.365 0.521 1.885 0l4.667-4.667c0.521-0.521 0.521-1.365 0-1.885l-3.057-3.057 1.724-1.724c0.521-0.521 0.521-1.365 0-1.885s-1.365-0.521-1.885 0l-2.667 2.667z"></path>
</symbol>
<symbol id="icon-list-view" viewBox="0 0 32 32">
<title>list-view</title>
<path d="M4.015 4.665c0.001-0.367 0.299-0.665 0.667-0.665h22.649c0.369 0 0.668 0.3 0.667 0.669l-0.010 3.030c-0.001 0.367-0.299 0.665-0.667 0.665h-22.649c-0.369 0-0.668-0.3-0.667-0.669l0.010-3.030zM4.667 14.909c-0.368 0-0.667-0.298-0.667-0.667v-3.030c0-0.368 0.298-0.667 0.667-0.667h22.649c0.368 0 0.667 0.298 0.667 0.667v3.030c0 0.368-0.299 0.667-0.667 0.667h-22.649z"></path>
<path d="M4 17.758c0-0.368 0.298-0.667 0.667-0.667h22.649c0.368 0 0.667 0.298 0.667 0.667v3.030c0 0.368-0.299 0.667-0.667 0.667h-22.649c-0.368 0-0.667-0.298-0.667-0.667v-3.030z"></path>
<path d="M4.003 27.331c-0.001 0.369 0.297 0.669 0.667 0.669h22.664c0.368 0 0.667-0.299 0.667-0.667v-3.030c0-0.368-0.299-0.667-0.667-0.667h-22.652c-0.367 0-0.665 0.297-0.667 0.664l-0.012 3.030z"></path>
</symbol>
<symbol id="icon-log-in" viewBox="0 0 32 32">
<title>log-in</title>
<path d="M20 5.333h5.333c0.368 0 0.7 0.148 0.943 0.391s0.391 0.575 0.391 0.943v18.667c0 0.368-0.148 0.7-0.391 0.943s-0.575 0.391-0.943 0.391h-5.333c-0.736 0-1.333 0.597-1.333 1.333s0.597 1.333 1.333 1.333h5.333c1.104 0 2.107-0.449 2.828-1.172s1.172-1.724 1.172-2.828v-18.667c0-1.104-0.449-2.107-1.172-2.828s-1.724-1.172-2.828-1.172h-5.333c-0.736 0-1.333 0.597-1.333 1.333s0.597 1.333 1.333 1.333zM16.781 14.667h-12.781c-0.736 0-1.333 0.597-1.333 1.333s0.597 1.333 1.333 1.333h12.781l-4.391 4.391c-0.521 0.521-0.521 1.365 0 1.885s1.365 0.521 1.885 0l6.667-6.667c0.128-0.128 0.224-0.275 0.289-0.432s0.101-0.329 0.101-0.511c0-0.173-0.033-0.348-0.101-0.511-0.065-0.157-0.161-0.304-0.289-0.432l-6.667-6.667c-0.521-0.521-1.365-0.521-1.885 0s-0.521 1.365 0 1.885l4.391 4.391z"></path>
</symbol>
<symbol id="icon-log-out" viewBox="0 0 32 32">
<title>log-out</title>
<path d="M12 26.667h-5.333c-0.368 0-0.7-0.148-0.943-0.391s-0.391-0.575-0.391-0.943v-18.667c0-0.368 0.148-0.7 0.391-0.943s0.575-0.391 0.943-0.391h5.333c0.736 0 1.333-0.597 1.333-1.333s-0.597-1.333-1.333-1.333h-5.333c-1.104 0-2.107 0.449-2.828 1.172s-1.172 1.724-1.172 2.828v18.667c0 1.104 0.449 2.107 1.172 2.828s1.724 1.172 2.828 1.172h5.333c0.736 0 1.333-0.597 1.333-1.333s-0.597-1.333-1.333-1.333zM24.781 14.667h-12.781c-0.736 0-1.333 0.597-1.333 1.333s0.597 1.333 1.333 1.333h12.781l-4.391 4.391c-0.521 0.521-0.521 1.365 0 1.885s1.365 0.521 1.885 0l6.667-6.667c0.128-0.128 0.224-0.275 0.289-0.432 0.2-0.483 0.104-1.060-0.289-1.453l-6.667-6.667c-0.521-0.521-1.365-0.521-1.885 0s-0.521 1.365 0 1.885l4.391 4.391z"></path>
</symbol>
<symbol id="icon-mail" viewBox="0 0 32 32">
<title>mail</title>
<path d="M4 10.561l11.236 7.865c0.453 0.313 1.060 0.328 1.529 0l11.235-7.865v13.439c0 0.363-0.147 0.695-0.393 0.94s-0.577 0.393-0.94 0.393h-21.333c-0.363 0-0.695-0.147-0.94-0.393s-0.393-0.577-0.393-0.94v-13.439zM1.333 8.016v15.984c0 1.104 0.453 2.105 1.173 2.827s1.723 1.173 2.827 1.173h21.333c1.104 0 2.105-0.453 2.827-1.173s1.173-1.723 1.173-2.827v-15.984c0-0.013 0-0.027 0-0.040-0.007-1.095-0.457-2.087-1.173-2.803-0.721-0.72-1.723-1.173-2.827-1.173h-21.333c-1.104 0-2.105 0.453-2.827 1.173-0.716 0.716-1.167 1.708-1.173 2.804 0 0.007 0 0.015 0 0.023v0.016zM27.859 7.405l-11.859 8.3-11.859-8.3c0.064-0.128 0.149-0.244 0.251-0.345 0.247-0.247 0.579-0.393 0.941-0.393h21.333c0.363 0 0.695 0.147 0.94 0.393 0.101 0.101 0.187 0.219 0.251 0.345h0.001z"></path>
</symbol>
<symbol id="icon-menu" viewBox="0 0 32 32">
<title>menu</title>
<path d="M4 17.333h24c0.736 0 1.333-0.597 1.333-1.333s-0.597-1.333-1.333-1.333h-24c-0.736 0-1.333 0.597-1.333 1.333s0.597 1.333 1.333 1.333zM4 9.333h24c0.736 0 1.333-0.597 1.333-1.333s-0.597-1.333-1.333-1.333h-24c-0.736 0-1.333 0.597-1.333 1.333s0.597 1.333 1.333 1.333zM4 25.333h24c0.736 0 1.333-0.597 1.333-1.333s-0.597-1.333-1.333-1.333h-24c-0.736 0-1.333 0.597-1.333 1.333s0.597 1.333 1.333 1.333z"></path>
</symbol>
<symbol id="icon-newspaper" viewBox="0 0 32 32">
<title>newspaper</title>
<path d="M28 8v-4h-28v22c0 1.105 0.895 2 2 2h27c1.657 0 3-1.343 3-3v-17h-4zM26 26h-24v-20h24v20zM4 10h20v2h-20v-2zM16 14h8v2h-8v-2zM16 18h8v2h-8v-2zM16 22h6v2h-6v-2zM4 14h10v10h-10v-10z"></path>
</symbol>
<symbol id="icon-plus" viewBox="0 0 32 32">
<title>plus</title>
<path d="M6.667 17.333h8v8c0 0.736 0.597 1.333 1.333 1.333s1.333-0.597 1.333-1.333v-8h8c0.736 0 1.333-0.597 1.333-1.333s-0.597-1.333-1.333-1.333h-8v-8c0-0.736-0.597-1.333-1.333-1.333s-1.333 0.597-1.333 1.333v8h-8c-0.736 0-1.333 0.597-1.333 1.333s0.597 1.333 1.333 1.333z"></path>
</symbol>
<symbol id="icon-send" viewBox="0 0 32 32">
<title>send</title>
<path d="M30.617 3.025c0.057-0.201 0.067-0.419 0.020-0.635-0.032-0.151-0.091-0.299-0.175-0.433-0.085-0.136-0.193-0.253-0.317-0.349-0.156-0.12-0.332-0.2-0.515-0.241s-0.376-0.045-0.568-0.005c-0.056 0.012-0.113 0.028-0.168 0.047l-0.028 0.009-26.64 9.324c-0.336 0.117-0.623 0.368-0.779 0.717-0.299 0.673 0.004 1.461 0.677 1.76l11.532 5.125 5.125 11.532c0.144 0.324 0.417 0.591 0.777 0.717 0.695 0.243 1.456-0.123 1.699-0.819l9.324-26.639c0.013-0.036 0.025-0.072 0.036-0.109l-0.001-0.001zM14.372 15.743l-8.091-3.595 17.977-6.293-9.887 9.888zM26.145 7.741l-6.293 17.977-3.595-8.091 9.888-9.887z"></path>
</symbol>
<symbol id="icon-star" viewBox="0 0 32 32">
<title>star</title>
<path d="M17.196 2.076c-0.123-0.252-0.331-0.469-0.605-0.605-0.66-0.325-1.46-0.055-1.785 0.605l-3.811 7.719-8.521 1.247c-0.277 0.039-0.548 0.169-0.761 0.388-0.515 0.528-0.503 1.372 0.024 1.885l6.164 6.004-1.455 8.483c-0.048 0.276-0.008 0.575 0.135 0.845 0.343 0.652 1.149 0.903 1.801 0.56l7.619-4.007 7.62 4.007c0.248 0.132 0.544 0.185 0.845 0.135 0.725-0.124 1.213-0.813 1.089-1.54l-1.455-8.483 6.164-6.004c0.201-0.195 0.345-0.459 0.389-0.763 0.107-0.728-0.397-1.405-1.127-1.512l-8.52-1.245-3.811-7.719zM16 5.679l2.924 5.925c0.201 0.407 0.581 0.665 1.003 0.729l6.541 0.956-4.732 4.609c-0.325 0.317-0.455 0.759-0.384 1.18l1.116 6.511-5.848-3.076c-0.401-0.211-0.863-0.197-1.241 0l-5.848 3.076 1.116-6.511c0.077-0.448-0.079-0.881-0.384-1.18l-4.732-4.609 6.543-0.957c0.448-0.065 0.812-0.347 1.003-0.728l2.924-5.925z"></path>
</symbol>
<symbol id="icon-tag" viewBox="0 0 32 32">
<title>tag</title>
<path d="M18.688 18.688v-5.375h-5.375v5.375h5.375zM26.688 13.312h-5.375v5.375h5.375v2.625h-5.375v5.375h-2.625v-5.375h-5.375v5.375h-2.625v-5.375h-5.375v-2.625h5.375v-5.375h-5.375v-2.625h5.375v-5.375h2.625v5.375h5.375v-5.375h2.625v5.375h5.375v2.625z"></path>
</symbol>
<symbol id="icon-th-small" viewBox="0 0 32 32">
<title>th-small</title>
<path d="M10 25.333c0 1.841-1.492 3.333-3.333 3.333s-3.333-1.492-3.333-3.333c0-1.841 1.492-3.333 3.333-3.333s3.333 1.492 3.333 3.333z"></path>
<path d="M10 16c0 1.841-1.492 3.333-3.333 3.333s-3.333-1.492-3.333-3.333c0-1.841 1.492-3.333 3.333-3.333s3.333 1.492 3.333 3.333z"></path>
<path d="M10 6.667c0 1.841-1.492 3.333-3.333 3.333s-3.333-1.492-3.333-3.333c0-1.841 1.492-3.333 3.333-3.333s3.333 1.492 3.333 3.333z"></path>
<path d="M19.333 25.333c0 1.841-1.492 3.333-3.333 3.333s-3.333-1.492-3.333-3.333c0-1.841 1.492-3.333 3.333-3.333s3.333 1.492 3.333 3.333z"></path>
<path d="M19.333 16c0 1.841-1.492 3.333-3.333 3.333s-3.333-1.492-3.333-3.333c0-1.841 1.492-3.333 3.333-3.333s3.333 1.492 3.333 3.333z"></path>
<path d="M19.333 6.667c0 1.841-1.492 3.333-3.333 3.333s-3.333-1.492-3.333-3.333c0-1.841 1.492-3.333 3.333-3.333s3.333 1.492 3.333 3.333z"></path>
<path d="M28.667 25.333c0 1.841-1.492 3.333-3.333 3.333s-3.333-1.492-3.333-3.333c0-1.841 1.492-3.333 3.333-3.333s3.333 1.492 3.333 3.333z"></path>
<path d="M28.667 16c0 1.841-1.492 3.333-3.333 3.333s-3.333-1.492-3.333-3.333c0-1.841 1.492-3.333 3.333-3.333s3.333 1.492 3.333 3.333z"></path>
<path d="M28.667 6.667c0 1.841-1.492 3.333-3.333 3.333s-3.333-1.492-3.333-3.333c0-1.841 1.492-3.333 3.333-3.333s3.333 1.492 3.333 3.333z"></path>
</symbol>
<symbol id="icon-tile-view" viewBox="0 0 32 32">
<title>tile-view</title>
<path d="M4.016 4.666c0.001-0.368 0.299-0.666 0.667-0.666h9.558c0.369 0 0.667 0.299 0.667 0.668l-0.015 9.576c-0.001 0.368-0.299 0.666-0.667 0.666h-9.558c-0.369 0-0.667-0.299-0.667-0.668l0.015-9.576z"></path>
<path d="M4 27.333c0 0.368 0.298 0.667 0.667 0.667h9.592c0.369 0 0.667-0.299 0.667-0.668l-0.015-9.576c-0.001-0.368-0.299-0.666-0.667-0.666h-9.577c-0.368 0-0.667 0.298-0.667 0.667v9.576z"></path>
<path d="M17.091 4.667c0-0.368 0.298-0.667 0.667-0.667h9.576c0.368 0 0.667 0.298 0.667 0.667v9.576c0 0.368-0.299 0.667-0.667 0.667h-9.576c-0.368 0-0.667-0.298-0.667-0.667v-9.576z"></path>
<path d="M17.091 17.758c0-0.368 0.298-0.667 0.667-0.667h9.576c0.368 0 0.667 0.298 0.667 0.667v9.576c0 0.368-0.299 0.667-0.667 0.667h-9.576c-0.368 0-0.667-0.299-0.667-0.667v-9.576z"></path>
</symbol>
<symbol id="icon-user" viewBox="0 0 32 32">
<title>user</title>
<path d="M28 28v-2.667c0-1.84-0.748-3.509-1.952-4.715s-2.875-1.952-4.715-1.952h-10.667c-1.84 0-3.509 0.748-4.715 1.952s-1.952 2.875-1.952 4.715v2.667c0 0.736 0.597 1.333 1.333 1.333s1.333-0.597 1.333-1.333v-2.667c0-1.105 0.447-2.103 1.172-2.828s1.723-1.172 2.828-1.172h10.667c1.105 0 2.103 0.447 2.828 1.172s1.172 1.723 1.172 2.828v2.667c0 0.736 0.597 1.333 1.333 1.333s1.333-0.597 1.333-1.333zM22.667 9.333c0-1.84-0.748-3.509-1.952-4.715s-2.875-1.952-4.715-1.952c-1.84 0-3.509 0.748-4.715 1.952s-1.952 2.875-1.952 4.715c0 1.84 0.748 3.509 1.952 4.715s2.875 1.952 4.715 1.952c1.84 0 3.509-0.748 4.715-1.952s1.952-2.875 1.952-4.715zM20 9.333c0 1.105-0.447 2.103-1.172 2.828s-1.723 1.172-2.828 1.172c-1.105 0-2.103-0.447-2.828-1.172s-1.172-1.723-1.172-2.828c0-1.105 0.447-2.103 1.172-2.828s1.723-1.172 2.828-1.172c1.105 0 2.103 0.447 2.828 1.172s1.172 1.723 1.172 2.828z"></path>
</symbol>
<symbol id="icon-user-plus" viewBox="0 0 32 32">
<title>user-plus</title>
<path d="M22.667 28v-2.667c0-1.84-0.748-3.509-1.952-4.715s-2.875-1.952-4.715-1.952h-9.333c-1.84 0-3.509 0.748-4.715 1.952s-1.952 2.875-1.952 4.715v2.667c0 0.736 0.597 1.333 1.333 1.333s1.333-0.597 1.333-1.333v-2.667c0-1.105 0.447-2.103 1.172-2.828s1.723-1.172 2.828-1.172h9.333c1.105 0 2.103 0.447 2.828 1.172s1.172 1.723 1.172 2.828v2.667c0 0.736 0.597 1.333 1.333 1.333s1.333-0.597 1.333-1.333zM18 9.333c0-1.84-0.748-3.509-1.952-4.715s-2.875-1.952-4.715-1.952c-1.84 0-3.509 0.748-4.715 1.952s-1.952 2.875-1.952 4.715c0 1.84 0.748 3.509 1.952 4.715s2.875 1.952 4.715 1.952c1.84 0 3.509-0.748 4.715-1.952s1.952-2.875 1.952-4.715zM15.333 9.333c0 1.105-0.447 2.103-1.172 2.828s-1.723 1.172-2.828 1.172c-1.105 0-2.103-0.447-2.828-1.172s-1.172-1.723-1.172-2.828c0-1.105 0.447-2.103 1.172-2.828s1.723-1.172 2.828-1.172c1.105 0 2.103 0.447 2.828 1.172s1.172 1.723 1.172 2.828zM30.667 13.333h-2.667v-2.667c0-0.736-0.597-1.333-1.333-1.333s-1.333 0.597-1.333 1.333v2.667h-2.667c-0.736 0-1.333 0.597-1.333 1.333s0.597 1.333 1.333 1.333h2.667v2.667c0 0.736 0.597 1.333 1.333 1.333s1.333-0.597 1.333-1.333v-2.667h2.667c0.736 0 1.333-0.597 1.333-1.333s-0.597-1.333-1.333-1.333z"></path>
</symbol>
</defs>
</svg>
