<!-- Generated by IcoMoon.io -->
<svg version="1.1" xmlns="http://www.w3.org/2000/svg" width="32" height="32" viewBox="0 0 32 32">
<title>add-post</title>
<path d="M9.312 20h10.688v2.688h-10.688v-2.688zM9.312 16h10.688v2.688h-10.688v-2.688zM9.312 12h10.688v2.688h-10.688v-2.688zM25.312 2.688v4h4v2.625h-4v4h-2.625v-4h-4v-2.625h4v-4h2.625zM22.688 25.625v-9.625h2.625v9.312c0 0.708-0.261 1.333-0.781 1.875s-1.136 0.812-1.844 0.812h-16c-0.708 0-1.333-0.271-1.875-0.812s-0.812-1.166-0.812-1.875v-16c0-0.708 0.271-1.323 0.812-1.844s1.166-0.781 1.875-0.781h9.312v2.625h-9.312v16.312l16 0.001z"></path>
</svg>
