<!-- Generated by IcoMoon.io -->
<svg version="1.1" xmlns="http://www.w3.org/2000/svg" width="24" height="24" viewBox="0 0 24 24">
<title>add-post</title>
<path d="M6.984 15h8.016v2.016h-8.016v-2.016zM6.984 12h8.016v2.016h-8.016v-2.016zM6.984 9h8.016v2.016h-8.016v-2.016zM18.984 2.016v3h3v1.969h-3v3h-1.969v-3h-3v-1.969h3v-3h1.969zM17.016 19.219v-7.219h1.969v6.984c0 0.531-0.196 1-0.586 1.406s-0.852 0.609-1.383 0.609h-12c-0.531 0-1-0.203-1.406-0.609s-0.609-0.875-0.609-1.406v-12c0-0.531 0.203-0.992 0.609-1.383s0.875-0.586 1.406-0.586h6.984v1.969h-6.984v12.234l12 0.001z"></path>
</svg>
