<!-- Generated by IcoMoon.io -->
<svg version="1.1" xmlns="http://www.w3.org/2000/svg" width="32" height="32" viewBox="0 0 32 32">
<title>camera</title>
<path d="M32 25.333v-14.667c0-1.104-0.449-2.107-1.172-2.828s-1.724-1.172-2.828-1.172h-4.62l-2.271-3.407c-0.243-0.36-0.648-0.593-1.109-0.593h-8c-0.435 0.003-0.853 0.211-1.109 0.593l-2.271 3.407h-4.62c-1.104 0-2.107 0.449-2.828 1.172s-1.172 1.724-1.172 2.828v14.667c0 1.104 0.449 2.107 1.172 2.828s1.724 1.172 2.828 1.172h24c1.104 0 2.107-0.449 2.828-1.172s1.172-1.724 1.172-2.828zM29.333 25.333c0 0.368-0.148 0.7-0.391 0.943s-0.575 0.391-0.943 0.391h-24c-0.368 0-0.7-0.148-0.943-0.391s-0.391-0.575-0.391-0.943v-14.667c0-0.368 0.148-0.7 0.391-0.943s0.575-0.391 0.943-0.391h5.333c0.461 0 0.867-0.233 1.109-0.593l2.271-3.407h6.573l2.271 3.407c0.256 0.383 0.675 0.591 1.109 0.593h5.333c0.368 0 0.7 0.148 0.943 0.391s0.391 0.575 0.391 0.943v14.667zM22.667 17.333c0-1.84-0.748-3.509-1.952-4.715s-2.875-1.952-4.715-1.952c-1.84 0-3.509 0.748-4.715 1.952s-1.952 2.875-1.952 4.715c0 1.84 0.748 3.509 1.952 4.715s2.875 1.952 4.715 1.952c1.84 0 3.509-0.748 4.715-1.952s1.952-2.875 1.952-4.715zM20 17.333c0 1.105-0.447 2.103-1.172 2.828s-1.723 1.172-2.828 1.172c-1.105 0-2.103-0.447-2.828-1.172s-1.172-1.723-1.172-2.828c0-1.105 0.447-2.103 1.172-2.828s1.723-1.172 2.828-1.172c1.105 0 2.103 0.447 2.828 1.172s1.172 1.723 1.172 2.828z"></path>
</svg>
