<!-- Generated by IcoMoon.io -->
<svg version="1.1" xmlns="http://www.w3.org/2000/svg" width="24" height="24" viewBox="0 0 24 24">
<title>delete-trash</title>
<path opacity="0.73" fill="#000" d="M15.516 3.984h3.469v2.016h-13.969v-2.016h3.469l1.031-0.984h4.969l1.031 0.984zM8.438 11.859l2.156 2.156-2.109 2.109 1.406 1.406 2.109-2.109 2.109 2.109 1.406-1.406-2.109-2.109 2.109-2.156-1.406-1.406-2.109 2.156-2.109-2.156-1.453 1.406zM6 18.984v-12h12v12c0 0.531-0.203 1-0.609 1.406s-0.874 0.609-1.406 0.609h-7.969c-0.531 0-1-0.203-1.406-0.609s-0.609-0.875-0.609-1.406h-0.001z"></path>
</svg>
