<!-- Generated by IcoMoon.io -->
<svg version="1.1" xmlns="http://www.w3.org/2000/svg" width="32" height="32" viewBox="0 0 32 32">
<title>delete-trash</title>
<path opacity="0.73" fill="#000" d="M20.688 5.312h4.625v2.688h-18.625v-2.688h4.625l1.375-1.312h6.625l1.375 1.312zM11.251 15.812l2.875 2.875-2.812 2.812 1.875 1.875 2.812-2.812 2.812 2.812 1.875-1.875-2.812-2.812 2.812-2.875-1.875-1.875-2.812 2.875-2.812-2.875-1.937 1.875zM8 25.312v-16h16v16c0 0.708-0.271 1.333-0.812 1.875s-1.166 0.812-1.875 0.812h-10.625c-0.708 0-1.333-0.271-1.875-0.812s-0.812-1.166-0.812-1.875h-0.001z"></path>
</svg>
