<!-- Generated by IcoMoon.io -->
<svg version="1.1" xmlns="http://www.w3.org/2000/svg" width="32" height="32" viewBox="0 0 32 32">
<title>download-cloud</title>
<path d="M14.667 16v8.781l-3.057-3.057c-0.521-0.521-1.365-0.521-1.885 0s-0.521 1.365 0 1.885l5.333 5.333c0.123 0.123 0.269 0.221 0.432 0.289 0.327 0.135 0.695 0.135 1.021 0 0.157-0.065 0.304-0.161 0.432-0.289l5.333-5.333c0.521-0.521 0.521-1.365 0-1.885s-1.365-0.521-1.885 0l-3.057 3.057v-8.781c0-0.736-0.597-1.333-1.333-1.333s-1.333 0.597-1.333 1.333zM28.607 25.211c1.807-1.271 2.928-3.156 3.28-5.171s-0.067-4.168-1.337-5.975c-1.101-1.565-2.664-2.617-4.383-3.099-0.703-0.196-1.429-0.297-2.161-0.3h-0.697c-0.963-2.744-2.849-4.947-5.209-6.344-2.641-1.563-5.883-2.119-9.092-1.296s-5.784 2.873-7.347 5.515c-1.563 2.641-2.119 5.883-1.296 9.092 0.495 1.928 1.433 3.633 2.644 4.979 0.493 0.547 1.336 0.592 1.883 0.099s0.592-1.336 0.099-1.883c-0.923-1.025-1.656-2.347-2.044-3.857-0.641-2.497-0.209-5.015 1.008-7.072s3.216-3.648 5.713-4.288c2.497-0.64 5.015-0.209 7.072 1.008s3.648 3.216 4.288 5.713c0.155 0.58 0.675 1.001 1.293 1.001h1.675c0.493 0.001 0.983 0.069 1.453 0.201 1.148 0.321 2.185 1.020 2.92 2.064 0.848 1.205 1.127 2.637 0.892 3.984s-0.981 2.6-2.187 3.447c-0.603 0.424-0.747 1.255-0.324 1.857s1.255 0.747 1.857 0.324z"></path>
</svg>
