<!-- Generated by IcoMoon.io -->
<svg version="1.1" xmlns="http://www.w3.org/2000/svg" width="24" height="24" viewBox="0 0 24 24">
<title>edit</title>
<path d="M11.137 4.726h-5.696c-0.673 0-1.285 0.274-1.726 0.716s-0.716 1.052-0.716 1.726v11.392c0 0.674 0.274 1.285 0.716 1.726s1.052 0.715 1.726 0.715h11.392c0.673 0 1.285-0.274 1.726-0.715s0.715-1.052 0.715-1.726v-5.696c0-0.449-0.364-0.814-0.814-0.814s-0.814 0.364-0.814 0.814v5.696c0 0.224-0.090 0.428-0.239 0.575s-0.351 0.239-0.575 0.239h-11.392c-0.224 0-0.428-0.090-0.575-0.239s-0.238-0.351-0.238-0.575v-11.392c0-0.224 0.090-0.428 0.238-0.575s0.351-0.238 0.575-0.238h5.696c0.449 0 0.814-0.365 0.814-0.814s-0.364-0.814-0.814-0.814zM16.664 3.744l-7.73 7.73c-0.099 0.098-0.176 0.228-0.214 0.379l-0.814 3.255c-0.031 0.122-0.034 0.259 0 0.394 0.109 0.436 0.551 0.701 0.987 0.593l3.255-0.814c0.136-0.034 0.269-0.105 0.379-0.214l7.73-7.73c0.496-0.496 0.744-1.147 0.744-1.796s-0.248-1.3-0.744-1.796c-0.496-0.496-1.148-0.745-1.797-0.745s-1.3 0.248-1.795 0.744z"></path>
</svg>
