<!-- Generated by IcoMoon.io -->
<svg version="1.1" xmlns="http://www.w3.org/2000/svg" width="24" height="24" viewBox="0 0 24 24">
<title>edit-post</title>
<path d="M6.984 15h8.016v2.016h-8.016v-2.016zM6.984 12h8.016v2.016h-8.016v-2.016zM6.984 9h8.016v2.016h-8.016v-2.016zM17.016 19.219v-7.219h1.969v6.984c0 0.531-0.196 1-0.586 1.406s-0.852 0.609-1.383 0.609h-12c-0.531 0-1-0.203-1.406-0.609s-0.609-0.875-0.609-1.406v-12c0-0.531 0.203-0.992 0.609-1.383s0.875-0.586 1.406-0.586h6.984v1.969h-6.984v12.234l12 0.001z"></path>
<path d="M13.533 5.108l5.542 5.542c0.070 0.071 0.163 0.127 0.271 0.154l2.333 0.584c0.088 0.022 0.185 0.025 0.283 0 0.313-0.078 0.503-0.395 0.425-0.707l-0.584-2.333c-0.024-0.098-0.075-0.193-0.154-0.271l-5.542-5.542c-0.355-0.356-0.823-0.533-1.288-0.533s-0.932 0.178-1.288 0.533c-0.355 0.356-0.534 0.823-0.534 1.288s0.178 0.932 0.533 1.288z"></path>
</svg>
