<!-- Generated by IcoMoon.io -->
<svg version="1.1" xmlns="http://www.w3.org/2000/svg" width="32" height="32" viewBox="0 0 32 32">
<title>edit-post</title>
<path d="M9.312 20h10.688v2.688h-10.688v-2.688zM9.312 16h10.688v2.688h-10.688v-2.688zM9.312 12h10.688v2.688h-10.688v-2.688zM22.688 25.625v-9.625h2.625v9.312c0 0.708-0.261 1.333-0.781 1.875s-1.136 0.812-1.844 0.812h-16c-0.708 0-1.333-0.271-1.875-0.812s-0.812-1.166-0.812-1.875v-16c0-0.708 0.271-1.323 0.812-1.844s1.166-0.781 1.875-0.781h9.312v2.625h-9.312v16.312l16 0.001z"></path>
<path d="M18.044 6.811l7.389 7.389c0.094 0.095 0.218 0.169 0.362 0.205l3.111 0.778c0.117 0.030 0.247 0.033 0.377 0 0.417-0.104 0.671-0.527 0.566-0.943l-0.778-3.111c-0.032-0.13-0.1-0.257-0.205-0.362l-7.389-7.389c-0.474-0.474-1.097-0.711-1.717-0.711s-1.243 0.237-1.717 0.711c-0.474 0.474-0.712 1.097-0.712 1.717s0.237 1.243 0.711 1.717z"></path>
</svg>
