<!-- Generated by IcoMoon.io -->
<svg version="1.1" xmlns="http://www.w3.org/2000/svg" width="32" height="32" viewBox="0 0 32 32">
<title>edit</title>
<path d="M14.849 6.301h-7.595c-0.898 0-1.714 0.366-2.301 0.954s-0.954 1.403-0.954 2.301v15.189c0 0.898 0.366 1.714 0.954 2.301s1.403 0.954 2.301 0.954h15.189c0.898 0 1.714-0.366 2.301-0.954s0.954-1.403 0.954-2.301v-7.595c0-0.599-0.486-1.085-1.085-1.085s-1.085 0.486-1.085 1.085v7.595c0 0.299-0.12 0.57-0.318 0.767s-0.468 0.318-0.767 0.318h-15.189c-0.299 0-0.57-0.12-0.767-0.318s-0.318-0.468-0.318-0.767v-15.189c0-0.299 0.12-0.57 0.318-0.767s0.468-0.318 0.767-0.318h7.595c0.599 0 1.085-0.486 1.085-1.085s-0.486-1.085-1.085-1.085zM22.219 4.992l-10.307 10.307c-0.132 0.131-0.235 0.304-0.285 0.505l-1.085 4.34c-0.042 0.163-0.046 0.345 0 0.526 0.145 0.581 0.735 0.935 1.316 0.79l4.34-1.085c0.181-0.045 0.358-0.14 0.505-0.285l10.307-10.307c0.661-0.661 0.992-1.53 0.992-2.394s-0.331-1.734-0.992-2.394c-0.661-0.661-1.531-0.993-2.396-0.993s-1.734 0.331-2.394 0.992z"></path>
</svg>
