<!-- Generated by IcoMoon.io -->
<svg version="1.1" xmlns="http://www.w3.org/2000/svg" width="24" height="24" viewBox="0 0 24 24">
<title>filter-by-author</title>
<path opacity="0.73" fill="#000" d="M13.538 13.423c-0.127 0.146-0.203 0.336-0.203 0.544v5.829l-1.723-0.842v-4.987c0.001-0.191-0.066-0.385-0.203-0.544l-5.692-6.581h6.54c0.138 0 0.27-0.057 0.365-0.158l0.641-0.684c0.299-0.319 0.073-0.842-0.364-0.842h-9.038c-0.476 0-0.861 0.377-0.861 0.842 0 0.208 0.077 0.398 0.203 0.544l6.686 7.731v5.199c0 0.328 0.191 0.612 0.476 0.753l3.445 1.684c0.425 0.208 0.943 0.040 1.156-0.376 0.062-0.123 0.091-0.254 0.091-0.377v-6.884l1.246-1.441c0.2-0.232 0.147-0.587-0.112-0.75l-0.604-0.381c-0.209-0.131-0.483-0.091-0.644 0.096l-1.405 1.624z"></path>
<path opacity="0.73" fill="#000" d="M21.421 10.334v-0.878c0-0.605-0.246-1.154-0.642-1.551s-0.946-0.642-1.551-0.642h-3.508c-0.605 0-1.154 0.246-1.551 0.642s-0.642 0.946-0.642 1.551v0.878c0 0.242 0.197 0.439 0.439 0.439s0.439-0.197 0.439-0.439v-0.877c0-0.364 0.147-0.692 0.386-0.93s0.567-0.386 0.93-0.386h3.508c0.364 0 0.692 0.147 0.93 0.386s0.386 0.567 0.386 0.93v0.877c0 0.242 0.197 0.439 0.439 0.439s0.439-0.197 0.439-0.439zM19.666 4.193c0-0.605-0.246-1.154-0.642-1.551s-0.946-0.642-1.551-0.642c-0.605 0-1.154 0.246-1.551 0.642s-0.642 0.946-0.642 1.551 0.246 1.154 0.642 1.551c0.396 0.397 0.946 0.642 1.551 0.642s1.154-0.246 1.551-0.642 0.642-0.946 0.642-1.551zM18.79 4.193c0 0.364-0.147 0.692-0.386 0.93s-0.567 0.386-0.93 0.386c-0.364 0-0.692-0.147-0.93-0.386s-0.386-0.567-0.386-0.93c0-0.364 0.147-0.691 0.386-0.93s0.566-0.386 0.93-0.386c0.364 0 0.692 0.147 0.93 0.386s0.386 0.567 0.386 0.93z"></path>
</svg>
