<!-- Generated by IcoMoon.io -->
<svg version="1.1" xmlns="http://www.w3.org/2000/svg" width="32" height="32" viewBox="0 0 32 32">
<title>filter-by-author</title>
<path opacity="0.73" fill="#000" d="M18.051 17.897c-0.169 0.194-0.271 0.448-0.271 0.725v7.772l-2.297-1.123v-6.649c0.001-0.255-0.088-0.513-0.271-0.725l-7.589-8.774h8.72c0.184 0 0.36-0.076 0.486-0.211l0.855-0.912c0.399-0.426 0.097-1.123-0.486-1.123h-12.050c-0.634 0-1.148 0.503-1.148 1.123 0 0.277 0.102 0.531 0.271 0.725l8.915 10.308v6.932c0 0.437 0.255 0.816 0.635 1.004l4.593 2.246c0.567 0.277 1.257 0.053 1.541-0.502 0.083-0.164 0.122-0.338 0.121-0.502v-9.178l1.662-1.921c0.267-0.309 0.196-0.783-0.149-1l-0.806-0.508c-0.279-0.175-0.644-0.121-0.859 0.128l-1.873 2.165z"></path>
<path opacity="0.73" fill="#000" d="M28.561 13.778v-1.17c0-0.807-0.328-1.539-0.856-2.068s-1.261-0.856-2.068-0.856h-4.678c-0.807 0-1.539 0.328-2.068 0.856s-0.856 1.261-0.856 2.068v1.17c0 0.323 0.262 0.585 0.585 0.585s0.585-0.262 0.585-0.585v-1.17c0-0.485 0.196-0.922 0.514-1.24s0.756-0.514 1.24-0.514h4.678c0.485 0 0.922 0.196 1.24 0.514s0.514 0.756 0.514 1.24v1.17c0 0.323 0.262 0.585 0.585 0.585s0.585-0.262 0.585-0.585zM26.222 5.591c0-0.807-0.328-1.539-0.856-2.068s-1.261-0.856-2.068-0.856c-0.807 0-1.539 0.328-2.068 0.856s-0.856 1.261-0.856 2.068 0.328 1.539 0.856 2.068c0.528 0.529 1.261 0.856 2.068 0.856s1.539-0.328 2.068-0.856 0.856-1.261 0.856-2.068zM25.053 5.591c0 0.485-0.196 0.922-0.514 1.24s-0.756 0.514-1.24 0.514c-0.485 0-0.922-0.196-1.24-0.514s-0.514-0.756-0.514-1.24c0-0.485 0.196-0.922 0.514-1.24s0.755-0.514 1.24-0.514c0.485 0 0.922 0.196 1.24 0.514s0.514 0.756 0.514 1.24z"></path>
</svg>
