<!-- Generated by IcoMoon.io -->
<svg version="1.1" xmlns="http://www.w3.org/2000/svg" width="24" height="24" viewBox="0 0 24 24">
<title>filter-by-tags</title>
<path opacity="0.73" fill="#000" d="M13.538 13.423c-0.127 0.146-0.203 0.336-0.203 0.544v5.829l-1.723-0.842v-4.987c0.001-0.191-0.066-0.385-0.203-0.544l-5.692-6.581h6.54c0.138 0 0.27-0.057 0.365-0.158l0.641-0.684c0.299-0.319 0.073-0.842-0.364-0.842h-9.038c-0.476 0-0.861 0.377-0.861 0.842 0 0.208 0.077 0.398 0.203 0.544l6.686 7.731v5.199c0 0.328 0.191 0.612 0.476 0.753l3.445 1.684c0.425 0.208 0.943 0.040 1.156-0.376 0.062-0.123 0.091-0.254 0.091-0.377v-6.884l1.246-1.441c0.2-0.232 0.147-0.587-0.112-0.75l-0.604-0.381c-0.209-0.131-0.483-0.091-0.644 0.096l-1.405 1.624z"></path>
<path opacity="0.73" fill="#000" d="M19.006 8.006v-2.012h-2.011v2.012h2.011zM22 5.994h-2.011v2.011h2.011v0.982h-2.011v2.012h-0.983v-2.012h-2.011v2.012h-0.982v-2.012h-2.011v-0.982h2.011v-2.011h-2.011v-0.983h2.011v-2.011h0.982v2.011h2.011v-2.011h0.983v2.011h2.011v0.983z"></path>
</svg>
