<!-- Generated by IcoMoon.io -->
<svg version="1.1" xmlns="http://www.w3.org/2000/svg" width="32" height="32" viewBox="0 0 32 32">
<title>key</title>
<path d="M25.333 7.219l2.115 2.115-2.781 2.781-2.115-2.115 2.781-2.781zM14.251 16.431c1.179 1.164 1.775 2.693 1.785 4.229 0.011 1.537-0.565 3.075-1.729 4.255s-2.693 1.776-4.231 1.785c-1.537 0.009-3.075-0.565-4.255-1.729l-0.056-0.056c-1.165-1.18-1.74-2.717-1.729-4.255s0.607-3.067 1.785-4.231c1.172-1.156 2.697-1.732 4.225-1.728 1.521 0.003 3.037 0.58 4.203 1.728l0.001 0.001zM24.391 4.391c-0.521 0.521-0.521 1.365 0 1.885l0.943 0.943 1.885-1.885-0.943-0.943c-0.521-0.521-1.365-0.521-1.885 0zM24.391 4.391c-0.521 0.521-0.521 1.365 0 1.885s1.365 0.521 1.885 0c0.52-0.521 0.521-1.365 0-1.885s-1.365-0.521-1.885 0l-4.667 4.667c-0.521 0.521-0.521 1.365 0 1.885l0.943 0.943 1.885-1.885-0.943-0.943c-0.521-0.521-1.365-0.521-1.885 0s-0.521 1.365 0 1.885c0.521 0.52 1.365 0.521 1.885 0s0.521-1.365 0-1.885c-0.521-0.52-1.365-0.521-1.885 0l-4.615 4.615c-1.505-1.088-3.283-1.635-5.057-1.639-2.203-0.004-4.411 0.827-6.103 2.497-1.703 1.68-2.564 3.895-2.58 6.111s0.817 4.443 2.497 6.145l0.083 0.083c1.703 1.68 3.929 2.512 6.145 2.497s4.431-0.876 6.111-2.58c1.68-1.704 2.512-3.929 2.497-6.145-0.012-1.793-0.579-3.585-1.697-5.095l3.661-3.661 3.057 3.057c0.521 0.521 1.365 0.521 1.885 0l4.667-4.667c0.521-0.521 0.521-1.365 0-1.885l-3.057-3.057 1.724-1.724c0.521-0.521 0.521-1.365 0-1.885s-1.365-0.521-1.885 0l-2.667 2.667z"></path>
</svg>
