<!-- Generated by IcoMoon.io -->
<svg version="1.1" xmlns="http://www.w3.org/2000/svg" width="24" height="24" viewBox="0 0 24 24">
<title>list-view</title>
<path d="M3.011 3.499c0.001-0.275 0.224-0.499 0.5-0.499h16.987c0.277 0 0.501 0.225 0.5 0.502l-0.008 2.272c-0.001 0.275-0.224 0.499-0.5 0.499h-16.987c-0.277 0-0.501-0.225-0.5-0.502l0.007-2.272zM3.5 11.182c-0.276 0-0.5-0.224-0.5-0.5v-2.272c0-0.276 0.224-0.5 0.5-0.5h16.987c0.276 0 0.5 0.223 0.5 0.5v2.272c0 0.276-0.224 0.5-0.5 0.5h-16.987z"></path>
<path d="M3 13.319c0-0.276 0.224-0.5 0.5-0.5h16.987c0.276 0 0.5 0.223 0.5 0.5v2.273c0 0.276-0.224 0.5-0.5 0.5h-16.987c-0.276 0-0.5-0.223-0.5-0.5v-2.273z"></path>
<path d="M3.002 20.498c-0.001 0.277 0.223 0.502 0.5 0.502h16.998c0.276 0 0.5-0.224 0.5-0.5v-2.273c0-0.276-0.224-0.5-0.5-0.5h-16.989c-0.275 0-0.499 0.223-0.5 0.498l-0.009 2.273z"></path>
</svg>
