<!-- Generated by IcoMoon.io -->
<svg version="1.1" xmlns="http://www.w3.org/2000/svg" width="32" height="32" viewBox="0 0 32 32">
<title>list-view</title>
<path d="M4.015 4.665c0.001-0.367 0.299-0.665 0.667-0.665h22.649c0.369 0 0.668 0.3 0.667 0.669l-0.010 3.030c-0.001 0.367-0.299 0.665-0.667 0.665h-22.649c-0.369 0-0.668-0.3-0.667-0.669l0.010-3.030zM4.667 14.909c-0.368 0-0.667-0.298-0.667-0.667v-3.030c0-0.368 0.298-0.667 0.667-0.667h22.649c0.368 0 0.667 0.298 0.667 0.667v3.030c0 0.368-0.299 0.667-0.667 0.667h-22.649z"></path>
<path d="M4 17.758c0-0.368 0.298-0.667 0.667-0.667h22.649c0.368 0 0.667 0.298 0.667 0.667v3.030c0 0.368-0.299 0.667-0.667 0.667h-22.649c-0.368 0-0.667-0.298-0.667-0.667v-3.030z"></path>
<path d="M4.003 27.331c-0.001 0.369 0.297 0.669 0.667 0.669h22.664c0.368 0 0.667-0.299 0.667-0.667v-3.030c0-0.368-0.299-0.667-0.667-0.667h-22.652c-0.367 0-0.665 0.297-0.667 0.664l-0.012 3.030z"></path>
</svg>
