<!-- Generated by IcoMoon.io -->
<svg version="1.1" xmlns="http://www.w3.org/2000/svg" width="32" height="32" viewBox="0 0 32 32">
<title>log-in</title>
<path d="M20 5.333h5.333c0.368 0 0.7 0.148 0.943 0.391s0.391 0.575 0.391 0.943v18.667c0 0.368-0.148 0.7-0.391 0.943s-0.575 0.391-0.943 0.391h-5.333c-0.736 0-1.333 0.597-1.333 1.333s0.597 1.333 1.333 1.333h5.333c1.104 0 2.107-0.449 2.828-1.172s1.172-1.724 1.172-2.828v-18.667c0-1.104-0.449-2.107-1.172-2.828s-1.724-1.172-2.828-1.172h-5.333c-0.736 0-1.333 0.597-1.333 1.333s0.597 1.333 1.333 1.333zM16.781 14.667h-12.781c-0.736 0-1.333 0.597-1.333 1.333s0.597 1.333 1.333 1.333h12.781l-4.391 4.391c-0.521 0.521-0.521 1.365 0 1.885s1.365 0.521 1.885 0l6.667-6.667c0.128-0.128 0.224-0.275 0.289-0.432s0.101-0.329 0.101-0.511c0-0.173-0.033-0.348-0.101-0.511-0.065-0.157-0.161-0.304-0.289-0.432l-6.667-6.667c-0.521-0.521-1.365-0.521-1.885 0s-0.521 1.365 0 1.885l4.391 4.391z"></path>
</svg>
