<!-- Generated by IcoMoon.io -->
<svg version="1.1" xmlns="http://www.w3.org/2000/svg" width="32" height="32" viewBox="0 0 32 32">
<title>log-out</title>
<path d="M12 26.667h-5.333c-0.368 0-0.7-0.148-0.943-0.391s-0.391-0.575-0.391-0.943v-18.667c0-0.368 0.148-0.7 0.391-0.943s0.575-0.391 0.943-0.391h5.333c0.736 0 1.333-0.597 1.333-1.333s-0.597-1.333-1.333-1.333h-5.333c-1.104 0-2.107 0.449-2.828 1.172s-1.172 1.724-1.172 2.828v18.667c0 1.104 0.449 2.107 1.172 2.828s1.724 1.172 2.828 1.172h5.333c0.736 0 1.333-0.597 1.333-1.333s-0.597-1.333-1.333-1.333zM24.781 14.667h-12.781c-0.736 0-1.333 0.597-1.333 1.333s0.597 1.333 1.333 1.333h12.781l-4.391 4.391c-0.521 0.521-0.521 1.365 0 1.885s1.365 0.521 1.885 0l6.667-6.667c0.128-0.128 0.224-0.275 0.289-0.432 0.2-0.483 0.104-1.060-0.289-1.453l-6.667-6.667c-0.521-0.521-1.365-0.521-1.885 0s-0.521 1.365 0 1.885l4.391 4.391z"></path>
</svg>
