<!-- Generated by IcoMoon.io -->
<svg version="1.1" xmlns="http://www.w3.org/2000/svg" width="32" height="32" viewBox="0 0 32 32">
<title>menu</title>
<path d="M4 17.333h24c0.736 0 1.333-0.597 1.333-1.333s-0.597-1.333-1.333-1.333h-24c-0.736 0-1.333 0.597-1.333 1.333s0.597 1.333 1.333 1.333zM4 9.333h24c0.736 0 1.333-0.597 1.333-1.333s-0.597-1.333-1.333-1.333h-24c-0.736 0-1.333 0.597-1.333 1.333s0.597 1.333 1.333 1.333zM4 25.333h24c0.736 0 1.333-0.597 1.333-1.333s-0.597-1.333-1.333-1.333h-24c-0.736 0-1.333 0.597-1.333 1.333s0.597 1.333 1.333 1.333z"></path>
</svg>
