<!-- Generated by IcoMoon.io -->
<svg version="1.1" xmlns="http://www.w3.org/2000/svg" width="32" height="32" viewBox="0 0 32 32">
<title>star</title>
<path d="M17.196 2.076c-0.123-0.252-0.331-0.469-0.605-0.605-0.66-0.325-1.46-0.055-1.785 0.605l-3.811 7.719-8.521 1.247c-0.277 0.039-0.548 0.169-0.761 0.388-0.515 0.528-0.503 1.372 0.024 1.885l6.164 6.004-1.455 8.483c-0.048 0.276-0.008 0.575 0.135 0.845 0.343 0.652 1.149 0.903 1.801 0.56l7.619-4.007 7.62 4.007c0.248 0.132 0.544 0.185 0.845 0.135 0.725-0.124 1.213-0.813 1.089-1.54l-1.455-8.483 6.164-6.004c0.201-0.195 0.345-0.459 0.389-0.763 0.107-0.728-0.397-1.405-1.127-1.512l-8.52-1.245-3.811-7.719zM16 5.679l2.924 5.925c0.201 0.407 0.581 0.665 1.003 0.729l6.541 0.956-4.732 4.609c-0.325 0.317-0.455 0.759-0.384 1.18l1.116 6.511-5.848-3.076c-0.401-0.211-0.863-0.197-1.241 0l-5.848 3.076 1.116-6.511c0.077-0.448-0.079-0.881-0.384-1.18l-4.732-4.609 6.543-0.957c0.448-0.065 0.812-0.347 1.003-0.728l2.924-5.925z"></path>
</svg>
