<!-- Generated by IcoMoon.io -->
<svg version="1.1" xmlns="http://www.w3.org/2000/svg" width="24" height="24" viewBox="0 0 24 24">
<title>tile-view</title>
<path d="M3.012 3.5c0.001-0.276 0.224-0.5 0.5-0.5h7.168c0.277 0 0.5 0.224 0.5 0.501l-0.011 7.182c-0.001 0.276-0.224 0.5-0.5 0.5h-7.168c-0.277 0-0.5-0.224-0.5-0.501l0.011-7.182z"></path>
<path d="M3 20.5c0 0.276 0.224 0.5 0.5 0.5h7.194c0.277 0 0.5-0.224 0.5-0.501l-0.011-7.182c-0.001-0.276-0.224-0.5-0.5-0.5h-7.183c-0.276 0-0.5 0.223-0.5 0.5v7.182z"></path>
<path d="M12.818 3.5c0-0.276 0.223-0.5 0.5-0.5h7.182c0.276 0 0.5 0.224 0.5 0.5v7.182c0 0.276-0.224 0.5-0.5 0.5h-7.182c-0.276 0-0.5-0.224-0.5-0.5v-7.182z"></path>
<path d="M12.818 13.319c0-0.276 0.223-0.5 0.5-0.5h7.182c0.276 0 0.5 0.223 0.5 0.5v7.182c0 0.276-0.224 0.5-0.5 0.5h-7.182c-0.276 0-0.5-0.224-0.5-0.5v-7.182z"></path>
</svg>
