<!-- Generated by IcoMoon.io -->
<svg version="1.1" xmlns="http://www.w3.org/2000/svg" width="32" height="32" viewBox="0 0 32 32">
<title>tile-view</title>
<path d="M4.016 4.666c0.001-0.368 0.299-0.666 0.667-0.666h9.558c0.369 0 0.667 0.299 0.667 0.668l-0.015 9.576c-0.001 0.368-0.299 0.666-0.667 0.666h-9.558c-0.369 0-0.667-0.299-0.667-0.668l0.015-9.576z"></path>
<path d="M4 27.333c0 0.368 0.298 0.667 0.667 0.667h9.592c0.369 0 0.667-0.299 0.667-0.668l-0.015-9.576c-0.001-0.368-0.299-0.666-0.667-0.666h-9.577c-0.368 0-0.667 0.298-0.667 0.667v9.576z"></path>
<path d="M17.091 4.667c0-0.368 0.298-0.667 0.667-0.667h9.576c0.368 0 0.667 0.298 0.667 0.667v9.576c0 0.368-0.299 0.667-0.667 0.667h-9.576c-0.368 0-0.667-0.298-0.667-0.667v-9.576z"></path>
<path d="M17.091 17.758c0-0.368 0.298-0.667 0.667-0.667h9.576c0.368 0 0.667 0.298 0.667 0.667v9.576c0 0.368-0.299 0.667-0.667 0.667h-9.576c-0.368 0-0.667-0.299-0.667-0.667v-9.576z"></path>
</svg>
