<!-- Generated by IcoMoon.io -->
<svg version="1.1" xmlns="http://www.w3.org/2000/svg" width="24" height="24" viewBox="0 0 24 24">
<title>upload-cloud-with-shadow</title>
<path fill="#fff" d="M11.077 14.177v6.056c0 0.508 0.414 0.92 0.923 0.92s0.923-0.412 0.923-0.92v-6.056l2.117 2.108c0.361 0.36 0.945 0.36 1.305 0s0.361-0.942 0-1.3l-3.692-3.678c-0.089-0.088-0.19-0.154-0.299-0.199-0.113-0.047-0.234-0.070-0.354-0.070-0.236 0-0.473 0.090-0.653 0.269l-3.692 3.678c-0.361 0.36-0.361 0.942 0 1.3s0.945 0.36 1.305 0l2.117-2.108zM20.187 18.641c1.342-0.729 2.262-1.933 2.662-3.286s0.282-2.862-0.45-4.199c-0.627-1.145-1.603-1.983-2.732-2.449-0.668-0.276-1.388-0.422-2.121-0.428h-0.486c-0.669-1.891-1.979-3.41-3.616-4.37-1.83-1.074-4.075-1.454-6.296-0.882s-4 1.988-5.079 3.812c-1.079 1.823-1.459 4.060-0.885 6.272 0.343 1.321 0.99 2.492 1.823 3.414 0.341 0.378 0.925 0.408 1.303 0.069s0.41-0.921 0.069-1.298c-0.635-0.703-1.14-1.609-1.409-2.646-0.447-1.721-0.151-3.458 0.689-4.878s2.222-2.52 3.95-2.965c1.728-0.445 3.472-0.151 4.897 0.686s2.529 2.213 2.976 3.935c0.107 0.4 0.467 0.69 0.894 0.69h1.157c0.495 0.004 0.979 0.102 1.426 0.287 0.752 0.311 1.401 0.867 1.818 1.63 0.488 0.892 0.568 1.895 0.3 2.799s-0.88 1.705-1.775 2.19c-0.448 0.243-0.613 0.802-0.368 1.248s0.805 0.611 1.253 0.367l0.001 0.001z"></path>
</svg>
