<!-- Generated by IcoMoon.io -->
<svg version="1.1" xmlns="http://www.w3.org/2000/svg" width="32" height="32" viewBox="0 0 32 32">
<title>user</title>
<path d="M28 28v-2.667c0-1.84-0.748-3.509-1.952-4.715s-2.875-1.952-4.715-1.952h-10.667c-1.84 0-3.509 0.748-4.715 1.952s-1.952 2.875-1.952 4.715v2.667c0 0.736 0.597 1.333 1.333 1.333s1.333-0.597 1.333-1.333v-2.667c0-1.105 0.447-2.103 1.172-2.828s1.723-1.172 2.828-1.172h10.667c1.105 0 2.103 0.447 2.828 1.172s1.172 1.723 1.172 2.828v2.667c0 0.736 0.597 1.333 1.333 1.333s1.333-0.597 1.333-1.333zM22.667 9.333c0-1.84-0.748-3.509-1.952-4.715s-2.875-1.952-4.715-1.952c-1.84 0-3.509 0.748-4.715 1.952s-1.952 2.875-1.952 4.715c0 1.84 0.748 3.509 1.952 4.715s2.875 1.952 4.715 1.952c1.84 0 3.509-0.748 4.715-1.952s1.952-2.875 1.952-4.715zM20 9.333c0 1.105-0.447 2.103-1.172 2.828s-1.723 1.172-2.828 1.172c-1.105 0-2.103-0.447-2.828-1.172s-1.172-1.723-1.172-2.828c0-1.105 0.447-2.103 1.172-2.828s1.723-1.172 2.828-1.172c1.105 0 2.103 0.447 2.828 1.172s1.172 1.723 1.172 2.828z"></path>
</svg>
