<!-- Generated by IcoMoon.io -->
<svg version="1.1" xmlns="http://www.w3.org/2000/svg" width="32" height="32" viewBox="0 0 32 32">
<title>user-plus</title>
<path d="M22.667 28v-2.667c0-1.84-0.748-3.509-1.952-4.715s-2.875-1.952-4.715-1.952h-9.333c-1.84 0-3.509 0.748-4.715 1.952s-1.952 2.875-1.952 4.715v2.667c0 0.736 0.597 1.333 1.333 1.333s1.333-0.597 1.333-1.333v-2.667c0-1.105 0.447-2.103 1.172-2.828s1.723-1.172 2.828-1.172h9.333c1.105 0 2.103 0.447 2.828 1.172s1.172 1.723 1.172 2.828v2.667c0 0.736 0.597 1.333 1.333 1.333s1.333-0.597 1.333-1.333zM18 9.333c0-1.84-0.748-3.509-1.952-4.715s-2.875-1.952-4.715-1.952c-1.84 0-3.509 0.748-4.715 1.952s-1.952 2.875-1.952 4.715c0 1.84 0.748 3.509 1.952 4.715s2.875 1.952 4.715 1.952c1.84 0 3.509-0.748 4.715-1.952s1.952-2.875 1.952-4.715zM15.333 9.333c0 1.105-0.447 2.103-1.172 2.828s-1.723 1.172-2.828 1.172c-1.105 0-2.103-0.447-2.828-1.172s-1.172-1.723-1.172-2.828c0-1.105 0.447-2.103 1.172-2.828s1.723-1.172 2.828-1.172c1.105 0 2.103 0.447 2.828 1.172s1.172 1.723 1.172 2.828zM30.667 13.333h-2.667v-2.667c0-0.736-0.597-1.333-1.333-1.333s-1.333 0.597-1.333 1.333v2.667h-2.667c-0.736 0-1.333 0.597-1.333 1.333s0.597 1.333 1.333 1.333h2.667v2.667c0 0.736 0.597 1.333 1.333 1.333s1.333-0.597 1.333-1.333v-2.667h2.667c0.736 0 1.333-0.597 1.333-1.333s-0.597-1.333-1.333-1.333z"></path>
</svg>
